<?xml version="1.0" encoding="utf-8"?>
<!-- Generator: Adobe Illustrator 17.1.0, SVG Export Plug-In . SVG Version: 6.00 Build 0)  -->
<!DOCTYPE svg PUBLIC "-//W3C//DTD SVG 1.1//EN" "http://www.w3.org/Graphics/SVG/1.1/DTD/svg11.dtd">
<svg version="1.1" id="Layer_1" xmlns="http://www.w3.org/2000/svg" xmlns:xlink="http://www.w3.org/1999/xlink" x="0px" y="0px"
	 viewBox="0 0 160 160" enable-background="new 0 0 160 160" xml:space="preserve">
<g>
	<path fill="#383433" d="M79.5,0.2C35.5,0.2-0.2,36-0.2,80c0,44,35.8,79.8,79.8,79.8c44,0,79.8-35.8,79.8-79.8
		C159.4,36,123.6,0.2,79.5,0.2z M79.5,158.2c-43.1,0-78.2-35.1-78.2-78.2c0-43.1,35.1-78.2,78.2-78.2c43.1,0,78.2,35.1,78.2,78.2
		C157.8,123.1,122.7,158.2,79.5,158.2z"/>
	<g>
		<g>
			<g>
				<path fill="#383433" d="M86.7,75.9c0,0-1.1,3.7,2.2,4.3c2.7,0.5,3-1.7,3-1.7s-1-3.3,3-4.5c4-1.2,6.1,0.1,9.6-1.9
					c3.3-1.9,4.3-3.7,4.7-6.8c0.5-3,0.3-8.3,0.2-8.7c0,0-0.6-0.2-0.8,1.5c-0.2,1.8-0.3,4-0.7,5c-0.2,0.5-0.6,1.8-1.1,2.9
					c-0.3,0.8-0.7,1.5-1.1,1.9c-0.9,0.9-3.3,2.6-6.5,2.4c-0.2,0,4-2.4,4-2.4s3.4-1.9,4.3-2.1c0.9-0.3,6.4-3.8,7.8-5.5
					c1.3-1.8,4.5-3.5,4.7-3.7c0.3-0.3,2.3-2.1,3.1-4.3c0.8-2.2,1.4-5.9,1.3-7.1c0-1.3-0.5-0.4-0.5-0.4s-1.3,4.8-1.7,5.4
					c-0.4,0.7-1.3,2.8-2.8,3.9c-1.4,1.1-2.3,1.7-2.7,1.8c-0.4,0.1-0.5,0-0.2-1.2c0.4-1.3,1.3-6,1.4-6.4c0.1-0.5,0.9-4.3,0.8-5.7
					c-0.1-0.8,0.6-5.3,0.7-5.7c0.1-0.3,1-6.3,0.9-7.4c-0.1-1.2-1.2-3.8-1.4-4.6c-0.2-0.7-0.5-2.9-0.9-3.8c-0.4-0.9-0.3-1.8-0.7-1.7
					c-0.5,0.1,0,1.7,0,1.9c0,0.2,0.2,2.4,0.2,3.1c0,0.7,0.5,3.1,0.7,3.6c0.2,0.5,0.4,1.6,0.3,2.5c-0.2,0.9-0.3,2.5-0.6,3
					c-0.3,0.5-1.3,2.1-2.5,0.8c-0.4-0.4-1.5-2.9-2-3.6c-0.5-0.7-1-2.3-1.7-3.1c-0.7-0.8-1.2-1.5-2.7-2.9c-1.5-1.4-1.6-1.8-2.1-2.5
					c-0.5-0.6-1.6-2.2-2.1-2.8c-0.3-0.4-0.9-0.4-0.1,0.8c0.8,1.3,2.1,4,2.8,4.8c0.7,0.9,1.8,3,2.1,3.6c0.3,0.6,1.4,2.8,1.9,3.6
					c0.4,0.8,1.3,2.7,1.9,4c0.6,1.3,1.6,3.9,1.8,6.3c0.2,2.3-0.1,4-0.5,5.7c-0.4,1.7-0.3,3.5-0.7,4.8c0,0-0.2,3.1-2.1,5.1
					c-1.9,1.9-4.2,3.4-4.8,3.8c-0.6,0.4-4.2,2.2-5.6,3.2c-1.4,1-8.9,5.9-9.3,6.3c-0.4,0.4-0.9,0.6-0.9,0.6s-2-2.7-2-2.4
					c0,0.3-0.1,2.7-0.5,3.2c-0.4,0.5-0.7,1.1-0.6,1.7C88.3,75.1,86.7,75.9,86.7,75.9L86.7,75.9z"/>
			</g>
		</g>
		<g>
			<g>
				<path fill="#383433" d="M72.4,75.5c0,0,1.1,3.8-2.3,4.4c-2.7,0.5-3-1.7-3-1.7s1-3.3-3-4.5c-4-1.2-6.2,0.1-9.6-1.9
					c-3.3-1.9-4.3-3.7-4.7-6.8c-0.5-3-0.3-8.3-0.2-8.7c0,0,0.6-0.2,0.8,1.5c0.2,1.8,0.3,4,0.7,5c0.2,0.5,0.6,1.8,1.1,2.9
					c0.3,0.8,0.7,1.5,1.1,1.9c0.9,0.9,3.3,2.6,6.5,2.4c0.2,0-4-2.4-4-2.4s-3.4-1.9-4.3-2.1c-0.9-0.3-6.4-3.8-7.8-5.5
					c-1.3-1.8-4.5-3.5-4.7-3.7c-0.3-0.3-2.3-2.1-3.1-4.3c-0.8-2.2-1.4-5.9-1.3-7.1c0-1.3,0.5-0.4,0.5-0.4s1.3,4.8,1.7,5.4
					c0.4,0.7,1.3,2.8,2.8,3.9c1.4,1.1,2.3,1.7,2.7,1.8c0.4,0.1,0.5,0,0.2-1.2c-0.4-1.3-1.3-6-1.4-6.4c-0.1-0.5-0.9-4.3-0.8-5.7
					c0.1-0.8-0.6-5.3-0.7-5.7c-0.1-0.3-1-6.3-0.9-7.4c0.1-1.2,1.2-3.8,1.4-4.6c0.2-0.7,0.5-2.9,0.9-3.8c0.4-0.9,0.3-1.8,0.7-1.7
					c0.5,0.1,0,1.7,0,1.9c0,0.2-0.2,2.4-0.2,3.1c0,0.7-0.5,3.1-0.7,3.6c-0.2,0.5-0.4,1.6-0.2,2.5c0.2,0.9,0.3,2.5,0.6,3
					c0.3,0.5,1.3,2.1,2.5,0.8c0.4-0.4,1.5-2.9,2-3.6c0.5-0.7,1-2.3,1.7-3.1c0.7-0.8,1.2-1.5,2.7-2.9c1.5-1.4,1.6-1.8,2.1-2.5
					c0.5-0.6,1.6-2.2,2.1-2.8c0.3-0.4,0.9-0.5,0.1,0.8c-0.8,1.3-2.1,4-2.8,4.8c-0.7,0.9-1.8,3-2.1,3.6c-0.3,0.6-1.4,2.8-1.9,3.6
					c-0.4,0.8-1.3,2.7-1.9,4c-0.6,1.3-1.6,3.9-1.8,6.3c-0.2,2.3,0.1,4,0.5,5.7c0.4,1.7,0.3,3.5,0.7,4.8c0,0,0.2,3.1,2.1,5.1
					c1.9,1.9,4.2,3.4,4.8,3.8c0.6,0.4,4.2,2.2,5.6,3.2c1.4,1,8.9,5.9,9.3,6.3c0.4,0.4,0.9,0.6,0.9,0.6s2-2.7,2-2.4
					c0,0.3,0.1,2.7,0.5,3.2c0.4,0.5,0.7,1.1,0.6,1.7C70.8,74.8,72.4,75.5,72.4,75.5L72.4,75.5z"/>
			</g>
		</g>
	</g>
	<g>
		<g>
			<polygon fill="#383433" points="79.1,46.8 40.4,120.4 117.7,120.4 			"/>
		</g>
	</g>
	<g>
		<path fill="#FFFFFF" d="M83.6,78.3l0-0.2l-4.5-5.4c-0.1,0-0.1,0-0.2,0l-4.5,5.4l0,0.2c0,0,1.2,1.9,3,3.8L72,109.9l7.1,7.1l7.1-7.1
			l-5.5-28C82.4,80.1,83.6,78.3,83.6,78.3z"/>
		<path fill="#FFFFFF" d="M87.7,65.5c-1,1.4-5.2,6.6-8.3,6.9c0.2,0.2,6.7,7.1,7.1,7.5c0.7-0.9,3.3-4.8,3.3-10.9
			C89.7,68.8,88,66,87.7,65.5z"/>
		<path fill="#FFFFFF" d="M70.4,65.5c-0.3,0.6-2,3.3-2.1,3.5c0,6.1,2.6,9.9,3.3,10.9c0.4-0.4,7-7.3,7.1-7.5
			C75.6,72.1,71.5,66.8,70.4,65.5z"/>
	</g>
	<g>
		<g>
			<g>
				<g>
					<rect x="91.5" y="141.9" fill="#272626" width="18.4" height="0.5"/>
				</g>
			</g>
		</g>
		<g>
			<g>
				<g>
					<rect x="48.3" y="141.9" fill="#272626" width="18.4" height="0.5"/>
				</g>
			</g>
		</g>
	</g>
	<g id="text_39_">
		<g>
			<path fill="#383433" d="M69.5,144c0.9-1.1,3.4-4.3,3.8-4.9l0.8,0.4c-0.6,1.3-0.6,2.9-0.9,3.9c0.4-0.3,0.9-0.7,1.3-1.1l0.1-0.1
				c0.2,0,0.3,0.2,0.4,0.4c-0.8,0.9-1.9,1.8-2.9,1.9c0,0,0,0,0,0c-0.1,0-0.2,0-0.3,0c-1,0-1.2-0.8-1.2-0.8l0.7-0.3
				c0,0,0.1,0.4,0.5,0.4c1,0,0.8-2,1.2-3.1c-0.4,0.5-2.4,3.1-3,3.8C69.7,144.2,69.5,144.1,69.5,144z"/>
			<path fill="#383433" d="M75.5,138.8h1l1-1.7h1.1l-1,1.7h0.9l-0.3,0.5h-0.9l-2.3,3.9c-0.2,0.4-0.1,0.6,0.1,0.6
				c0.5,0,1.2-0.7,2-1.6l0.1-0.1c0.1,0.1,0.3,0.2,0.4,0.4c-0.9,1-1.9,1.9-2.7,1.9c-0.8,0-1.2-0.7-0.7-1.5l2.1-3.7h-1L75.5,138.8z"/>
			<path fill="#383433" d="M79.2,142.5l1.9-3.2h1.1l-2.9,4.9c0.8-0.4,1.6-1,2.4-2l0.1-0.1c0.1,0.1,0.3,0.2,0.4,0.4
				c-1.2,1.3-2.2,2.1-3.3,2.4l-0.8,1.4c-0.8,1.3-2.3,1.1-2.3,0.1c0-0.8,0.9-1.4,2.3-1.8l0.6-1c-0.5,0.4-1.1,0.8-1.6,0.8
				c-0.7,0-0.9-0.7-0.4-1.6l2.1-3.6h1.1l-2.1,3.6c-0.1,0.2-0.4,0.6-0.1,0.7C77.8,143.7,78.4,143.3,79.2,142.5z M77.2,146.1l0.5-0.8
				c-0.8,0.3-1.1,0.6-1.1,0.9C76.6,146.5,76.9,146.5,77.2,146.1z"/>
			<path fill="#383433" d="M84.4,142.1c0.1,0.1,0.3,0.2,0.4,0.4c-0.9,1-1.9,1.9-2.7,1.9c-0.8,0-1.2-0.7-0.7-1.5l3.4-5.9h1.1
				l-3.5,6.2c-0.2,0.4-0.1,0.6,0.1,0.6C82.8,143.8,83.5,143.1,84.4,142.1L84.4,142.1z"/>
			<path fill="#383433" d="M85.3,142.4l-0.1,0.2c-0.5,0.8-0.1,1.3,0.5,1.3c0.7,0,1.7-0.7,2.5-1.6l0.1-0.1c0.1,0.1,0.3,0.2,0.4,0.4
				c-0.9,1-2.1,1.9-3.2,1.9c-1.2,0-1.8-1-1.2-2.2l1.1-1.9c0.4-0.8,1.1-1.2,2-1.2c0.9,0,1.4,0.7,0.8,1.7l-0.2,0.3
				C87.3,142.5,86,142.6,85.3,142.4z M85.6,141.8c0.4,0.1,1.1,0.2,1.6-0.7l0.2-0.3c0.6-1.1-0.4-1.3-1.1-0.2L85.6,141.8z"/>
		</g>
		<g>
			<path fill="#383433" d="M49.7,133.8v-0.4c0.5,0,0.9-0.1,1.1-0.2c0.2-0.1,0.3-0.2,0.4-0.4c0.1-0.2,0.1-0.5,0.1-1v-3.3h-5.4v3.2
				c0,0.4,0,0.7,0,0.9c0,0.2,0.1,0.3,0.2,0.5c0.1,0.1,0.2,0.2,0.4,0.2c0.2,0.1,0.5,0.1,0.9,0.1v0.4h-5.1v-0.4c0.4,0,0.6,0,0.8-0.1
				c0.2,0,0.4-0.1,0.5-0.2c0.1-0.1,0.2-0.3,0.2-0.5c0-0.2,0.1-0.5,0.1-0.8v-7.2c0-0.5-0.1-0.8-0.3-1c-0.2-0.1-0.7-0.2-1.3-0.3V123
				h5.1v0.4c-0.5,0-0.9,0.1-1.1,0.2c-0.2,0.1-0.4,0.3-0.4,0.5c-0.1,0.2-0.1,0.6-0.1,1.1v2.8h5.4v-3.2c0-0.4,0-0.7-0.1-0.8
				c-0.1-0.2-0.2-0.3-0.4-0.3c-0.2-0.1-0.6-0.1-1-0.1V123h5.1v0.4c-0.5,0-0.9,0.1-1.1,0.1c-0.2,0.1-0.3,0.2-0.4,0.5
				c-0.1,0.2-0.1,0.6-0.1,1.1v6.7c0,0.4,0,0.7,0.1,0.9c0.1,0.2,0.2,0.4,0.4,0.5c0.2,0.1,0.6,0.1,1.1,0.1v0.4H49.7z M44.2,124.7v7.3
				c0,0.4-0.1,0.8-0.2,0.9c-0.1,0.2-0.2,0.3-0.4,0.4h0.2c0.3,0,0.5-0.1,0.6-0.3c0.1-0.2,0.2-0.6,0.2-1v-6.8c0-0.5,0-0.8-0.1-1.1
				c0-0.2-0.1-0.4-0.3-0.5c-0.1-0.1-0.4-0.1-0.7-0.1c0.2,0.1,0.3,0.2,0.4,0.4C44.2,124,44.2,124.3,44.2,124.7z M51.6,124.6v7.6
				c0,0.4,0,0.6-0.1,0.8c-0.1,0.2-0.2,0.3-0.4,0.4h0.3c0.3,0,0.5-0.1,0.6-0.2c0.1-0.2,0.2-0.4,0.2-0.7v-7.6c0-0.5,0-0.8-0.1-1
				c-0.1-0.2-0.3-0.3-0.7-0.3H51c0.2,0.1,0.4,0.2,0.4,0.4C51.5,124,51.6,124.3,51.6,124.6z"/>
			<path fill="#383433" d="M55.9,123H61v0.4c-0.5,0-0.8,0.1-1.1,0.2c-0.3,0.1-0.4,0.3-0.4,0.7c0,0.2,0,0.4,0,0.5c0,0.1,0,0.2,0,0.2
				v7c0,0.3,0,0.5,0.1,0.7c0.1,0.2,0.2,0.3,0.3,0.4c0.1,0.1,0.3,0.1,0.4,0.2c0.2,0,0.4,0.1,0.8,0.1v0.4h-5.1v-0.4
				c0.5,0,0.8-0.1,1-0.1c0.2-0.1,0.4-0.2,0.5-0.4c0.1-0.2,0.1-0.5,0.1-0.9V125c0-0.4,0-0.7-0.1-0.9c0-0.2-0.1-0.3-0.2-0.4
				c-0.1-0.1-0.3-0.1-0.4-0.2c-0.2,0-0.5-0.1-0.9-0.1V123z M57.8,124.8v7.6c0,0.3,0,0.5-0.1,0.6c-0.1,0.1-0.3,0.2-0.5,0.4
				c0.3,0,0.6-0.1,0.8-0.2c0.2-0.1,0.3-0.3,0.3-0.7v-8.1c0-0.3-0.1-0.6-0.2-0.8c-0.1-0.2-0.4-0.3-0.8-0.2c0.4,0.2,0.6,0.6,0.6,1.2
				c0,0,0,0.1,0,0.1C57.8,124.7,57.8,124.8,57.8,124.8z"/>
			<path fill="#383433" d="M65.7,128.9v3.2c0,0.3,0,0.5,0.1,0.7c0.1,0.2,0.2,0.3,0.4,0.4c0.2,0.1,0.4,0.1,0.6,0.1c0.3,0,0.5,0,0.8,0
				v0.4h-5.6v-0.4c0.4,0,0.7,0,0.9-0.1c0.2,0,0.4-0.1,0.5-0.2c0.1-0.1,0.2-0.2,0.2-0.4c0-0.2,0.1-0.4,0.1-0.7v-6.7
				c0-0.6,0-1-0.1-1.2c0-0.2-0.2-0.4-0.4-0.5c-0.2-0.1-0.6-0.2-1.2-0.2V123h5.3c0.2,0,0.8,0,1.7,0.1c0.3,0,0.6,0.1,0.9,0.3
				c0.3,0.1,0.6,0.3,0.9,0.6c0.3,0.2,0.5,0.5,0.7,0.9c0.2,0.3,0.3,0.7,0.3,1.1c0,0.4-0.1,0.8-0.3,1.2c-0.2,0.4-0.4,0.7-0.8,0.9
				c-0.4,0.3-0.8,0.5-1.4,0.6c-0.6,0.1-1.2,0.2-1.9,0.2H65.7z M64,125.2v7.2c0,0.5-0.2,0.8-0.6,1h0.2c0.6,0,0.8-0.3,0.8-0.8v-7
				c0-0.6,0-1,0-1.2c0-0.2,0-0.4-0.1-0.5c-0.1-0.1-0.2-0.2-0.3-0.3c-0.2-0.1-0.4-0.1-0.7-0.1c0.2,0.1,0.3,0.2,0.4,0.3
				c0.1,0.1,0.1,0.3,0.2,0.5C64,124.5,64,124.8,64,125.2z M65.7,128.5h1.1c0.6,0,1.2-0.1,1.6-0.2c0.4-0.2,0.8-0.4,1-0.8
				c0.2-0.4,0.3-0.9,0.3-1.5c0-0.9-0.3-1.6-0.9-2.1c-0.2-0.2-0.5-0.3-0.8-0.4c-0.3-0.1-0.6-0.1-0.9-0.1c-0.4,0-0.7,0.1-0.9,0.2
				c-0.2,0.1-0.3,0.3-0.4,0.5c0,0.2-0.1,0.6-0.1,1.1V128.5z M68.6,128.4c0.6-0.1,1.1-0.3,1.4-0.7c0.3-0.4,0.5-0.9,0.5-1.7
				c0-0.8-0.2-1.3-0.5-1.7c-0.3-0.4-0.8-0.6-1.4-0.8c0.3,0.1,0.5,0.3,0.7,0.6c0.2,0.2,0.4,0.5,0.5,0.8c0.1,0.3,0.2,0.7,0.2,1
				C70,127.2,69.5,128,68.6,128.4z"/>
			<path fill="#383433" d="M73.4,129.9h0.5c0.3,0.8,0.6,1.5,1,2c0.4,0.5,0.8,1,1.3,1.2c0.5,0.3,1,0.4,1.5,0.4c0.6,0,1.2-0.2,1.6-0.6
				c0.5-0.4,0.7-0.9,0.7-1.5c0-0.6-0.2-1-0.5-1.4c-0.3-0.3-0.7-0.5-1.1-0.7c-0.4-0.1-1-0.3-1.6-0.4c-0.7-0.1-1.2-0.2-1.5-0.3
				c-0.4-0.2-0.8-0.4-1.1-0.6c-0.3-0.3-0.5-0.6-0.7-1c-0.2-0.4-0.2-0.8-0.2-1.2c0-0.4,0.1-0.8,0.2-1.2c0.1-0.4,0.3-0.7,0.6-1
				c0.3-0.3,0.6-0.5,1-0.7c0.4-0.2,0.8-0.3,1.2-0.3c0.3,0,0.7,0,1.2,0.1c0.5,0.1,0.8,0.1,1.1,0.1c0.3,0,0.5-0.1,0.8-0.2h0.6l0.3,3.1
				h-0.5c-0.5-0.9-1-1.7-1.6-2.1c-0.5-0.5-1.2-0.7-1.9-0.7c-0.4,0-0.7,0.1-1,0.3c-0.3,0.2-0.6,0.4-0.8,0.7c-0.2,0.3-0.3,0.6-0.3,1
				c0,0.5,0.2,0.9,0.5,1.2c0.3,0.3,0.9,0.5,1.5,0.6c0.7,0.1,1.3,0.3,1.8,0.4c0.5,0.1,1,0.2,1.3,0.4c0.6,0.3,1,0.7,1.4,1.2
				c0.3,0.5,0.5,1.1,0.5,1.7c0,0.6-0.1,1.2-0.4,1.7c-0.3,0.5-0.7,1-1.2,1.3c-0.5,0.3-1.1,0.5-1.8,0.5c-0.4,0-0.7,0-0.8-0.1
				c-0.2-0.1-0.5-0.2-1-0.3c-0.5-0.2-0.8-0.2-1.1-0.2c-0.4,0-0.7,0.2-1,0.5h-0.4V129.9z M73.6,125c-0.1,0.4-0.1,0.7-0.1,0.9
				c0,0.3,0,0.5,0.1,0.8c0.1,0.3,0.2,0.5,0.4,0.8c0.2,0.2,0.4,0.4,0.6,0.6c0.3,0.2,0.6,0.3,1,0.4c0.4,0.1,0.9,0.2,1.6,0.3
				c0.7,0.1,1.2,0.2,1.4,0.3c0.5,0.2,0.9,0.5,1.1,0.8c0.3,0.4,0.4,0.8,0.4,1.3c0,0.4-0.1,0.8-0.3,1.2c0.4-0.4,0.6-0.9,0.6-1.5
				c0-0.6-0.2-1.1-0.5-1.4c-0.3-0.3-0.7-0.6-1.1-0.8c-0.5-0.2-1.1-0.3-1.9-0.5c-0.8-0.1-1.2-0.2-1.2-0.2c-0.7-0.2-1.3-0.5-1.6-1
				c-0.4-0.5-0.6-1-0.6-1.6c0-0.1,0-0.2,0-0.3C73.6,125.2,73.6,125.1,73.6,125z M73.6,131.3v2c0.1-0.2,0.3-0.3,0.4-0.4
				c0.1-0.1,0.3-0.1,0.6-0.1c-0.2-0.2-0.3-0.3-0.4-0.4c-0.1-0.1-0.2-0.2-0.3-0.4C73.9,131.9,73.8,131.6,73.6,131.3z M79.4,125
				l-0.3-1.5c-0.2,0.1-0.3,0.1-0.5,0.1c-0.2,0-0.4,0-0.6-0.1c0.2,0.1,0.4,0.3,0.5,0.4c0.2,0.2,0.3,0.4,0.5,0.6
				C79.2,124.8,79.3,124.9,79.4,125z"/>
			<path fill="#383433" d="M82.7,123h9.7l0.6,2.5h-0.6c-0.4-0.7-0.8-1.1-1.2-1.4c-0.4-0.3-0.8-0.5-1.2-0.5c-0.4-0.1-0.9-0.1-1.5-0.1
				v8.7c0,0.3,0.1,0.6,0.2,0.8c0.1,0.2,0.3,0.3,0.5,0.4c0.2,0.1,0.6,0.1,1,0.1v0.4h-5.4v-0.4c0.4,0,0.8,0,1-0.1
				c0.2-0.1,0.4-0.2,0.5-0.4c0.1-0.2,0.2-0.5,0.2-0.9v-8.6c-0.6,0-1,0.1-1.4,0.2c-0.4,0.1-0.7,0.2-1,0.4c-0.3,0.2-0.5,0.4-0.7,0.6
				c-0.2,0.2-0.4,0.5-0.8,0.9h-0.5L82.7,123z M84.1,123.4h-1.2l-0.3,1.3c0.3-0.3,0.5-0.6,0.7-0.8C83.4,123.8,83.7,123.6,84.1,123.4z
				 M87.3,131.8v-7.5c0-0.3,0-0.5-0.1-0.7c-0.1-0.1-0.2-0.2-0.4-0.2v8.7c0,0.3,0,0.6-0.1,0.8c-0.1,0.2-0.2,0.4-0.4,0.5h0.2
				c0.4,0,0.6-0.1,0.7-0.4C87.2,132.8,87.3,132.4,87.3,131.8z M92.1,124.6l-0.3-1.2h-1.4c0.4,0.1,0.7,0.3,1,0.5
				C91.5,124.1,91.8,124.3,92.1,124.6z"/>
			<path fill="#383433" d="M97.2,128.4v3.4c0,0.4,0,0.7,0.1,0.9c0.1,0.2,0.2,0.4,0.3,0.5c0.1,0.1,0.3,0.2,0.6,0.2c0.3,0,0.6,0,1.1,0
				c0.6,0,1.1-0.1,1.5-0.3c0.4-0.2,0.9-0.4,1.3-0.8c0.4-0.3,0.8-0.8,1.3-1.3h0.6l-1,2.8h-9.4v-0.4c0.5,0,0.8,0,1-0.1
				c0.2-0.1,0.4-0.2,0.5-0.3c0.1-0.2,0.1-0.4,0.1-0.7v-7.6c0-0.4,0-0.6-0.1-0.8c-0.1-0.2-0.2-0.3-0.5-0.3c-0.2-0.1-0.6-0.1-1.1-0.1
				V123h9l0.9,2.4H103c-0.3-0.4-0.7-0.7-1.1-1c-0.4-0.3-0.9-0.5-1.4-0.7c-0.5-0.2-1.1-0.3-1.7-0.3c-0.5,0-0.8,0-1,0.1
				c-0.2,0.1-0.4,0.2-0.5,0.4c-0.1,0.2-0.1,0.4-0.1,0.7v3.3h1.5c1.3,0,2-0.6,2-1.8h0.5v4h-0.5c-0.1-0.6-0.2-1.1-0.5-1.4
				c-0.3-0.3-0.7-0.4-1.3-0.4H97.2z M95.5,124.7v7.4c0,0.4,0,0.6-0.1,0.8c-0.1,0.2-0.2,0.3-0.4,0.4c0.4,0,0.7-0.1,0.8-0.3
				c0.1-0.2,0.2-0.6,0.2-1v-7.4c0-0.4-0.1-0.7-0.2-0.9c-0.1-0.1-0.4-0.2-0.8-0.2c0.2,0.1,0.3,0.2,0.4,0.4
				C95.5,124.1,95.5,124.4,95.5,124.7z M100.7,128.9v-1.5c-0.2,0.3-0.6,0.6-1.1,0.7c0.3,0.1,0.5,0.2,0.7,0.3
				C100.4,128.6,100.5,128.7,100.7,128.9z M101.9,123.4h-1.4c0.4,0.1,0.7,0.3,1,0.5c0.3,0.2,0.6,0.4,0.9,0.6L101.9,123.4z
				 M102.2,133.4l0.5-1.3c-0.3,0.3-0.6,0.6-0.8,0.7c-0.2,0.2-0.6,0.4-1,0.6H102.2z"/>
			<path fill="#383433" d="M109.9,133.8h-5.3v-0.4c0.5,0,0.9,0,1.1-0.1c0.2-0.1,0.4-0.2,0.5-0.4c0.1-0.2,0.1-0.5,0.1-0.8v-7.1
				c0-0.4,0-0.7-0.1-0.9c-0.1-0.2-0.2-0.3-0.5-0.4c-0.2-0.1-0.6-0.1-1.1-0.1V123h6c0.8,0,1.4,0.1,2,0.4c0.6,0.3,1,0.6,1.3,1
				c0.3,0.4,0.4,0.9,0.4,1.4c0,0.3-0.1,0.7-0.2,1c-0.1,0.3-0.3,0.6-0.6,0.9c-0.3,0.3-0.6,0.5-0.9,0.7c-0.4,0.2-0.8,0.3-1.2,0.4
				c0.4,0.4,0.8,0.8,1.3,1.5l0.8,0.9c0,0,0.1,0.1,0.2,0.2c0.1,0.1,0.1,0.2,0.2,0.3c0.2,0.3,0.5,0.5,0.6,0.7c0.2,0.2,0.3,0.4,0.5,0.5
				c0.2,0.2,0.3,0.3,0.5,0.4c0.2,0.1,0.3,0.2,0.5,0.2v0.4h-1.4c-0.3,0-0.6-0.1-0.9-0.2c-0.3-0.1-0.6-0.3-0.8-0.6
				c-0.3-0.3-0.6-0.6-0.9-1l-1.1-1.4c-0.5-0.6-0.9-1.1-1.1-1.3c-0.2-0.2-0.5-0.4-0.6-0.4h-0.8v3.2c0,0.3,0,0.6,0.1,0.8
				c0.1,0.2,0.3,0.3,0.5,0.4c0.1,0,0.3,0.1,0.5,0.1c0.2,0,0.4,0,0.5,0V133.8z M106.6,124.8v7.5c0,0.5-0.2,0.8-0.5,1
				c0.7,0,1-0.3,1-0.8v-7.7c0-0.4,0-0.7-0.1-0.9c0-0.2-0.1-0.3-0.3-0.4c-0.2-0.1-0.4-0.1-0.7-0.1c0.3,0.1,0.4,0.3,0.5,0.5
				C106.5,124.1,106.6,124.4,106.6,124.8z M108.2,125v3.4h1.2c0.4,0,0.8-0.1,1.2-0.2c0.4-0.1,0.7-0.3,0.9-0.5c0.4-0.4,0.6-1,0.6-1.8
				c0-1-0.3-1.7-1-2.1c-0.2-0.2-0.5-0.3-0.7-0.3c-0.2-0.1-0.6-0.1-1-0.1c-0.4,0-0.7,0.1-0.9,0.2c-0.2,0.1-0.3,0.3-0.4,0.5
				C108.2,124.3,108.2,124.6,108.2,125z M110.2,128.8h-0.6c0.2,0.1,0.4,0.3,0.6,0.6c0.2,0.3,0.5,0.6,0.9,1.1
				c0.4,0.5,0.7,0.9,1.1,1.4c0.3,0.4,0.7,0.8,0.9,1c0.3,0.2,0.5,0.4,0.8,0.4c0.2,0.1,0.5,0.1,0.7,0.1c-0.3-0.2-0.6-0.4-0.9-0.6
				c-0.3-0.3-0.6-0.6-0.9-1c-0.3-0.4-0.7-0.8-1-1.3c-0.4-0.5-0.7-0.9-1.1-1.3c-0.1-0.1-0.1-0.2-0.2-0.2
				C110.4,129,110.3,128.9,110.2,128.8z M110.9,128.4c0.7-0.1,1.2-0.3,1.6-0.8c0.4-0.4,0.5-1,0.5-1.7c0-0.7-0.2-1.3-0.5-1.7
				c-0.3-0.4-0.8-0.7-1.4-0.8c0.5,0.2,0.8,0.5,1,0.9c0.2,0.4,0.3,0.9,0.3,1.6c0,0.7-0.1,1.2-0.4,1.6
				C111.8,127.9,111.4,128.2,110.9,128.4z"/>
		</g>
	</g>
</g>
</svg>
