<?xml version="1.0" encoding="utf-8"?>
<!-- Generator: Adobe Illustrator 17.1.0, SVG Export Plug-In . SVG Version: 6.00 Build 0)  -->
<!DOCTYPE svg PUBLIC "-//W3C//DTD SVG 1.1//EN" "http://www.w3.org/Graphics/SVG/1.1/DTD/svg11.dtd">
<svg version="1.1" id="Layer_1" xmlns="http://www.w3.org/2000/svg" xmlns:xlink="http://www.w3.org/1999/xlink" x="0px" y="0px"
	 viewBox="0 0 150 160" enable-background="new 0 0 150 160" xml:space="preserve">
<g>
	<g>
		<path fill="#383433" d="M143,17.8H91H7.1c-6,0-6,0-6,1v0.3L75,159.8l73.9-140.7v-0.3C148.9,17.8,148.9,17.8,143,17.8z M75,155.3
			L3.9,19.9c6.6,0,30.2,0,30.2,0c1.1,0,97.9,0,112,0L75,155.3z"/>
		<path fill="#383433" d="M56.6,130.6C28.8,123.7,9.4,98.9,9.4,70.3c0-7.7,0.4-15.8,3.3-23c0.2-0.6-0.1-1.2-0.6-1.5
			c-0.6-0.2-1.2,0.1-1.5,0.6c-3,7.6-3.4,15.9-3.4,23.8c0,29.7,20.1,55.4,48.8,62.5c0.1,0,0.2,0,0.3,0c0.5,0,1-0.3,1.1-0.8
			C57.5,131.4,57.2,130.8,56.6,130.6z"/>
		<path fill="#383433" d="M137.8,45.5c-0.6,0.2-0.9,0.9-0.6,1.5c3,7.4,3.4,15.5,3.4,23.3c0,28.4-19.2,53.2-46.6,60.2
			c-0.6,0.2-1,0.8-0.8,1.4c0.1,0.5,0.6,0.8,1.1,0.8c0.1,0,0.2,0,0.3,0c28.4-7.3,48.3-33,48.3-62.4c0-8-0.4-16.4-3.5-24.1
			C139,45.6,138.4,45.3,137.8,45.5z"/>
		<path fill="#383433" d="M34.5,17.1c0.3,0,0.5-0.1,0.7-0.3C46.4,7.5,60.5,2.4,75,2.4c14.2,0,28.1,4.9,39.1,13.8
			c0.5,0.4,1.2,0.3,1.6-0.2c0.4-0.5,0.3-1.2-0.2-1.6C104.1,5.3,89.7,0.2,75,0.2c-15,0-29.7,5.3-41.2,14.9c-0.5,0.4-0.5,1.1-0.1,1.6
			C33.9,16.9,34.2,17.1,34.5,17.1z"/>
	</g>
	<g>
		<g>
			<g>
				<path fill="#383433" d="M121.4,48.5c-1-10.9-4-15.4-6.9-19.3c-0.1-0.1-0.3-0.2-0.4-0.1c-0.2,0.1-0.2,0.3-0.2,0.4
					c2.5,6,4.8,12,5,17.6l-1.4-1.4c-0.2-0.1-1.4-1.4-2.8-2.4c-0.5-2.6-1-4.3-2.9-6.4c-0.1-0.1-0.2-0.1-0.3,0c-0.1,0-0.1,0.1-0.1,0.2
					c0.7,2.2,1.5,4.2,1.5,5.3c-2.6-0.8-4-0.8-5.9-0.8c-0.1,0-0.1,0-0.1,0.1c0,0.1,0,0.1,0.1,0.2c2.3,1.3,6.1,2,6.8,3.9
					c1.1,2.7,1.8,7.3,0.3,9.3c-1.5,2-5,4-8.8,6.4l-4,7.7c0,0.1,0,0.1,0,0.2c1.2-1.5,2.6-2.8,4.3-4.1c3.9-2.9,6.4-4.5,8.9-5.7
					c2.1-1,3.8-3.1,5.6-4.2c1.8-1.2,2.8-1.6,3.2-3.5C123.5,50.8,122.7,49.6,121.4,48.5z M119,51c-0.2,0.4-0.4,0.8-0.8,1
					c-0.2,0.1-0.5,0.1-0.7,0c-0.2-0.1-0.4-0.4-0.4-0.6c-0.1-1.4-0.6-2.5-1.2-3.8l3,2.7C119.1,50.4,119.2,50.7,119,51z"/>
			</g>
			<g>
				<path fill="#383433" d="M36,55c-1.5-2-0.8-6.7,0.3-9.3c0.7-1.9,4.5-2.6,6.8-3.9c0.1,0,0.1-0.1,0.1-0.2c0-0.1-0.1-0.1-0.1-0.1
					c-2,0-3.4,0-5.9,0.8c0-1.1,0.8-3.1,1.5-5.3c0-0.1,0-0.2-0.1-0.2c-0.1-0.1-0.2,0-0.3,0c-1.9,2.1-2.4,3.8-2.9,6.4
					c-1.4,1-2.6,2.3-2.8,2.4l-1.4,1.4c0.2-5.7,2.5-11.6,5-17.6c0-0.2,0-0.3-0.2-0.4c-0.2-0.1-0.3,0-0.4,0.1
					c-2.9,3.9-5.8,8.4-6.9,19.3c-1.3,1.1-2,2.3-1.8,3.3c0.4,1.9,1.4,2.3,3.2,3.5c1.9,1.2,3.6,3.3,5.6,4.2c2.5,1.2,4.9,2.8,8.9,5.7
					c1.4,1,2.5,2.1,3.5,3.2L44.2,61C40.7,58.8,37.4,56.9,36,55z M32.9,51.4c0,0.3-0.2,0.5-0.4,0.6c-0.2,0.1-0.5,0.1-0.7,0
					c-0.4-0.2-0.7-0.6-0.8-1c-0.1-0.3,0-0.6,0.2-0.7l3-2.7C33.6,48.9,33.1,49.9,32.9,51.4z"/>
			</g>
		</g>
		<g>
			<polygon fill="#383433" points="46.4,57.8 75,112.3 103.6,57.8 			"/>
		</g>
	</g>
	<g>
		<path fill="#383433" d="M47.5,32.5H50v9h2.1v-9h2.5v19.4h-2.5v-8H50v8h-2.5V32.5z"/>
		<path fill="#383433" d="M56.8,32.5h2.5v19.4h-2.5V32.5z"/>
		<path fill="#383433" d="M61.6,32.5H67c0.9,0,1.7,0.8,1.7,1.7v7.3c0,0.9-0.8,1.6-1.7,1.6h-2.9v8.8h-2.5v-8.8V32.5z M66.2,35h-2.1
			v5.6h2.1V35z"/>
		<path fill="#383433" d="M72.8,46.1v3.4h2.1v-6.3H72c-1,0-1.7-0.8-1.7-1.6v-7.4c0-1,0.7-1.7,1.7-1.7h3.8c0.9,0,1.7,0.7,1.7,1.6v4.1
			h-2.5V35h-2.1v5.7h2.9c0.9,0,1.7,0.8,1.7,1.7v8c0,0.9-0.8,1.6-1.7,1.6H72c-0.9,0-1.7-0.7-1.7-1.6v-4.2H72.8z"/>
		<path fill="#383433" d="M81,35h-2.2v-2.5h6.9V35h-2.2v16.9H81V35z"/>
		<path fill="#383433" d="M93.6,51.9h-6.4V32.5h6.2V35h-3.7v5.4h2.6v2.5h-2.6v6.6h3.9V51.9z"/>
		<path fill="#383433" d="M100.1,43.7H98v8.2h-2.5V32.5h5.1c0.9,0,1.7,0.8,1.7,1.7v6.8c0,0.7-0.4,1.2-0.9,1.4
			c0.8,0.2,1.2,0.9,1.2,1.6v8h-2.5V43.7z M98,41.2h1.8V35H98V41.2z"/>
	</g>
	<path fill="#FFFFFF" d="M85.8,80.7h-2.5l0,0l-0.3-0.3h1.7c0.2,0,0.4-0.2,0.4-0.4c0-0.2-0.2-0.4-0.4-0.4h-2.4L82,79.3h1.7
		c0.2,0,0.4-0.2,0.4-0.4c0-0.2-0.2-0.4-0.4-0.4h-2.4l-5.4-5.4l7.5-7.5c0.1,0.2,0.2,0.5,0.3,0.7l0.2,0.9c0,0,0.1,0.1,0.1,0.1
		c0,0,0.1,0,0.1-0.1l1.2-4.6c0,0,0-0.1,0-0.1c0,0-0.1,0-0.1,0l-4.4,1.2c-0.1,0-0.1,0.1-0.1,0.2c0,0.1,0.1,0.1,0.1,0.1l0.7,0.2
		c0.3,0.1,0.7,0.2,0.9,0.4L75,72.3l-7.5-7.5c0.3-0.2,0.6-0.3,0.9-0.4l0.9-0.2c0,0,0.1-0.1,0.1-0.1c0,0,0-0.1-0.1-0.1l-4.6-1.2
		c0,0-0.1,0-0.1,0c0,0,0,0.1,0,0.1l1.2,4.4c0,0.1,0.1,0.1,0.2,0.1c0.1,0,0.1-0.1,0.1-0.1l0.2-0.7c0.1-0.3,0.2-0.5,0.3-0.8l7.5,7.5
		l-5.4,5.4h-2.4c-0.2,0-0.4,0.2-0.4,0.4c0,0.2,0.2,0.4,0.4,0.4H68l-0.3,0.3h-2.4c-0.2,0-0.4,0.2-0.4,0.4c0,0.2,0.2,0.4,0.4,0.4h1.7
		l-0.3,0.3h-2.4c-0.2,0-0.4,0.2-0.4,0.4c0,0.2,0.2,0.4,0.4,0.4h2.6V84c0,0.2,0.2,0.4,0.4,0.4c0.2,0,0.4-0.2,0.4-0.4v-2.4l0.3-0.3V83
		c0,0.2,0.2,0.4,0.4,0.4c0.2,0,0.4-0.2,0.4-0.4v-2.4l0.3-0.3v1.7c0,0.2,0.2,0.4,0.4,0.4c0.2,0,0.4-0.2,0.4-0.4v-2.4l5.4-5.4l5.4,5.4
		v2.4c0,0.2,0.2,0.4,0.4,0.4c0.2,0,0.4-0.2,0.4-0.4v-1.7l0.3,0.3V83c0,0.2,0.2,0.4,0.4,0.4c0.2,0,0.4-0.2,0.4-0.4v-1.7l0.3,0.3l0,0
		V84c0,0.2,0.2,0.4,0.4,0.4c0.2,0,0.4-0.2,0.4-0.4v-2.6h2.6c0.2,0,0.4-0.2,0.4-0.4C86.2,80.9,86,80.7,85.8,80.7z"/>
</g>
</svg>
