<?xml version="1.0" encoding="utf-8"?>
<!-- Generator: Adobe Illustrator 17.1.0, SVG Export Plug-In . SVG Version: 6.00 Build 0)  -->
<!DOCTYPE svg PUBLIC "-//W3C//DTD SVG 1.1//EN" "http://www.w3.org/Graphics/SVG/1.1/DTD/svg11.dtd">
<svg version="1.1" id="Layer_1" xmlns="http://www.w3.org/2000/svg" xmlns:xlink="http://www.w3.org/1999/xlink" x="0px" y="0px"
	 viewBox="0 0 160 160" enable-background="new 0 0 160 160" xml:space="preserve">
<g>
	<path fill="#383433" d="M53.2,73.5c-0.9,3.5,0.9,6.6,1.8,9.7c2,5,3.4,7.5,5.3,10.5c0.5,1.5,0.9,3.1,1.3,4.6
		c0.5,1.3,1.2,2.5,1.8,3.7c0.5,2.1,0,4.4-0.2,6.5c-0.3,1.1-0.4,2.3-0.7,3.5l21.5,0c2.1,0,4.4,0,6.8,0c1.8-3.7,2.9-8.9,7.6-10.3
		c1.8-0.4,3.9-0.6,4.7-2.5c0.3-1.3,0-2.7-0.6-3.9c0-0.8-0.5-1.6,0.1-2.3c0.6-0.6,1.1-1.2,0.9-2.1c-0.2-0.5-0.7-0.9-0.5-1.5
		c0.3-0.5,0.9-0.8,0.7-1.4c-0.4-1-1.1-1.9-1.2-3.1c0-0.3,0.3-0.5,0.5-0.6c1.1-0.6,3-1.3,2.9-3l-0.1-0.6l-4.6-5.8
		c-1-1.6-2.7-3.1-2.1-5.2c0.9-1.6,1.7-3.3,1.4-5.4c0.3,0.2,0.3,0.6,0.5,0.8c0.4-1,0.1-2.3,0.1-3.4c0.3,0.1,0.4,0.5,0.8,0.4
		c0.5-5.3-5.3-8.6-9.3-10.6c-6.4-2.8-13.8-4.1-21.2-3.3c-3.1,0.3-5.8,1.6-8.4,3.2c-2.5,1.8-5.1,4.2-6.4,7c0,1-1,1.6-1.4,2.4
		c-1,1.7-1.7,3.5-1.7,5.5c-0.9,1.7-0.8,4.2,0,5.9C53.6,72.8,53.2,73.1,53.2,73.5z M61.7,61.3c-0.1,0.4-0.4,0.4-0.7,0.6
		c-0.1,0-0.2,0.4-0.4,0.2c-0.5-0.2,0-0.7-0.2-1c0.3-0.5,0.8-0.9,1.3-1.1C61.9,60.4,61.6,60.9,61.7,61.3z M72.1,53.7L71.8,54
		c-0.2,0.6,0.1,1.1,0.4,1.5c-0.1,0.4,0.1,0.7-0.2,1c-0.3-0.1-0.5-0.3-0.8-0.3c-0.3-0.1-0.9,0.1-1.2-0.1c0.1-0.1,0.3-0.3,0.3-0.5
		c0-0.2-0.2,0-0.3-0.1c-0.2-0.1-0.2-0.3-0.2-0.4c0.5-0.3,0.3-0.8,0.5-1.2C70.9,54,71.5,53.3,72.1,53.7z M75.9,53.5
		c-0.8,0-0.8,0.9-1.4,1.2c-0.2,0.2-0.5-0.2-0.7,0c0,0.3,0.3,0.3,0.4,0.5c0.5,0.1,0.8,0.7,1.2,1c0,0.2,0.4,0.5,0.1,0.7
		c-1,0.2-2,0-2.6-0.8c0.1-0.8-0.8-1.3-0.7-2.1c0.2-0.3,0.4-0.5,0.8-0.6c0.4-0.3,1-0.2,1.4-0.1c0.6,0.1,1.1-0.5,1.6,0
		C75.9,53.4,75.9,53.5,75.9,53.5z M91.4,59.7c0.1,0.1,0.4,0.1,0.5,0.2c0.5,0.6,0.4,1.6,0.6,2.4l-0.1,0.1c0.1,0.4,0.6,0.4,0.8,0.8
		c0.1,0.6-0.1,1.1-0.4,1.5c-0.2-0.1-0.4,0-0.6-0.1c0.6-0.7,0.3-1.7-0.1-2.4c0.1-0.8-0.2-1.5-0.9-2c-0.2-0.2-0.5,0-0.5-0.4
		c-0.3-0.5-0.9-0.8-1.4-0.8c0-0.3,0-0.6-0.3-0.8c-0.5-0.7-1.3-1-2.1-0.9c0-0.2,0-0.4,0-0.5c-0.2-0.4-0.6-0.6-1-0.7
		c-0.7-0.1-1.6,0-2.2-0.5c-0.2-0.6-0.9-0.9-1.2-1.4c0.7,0,1.2,0.6,1.8,0.8c1.2-0.2,2.1,0.4,3.2,0.5c0.1-0.1,0.1-0.1,0.2-0.2
		c-0.9-0.3-1.8-0.6-2.8-0.6C84,55,83.6,54.1,82.9,54c0.6,0.1,1.4-0.2,1.8,0.1c0.9,0.6,1.9,0.8,2.8,1.2l0.4,0.3
		c0.2,0.2-0.1,0.5,0.2,0.8c0,0.3-0.4,0-0.6,0.2c-0.1,0.1,0,0.2,0.1,0.3c0.6-0.1,1,0.1,1.4,0.5c0.2,0.1,0.1,0.5,0.4,0.5
		c0-0.1,0.2-0.1,0.1-0.2c-0.1-0.2,0-0.3,0.1-0.4c0-0.1,0-0.2-0.1-0.2c-0.5,0.3-0.8-0.4-1.3-0.4c0-0.1,0-0.2,0.1-0.2
		c0.5-0.1,0.9,0.2,1.3,0.4c0.7,0.4,0.8,1.1,0.8,1.7c0.1,0,0.2-0.2,0.2-0.3c0.1,0,0.2,0.1,0.3,0.2C91.2,58.8,91.6,59.2,91.4,59.7z
		 M92.8,61.3c-0.1-0.4-0.1-0.9-0.3-1.3c-0.1-0.2-0.3-0.5-0.6-0.4c0.2-0.5-0.3-0.8-0.3-1.3C92.4,59.1,93,60.1,92.8,61.3z M94.9,67.1
		l-0.3-0.2l-0.1-0.4c-0.1-0.3-0.4-0.5-0.7-0.6c-0.1-0.3-0.4-0.6-0.6-0.8c0.4-0.6,0.6-1.2,0.5-2l-0.7-0.7c0.4-0.3,0.2-0.7,0.2-1.1
		c0.7,0.7,0.9,1.7,1.1,2.7C94.7,65,95.1,66,94.9,67.1z M84.8,71.6c0.1-0.2,0.2-0.3,0.3-0.3c0.7-0.1,1.5,0,2.1,0c0.2,0,0.4,0.2,0.6,0
		c0-0.1,0-0.2-0.1-0.3c-1.3,0-2.5-0.3-3.7-0.6c-0.7-0.9,0.3-1.7,0.7-2.5c0.3-0.6,0.8-1.1,1-1.7c0-0.1-0.2-0.1-0.2-0.1
		c-0.9,0.8-1.3,2-2.2,2.9c-0.2,0.1-0.2-0.1-0.4-0.2c0-0.7-0.1-1.4,0.5-1.9c0.1-0.9,1-1.4,0.9-2.4c0.1-0.1,0.2-0.2,0.2-0.4
		c0-0.3,0.3-0.4,0.5-0.4c1-0.2,1.9,0.5,2.5,1.2c0.6,0.6,0,1.6,0.9,2.1c0.1,0.3,0,0.7-0.2,0.9l-1.2,0.2c-0.6,0.6-1.7,0.3-2.2,1
		l0.1,0.1c0.6-0.5,1.6-0.3,2.2-0.8c0.6,0,1.1-0.4,1.7-0.2c1,0.3,0-0.6,0.3-0.9c0.6-0.2,1.2-0.5,1.9-0.4L91,67c0.1-0.1,0-0.2-0.1-0.2
		c-0.8-0.3-1.6,0.7-2.3-0.1c-0.5-0.3,0.1-0.7-0.2-1c0.2-0.4,0-0.8-0.1-1.1c0.3-0.1,0.6-0.2,0.8-0.4c0.1-0.1,0.1-0.3,0.3-0.3
		c0,0.1-0.2,0.3,0,0.4c0.6,0,1.2,0,1.6,0.3c0.2-0.3,0.7-0.2,1-0.4c0.1-0.1,0.1-0.2,0-0.4c-0.2,0-0.4,0.1-0.5,0.3
		c-0.6,0.4-0.9-0.3-1.4-0.4c0-0.3,0.2-0.6,0-0.9c-0.1,0-0.3,0-0.4,0.1c0-0.8-0.8-1.4-1.4-1.9c0.2,0,0.4-0.1,0.5-0.3
		c0-0.1,0-0.2-0.1-0.3c-0.8,0.1-0.6-0.8-1.1-1.1c-0.3-0.1-0.6-0.4-0.9-0.2c-0.1,0.1-0.2,0.1-0.2,0.3c0.3,0.2,0.6,0.3,0.8,0.5
		c0.1,0.4,0.3,0.8,0.1,1.3c-0.6,0.1-1,0.5-1.6,0.8c-0.1,0.1-0.2,0.2,0,0.3c0.4,0,0.7-0.3,1.1-0.5c0.3-0.2,0.7-0.2,1-0.5
		c0.4,0.2,0.9,0.5,1.2,1c0.2,0.7-0.1,1.4-0.5,2c-0.5,0.4-1.1-0.1-1.6-0.2c-0.1-0.2-0.3-0.4-0.5-0.5c-0.6,0-1.3-0.1-1.7-0.6
		c-0.1-0.6-0.5-1-0.5-1.7c0.4-0.6,1.3-0.5,2-0.4c0.4-0.2-0.1-0.5,0-0.8c-0.1-0.1,0.1-0.3,0-0.3c-0.1,0.1-0.2,0-0.2,0.1
		c0,0.8-0.9,0.4-1.3,0.6c-0.7-0.2-0.8-1-1-1.6c-0.1,0-0.3-0.1-0.3,0.1c0.1,0.7,0.4,1.5,0.2,2.2c0.1,0.1,0.4,0.2,0.3,0.5
		c0.9,1.1,0.3,2.5,0,3.6V65c-0.7-0.5-0.6,0.7-1.3,0.6c-0.8,0.1-0.8,1.3-1.6,1.1l-2.7-1.3c-0.2-0.2-0.2-0.4-0.1-0.7
		c0.2-0.4,0.7-0.4,1-0.6c0.6-0.7,0.8-1.5,0.9-2.4c0-0.2,0.3-0.3,0.1-0.5c-0.8,0.3-0.5,1.3-0.9,2c-0.3,0.5-0.9,0.7-1.3,1
		c-0.3,0.3-0.1,0.9-0.5,1c-0.5-0.1-0.4-0.7-0.6-1c0-0.4,0.2-0.8,0.5-1.1c-0.2-1,1-1.1,1.1-2c0.6-1.8-1.1-2.8-2.1-3.9l-0.3-0.6
		c-0.3-0.7-1-1.1-1.3-1.6c0.3-0.3,0.5-0.7,1-0.9c0.5,0,0.9-0.6,1.5-0.5c0.3,0,0.4,0.6,0.7,0.3c0.1-0.2-0.1-0.4-0.3-0.4
		c0.5,0,1,0.2,1.3,0.6c0,0.3-0.5,0.2-0.6,0.5c-0.3,0.5,0.1,0.9,0.2,1.3c0.6,0.6,1.4,1.1,1.5,2c0,0.2-0.3,0.1-0.3,0.3l0.1,0.1
		c0.5,0.1,0.9,0.5,1.2,1c0.1,1.1,0,2.2,0.2,3.3c-0.3,0.5-0.2,1.1-0.5,1.6c-0.2,0.6,0,1.1,0.4,1.6c0.1,0,0.3,0,0.4-0.1l0-1.5
		c0.6-0.3,0.3-1.3,1.1-1.5c0-0.1-0.1-0.1-0.1-0.2c-0.3,0-0.5,0.1-0.7,0.3c0.2-1.1,1.7-0.2,2.2-1.1c-0.1-0.1-0.2-0.1-0.4-0.1
		c-0.5,0.3-1-0.1-1.5,0c-0.6-0.5-0.3-1.5-0.5-2.2l0.2-0.3c0.1-0.2,0.7-0.1,0.3-0.4c-0.3-0.1-0.5,0-0.7,0.2c-0.1-0.2-0.3-0.3-0.4-0.5
		c-0.1-0.5-0.4-1-0.7-1.5c0-0.5,0.3-0.6,0.6-0.9c-0.1-0.2-0.3,0-0.5,0c-0.3,0.1-0.3,0.5-0.6,0.5c-0.5-0.4-1.2-1-1.1-1.7
		c0-0.3,0.4-0.3,0.6-0.4c0.2-0.1,0.5,0,0.6-0.2c0-0.1,0.1-0.2,0-0.2c-0.6,0.1-0.8-0.7-1.3-0.7l0.3,0c0.9,0.2,2,0,2.7,0.5
		c0.2,0.3,0.5,0.5,0.5,0.8c-0.3,0.6,0.6,0.5,0.8,0.9c0.4,0.3,0.4,0.7,0.3,1.2c-0.4,0.6-1.1,0.6-1.8,0.6c-0.1,0-0.1,0.1-0.1,0.2
		c0.1,0.1,0.2,0.1,0.3,0.2c0.4-0.1,0.9,0.1,1.3-0.1c0.5-0.2,0.8-0.7,0.8-1.2c0.7,0.5,1.8,0.2,2.5,0.6c0.4,0.1,0.3,0.6,0.5,0.9
		c0,0.5,0.4-0.2,0.7,0c0.6,0.2,1.1,0.5,1.5,1.1l0.1,1c0,0.1,0.1,0.2,0.3,0.2c0.2-0.1,0.1-0.3,0.1-0.4c0.1,0,0.3,0,0.4,0.1
		c1.1,0.3,0.5,1.6,0.6,2.4c0,0.1,0.1,0.1,0.2,0.1c0.3-0.4,0.2-1,0.3-1.5c0.5,0.2,0.9,0.6,1,1.1c-0.1,1,0.6,1.5,0.5,2.4
		c0,0.6-0.6,0.5-0.9,0.9c0.4,0.4-0.2,0.8-0.1,1.3c0.1,0.2,0.1,0.4,0.4,0.3c0.2-0.1-0.1-0.4,0.1-0.6c0.4,0.3,0.5,0.9,0.7,1.4
		c0.1,0.2-0.1,0.7,0.3,0.7c0.4-0.4,0.3-1,0.2-1.5c-0.2-0.4-0.5-1-1-1c-0.1-0.2-0.1-0.4-0.1-0.5c0.3-0.1,0.8-0.1,1.1,0.2
		c0,0.4,0.5,0.1,0.5,0.5c-0.1,0.4,0.3,0.3,0.5,0.6c0.3,0.3,0.2,0.8,0.1,1.2c-0.6,0.5-0.3,1.4-0.9,1.9c-0.3,0.3-0.8,0-1.2,0
		c-0.7,0-1.2,0.5-1.8,0.6c-1.1,0.4-2.1-0.6-3.2,0c0.1,0.3,0.5,0,0.7,0.1c0.5,0.2,1,0,1.4,0.4c0,0.2,0.2,0.4,0,0.6
		c0,0.1,0.1,0.1,0.2,0.1c0.3-0.1,0.3-0.5,0.2-0.7c0.4-0.1,0.7-0.1,1.1-0.3c0.5-0.1,0.9-0.8,1.5-0.4c0.3,0.1,0,0.6,0.4,0.5
		c0.1-0.1,0.1-0.3,0.1-0.5c0.4,0,0.7-0.3,1.1-0.4c0.4-0.4,0.3-1,0.4-1.4c0.1-0.2,0.4-0.4,0.4-0.6c0.5,0.6,0.8,1.6,0.4,2.4
		c-0.6-0.1,0.1-0.5,0-0.8c-0.1-0.1-0.2-0.1-0.3-0.1c-0.4,0.4-0.5,1-1,1.4c0,0.5-0.6,0.5-0.9,0.9c-0.2,0.3-0.1,0.8-0.6,0.9
		c-0.2,0.2,0.2,0.2,0.2,0.4c-0.2,0.3-0.6,0.3-1,0.4c-0.3,0-0.5-0.3-0.8-0.2c0.1,0.2,0.3,0.5,0.6,0.5c0.7,0.1,1.2-0.2,1.7-0.6
		c0.1-0.8,1.1-0.5,1.4-1.1c-0.3-0.2,0.2-0.4-0.1-0.5c-0.4-0.1-0.4,0.4-0.6,0.6l-0.5,0.1l0-0.2c0-0.4,0.5-0.4,0.7-0.7
		c0-0.4,0.4-0.6,0.6-0.8c0.1,0.5,0.2,1.2-0.1,1.7c-0.3,0.7-1.2,1-1.6,1.7c-0.2,0.1-0.4-0.1-0.6,0.1c-0.6-0.2-1.2,0.4-1.7,0
		c-0.1,0-0.1,0.1-0.2,0.2c0.3,0.2,0.7,0.4,1.1,0.3c0.2-0.1,0.3-0.3,0.5-0.1c-0.1,0.2-0.3,0.2-0.4,0.4c-0.8,0.7-2,0.2-3,0.4
		c-1-0.1-2.1,0-2.9-0.5c-0.1-0.1,0-0.3,0.1-0.4c0.1,0,0.2,0,0.2,0.1c0.8,0.6,2,0.4,2.8,0l0,0.1c0.5,0.4,1.2,1.1,1.9,0.6
		c0-0.1-0.1-0.1-0.1-0.2c-0.4,0.2-0.6-0.1-0.9-0.3c-0.1-0.1-0.1-0.3-0.2-0.4c0-0.5,0.7-0.6,1-1.1c0.3-0.1,0.6,0,0.9-0.1
		c0.3-0.6,0.9,0.1,1.2-0.5c0.1-0.2,0.1-0.3,0-0.5c-0.2-0.1-0.3,0.2-0.4,0.4c-0.2,0-0.3,0-0.5,0c-0.4,0.3-0.8,0.4-1.3,0.5
		c0-0.4,0.2-0.8,0.3-1.1l-0.1-0.1c-0.1-0.1-0.3-0.1-0.4,0.1c-0.4,0.9-0.9,2-2,2.3c-1,0.2-2-0.1-2.9-0.6C84.9,72.4,84.8,72,84.8,71.6
		z M82.3,66.1c0.5-0.3,1-0.6,1.5-0.9c-0.2,0.6-0.6,1.1-0.7,1.7c-0.4,0.3-0.4,0.8-0.6,1.3c-0.4,0.1-0.5-0.4-0.8-0.5
		c-0.2-0.1-0.2-0.4-0.2-0.6L82.3,66.1z M60.1,69.1c0.2,0.6,0.6,1.1,1.1,1.5c0.1,0.1,0.2,0.1,0.3,0c-0.2-0.4-0.6-0.7-0.8-1.1
		c0.2,0.1,0.4,0.2,0.6,0.2c0-0.1,0.1-0.1,0.1-0.2c-0.3-0.2-0.7-0.5-0.8-0.8c0.7,0.2,1.5,0,2.1,0.2c0.4,0.6,1.1,0.4,1.7,0.7
		c-0.5,0.1-0.9-0.2-1.4-0.3l-0.2,0.1c0.1,0.3,0.4,0.3,0.7,0.4c0.8,0.2,1,1.1,1.6,1.6c0.1,0,0.1,0,0.2-0.1c-0.2-0.4-0.5-0.7-0.6-1.1
		c0.6,0.4,1.1,0.9,1.5,1.4c0.6,0.3,0.8,1,1.3,1.4l0.1-0.1c-0.1-0.5-0.6-0.7-0.8-1.1c-0.4-0.2-0.7-0.6-1-1c0.3,0.1,0.6,0.1,0.8,0.3
		c1.1,0.7,1.1,2.1,2.3,2.5l-1.6-0.1c-0.3-0.1-0.6-0.2-0.6-0.6c-0.1-0.2-0.3-0.3-0.5-0.2c-0.1,0.4,0.4,0.3,0.3,0.7
		c-0.5-0.1-1-0.3-1.4-0.7c-0.3-0.1-0.6-0.4-0.9-0.3c0,0.1,0.1,0.1,0.1,0.2c0.7,0.1,1.1,0.9,1.8,1c0.1,0,0.1,0,0.2,0
		c-0.1,0-0.1,0-0.2,0c-0.3,0-0.7,0-1,0.1c0.1,0.3,0.5,0.2,0.7,0.3c1.3-0.4,2.4,0.3,3.7,0c0.2,0,0.4-0.2,0.6,0c0.1,0.1,0,0.3-0.1,0.4
		c-0.6,0.4-1.3,0.6-2,0.9c0,0.1,0,0.1,0.1,0.1c0.7-0.1,1.3-0.4,1.9-0.7c0.3-0.3,0.7-0.7,1.1-0.5c-0.4,0.6-1.2,0.7-1.9,1
		c0,0.1,0,0.2,0.1,0.2l1.3-0.4c0.4-0.1,0.7-0.9,1.3-0.5v0.1c-1.5,0.7-3.1,1.3-4.9,0.9c-0.6-0.3-1.3-0.3-1.9-0.5
		c0.8,0.1,1.4-0.3,2-0.7c0-0.1,0-0.2-0.1-0.2c-0.7,0.2-1.2,0.7-2,0.7l0-0.3c-0.3,0-0.6,0-0.8-0.1c-0.1,0-0.3-0.1-0.4-0.2
		c0.3-0.1,0.6,0,0.8-0.2l-0.1-0.1c-0.5,0-1,0-1.4-0.3c0.2,0,0.4,0,0.5,0.1c0.1,0,0.2-0.1,0.1-0.2l-0.4-0.1c-0.8-0.5-1.8-1.2-2.4-2.1
		C60.6,70.6,59.7,70,60.1,69.1z M58.9,65.2c0-1.3,0.5-2.6,1.1-3.7l0,0l0,0c-0.1,0.4,0.1,0.8,0.4,1c0.1,0.9-0.9,1.5-0.5,2.5
		c-0.2,0.3-0.5,0.5-0.5,0.9c0.1,0.2,0.1,0.5,0.4,0.4c0.2-0.1,0-0.4,0-0.6c0.1-0.3,0.2-0.5,0.4-0.7c0-0.4-0.3-1,0.1-1.3l0.2,0.2
		c0.9,0.4,2,0.9,3,0.4c0.1,0,0,0.1,0.1,0.2c0.1,0.2,0.3,0.5,0.6,0.5c0.1,0,0.2-0.1,0.2-0.3C64,64.6,64.2,64,64,63.5
		c-0.3,0.1-0.3,0.5-0.4,0.7c-0.9,0.4-1.8-0.1-2.6-0.4c-0.6-0.2-0.1-0.7-0.2-1.1c0.2-0.6,0.9-0.6,1.3-1.1c0.2,0,0.4,0.3,0.6,0.1
		c0-0.2-0.3-0.4-0.4-0.5c0-0.4-0.1-0.9,0.1-1.3C62.7,59,63,58,64,57.6c0.1,0.4-0.4,0.6-0.3,1.1c0.1,0.1,0.2,0.2,0.3,0.2
		c0.3-0.1,0-0.3,0.1-0.5c0.5-0.6,0.2-1.5,0.9-2c0.5-0.4,1-0.3,1.6-0.2c0.2,0,0.4,0.3,0.7,0.1c0-0.3-0.3-0.5-0.3-0.8
		c0.1-0.2,0.3-0.2,0.5-0.2c0.3-0.1,0.4-0.4,0.5-0.6l1-0.2c0.2,0,0.5-0.1,0.7,0c0.1,0.3-0.1,0.4-0.3,0.6c-0.1,0.3,0,0.5,0.1,0.8
		c0.1,0.4-0.4,0.5-0.6,0.7c-0.5-0.2-1.1-0.1-1.6,0c-0.7,0.4-1.7,0.9-1.7,1.8c-1.1,0.1-1.7,1.3-2.2,2.1c-0.2,0.4-0.8,0.7-0.6,1.3
		c0.6,0.4-0.3,0.7-0.1,1.1c0,0.1,0.1,0.1,0.2,0.1c0.2-0.1,0.1-0.3,0.2-0.4c0.2-0.2,0.3-0.6,0.6-0.4c0.3-0.5-0.6-0.5-0.4-1
		c0.6-0.8,1.1-1.7,1.9-2.3c0.2-0.2,0.5,0,0.7,0.1c0.4-0.1,0-0.6,0.2-0.9c0.4-0.9,1.3-1.3,2.3-1.3c0.6,0,0.8,0.6,1.3,0.7
		c0.3-0.3-0.2-0.4-0.2-0.7c0.1-0.1,0.2-0.2,0.3-0.2c0.5,0.3,1.1-0.1,1.5,0.3c-0.2,0-0.3,0-0.4,0.1c0,0.1,0,0.1,0,0.2
		c0.6,0.2,1.3,0.1,1.8-0.1c1,0.6,2.3,0.6,3.5,0.8c0.8,0.5,1.5,1.3,1.9,2.1c0.1,0.8-0.3,1.5-0.9,2c-0.4,0.2-0.3,0.7-0.4,1.1
		c-0.2,0.1-0.3,0.3-0.4,0.5c-0.1,0.1,0,0.5-0.2,0.5c-0.3,0-0.4-0.3-0.5-0.4c-1.1-0.6-1-1.8-1.5-2.7c-0.1-0.1-0.1,0.1-0.2,0.1
		c-0.1,0.3,0,0.5,0.1,0.7c0.1,0.6,0.6,1.2,0.3,1.7c0.5,0.2,1,0.3,1.2,0.9c0.5,0.8-0.7,0.9-0.7,1.7c0.3,0.3,0.4-0.4,0.7-0.5
		c1.1-0.2,2,0.4,3,0.8c2,0.7,3.5,2.5,4.8,4.2c0.7,1.3,1.3,2.7,1.3,4.2c0,1-0.8,1.6-1.6,2c-2.6,0.7-5.9,0.9-7.9-1.1
		c0.3,0,0.5-0.3,0.8-0.2c0.7,0.8,2,0.7,2.9,0.4l0.4,0.3c0.5,0.2,0.9-0.2,1.3-0.3c0.2,0.1,0.6,0.2,0.5,0.5c0,0.2-0.3,0.3-0.4,0.4
		c0.1,0.1-0.1,0.2,0,0.2c0.3,0,0.5-0.2,0.6-0.5c0.4-0.9,1.4-0.3,2-0.7c0.2-0.1,0.6-0.2,0.5-0.6c0-0.1-0.2-0.3-0.3-0.3
		c-0.2,0.1,0.1,0.2,0,0.4l-0.7,0.2c-0.9,0-1.7,0-2.6-0.1L80,75.4c-0.2,0.1-0.4,0.2-0.6,0.1c-0.3,0-0.3-0.4-0.5-0.3
		c-0.3,0.3-0.8,0.3-1.3,0.4c-0.6,0-1.2-0.2-1.4-0.8c-1.2,0.6-2.7,0.5-3.7-0.4c-0.1-0.2-0.3-0.3-0.5-0.3c-1.2-0.8-2.5-1.3-3.6-2.2
		c0.7,0.3,1.5,0.6,2.3,0.9c0.3,0,0.7,0.1,0.9-0.1c-0.2-0.2-0.5,0-0.8-0.1c-0.9-0.4-1.8-0.6-2.7-1l-1.2-1.1c-0.2-0.3-0.5-0.6-0.9-0.8
		c0-0.3,0.1-0.6-0.2-0.8c-1,0-1.9-0.4-2.5-1.2c0.1-0.1,0.3-0.1,0.4-0.2c0-0.1,0-0.2-0.1-0.2c-0.3-0.1-0.5,0.2-0.6,0.4
		c-0.7,0.3-1.6,0-2.2-0.4C59.6,67.2,59.1,66.1,58.9,65.2z M79.5,55.4c0.1-0.3,0.6-0.3,0.9-0.4c0.6,0.5,1.6,0.2,2.2,0.7
		c0,0.1,0,0.1,0,0.2c-0.1,0-0.3,0.1-0.4-0.1C81.3,55.9,80.5,55.3,79.5,55.4z M85.4,58.5c-0.1-0.6-0.7-0.6-1.1-0.8
		c-0.3-0.1-0.5-0.5-0.5-0.8c0-0.2,0.3-0.2,0.3-0.1c0.2,0.8,1.4,0.6,1.7,1.4c0,0.1,0,0.2-0.1,0.3C85.6,58.6,85.4,58.6,85.4,58.5z
		 M65.4,68.4c0.4,0.6,1,0.5,1.6,0.6c1.3-0.1,2.2,1.1,3.6,0.6c0.8-0.3,1.4,0.6,2.1,0.7c0.3,0,0.6,0,0.7,0.3c0.2,0.3-0.2,0.4-0.3,0.5
		c-0.5,0.1-0.8,0.9-1.4,0.5c-1.1,0.3-1.9-0.5-2.8-0.6c0,0.1-0.2,0.1-0.2,0.2c1,0.3,2,0.9,3.2,0.7c0.1,0.1,0.1,0,0.2,0.1
		c0,0.5,0.1,1.1,0.6,1.5c0,0,0.1-0.1,0.1,0c0-0.5-0.5-0.8-0.3-1.4c0.5,0,0.9,0.6,1.5,0.4c0.1,0.6,0.5,1.3,1.1,1.4
		c0.7,0.1,1.3,0.3,1.6,1c0.7,0.5,1.5,0.1,2.3,0.1c0.1,0,0-0.1,0-0.2c-0.6-0.2-1.4,0.3-2-0.1c-0.5-0.3-0.6-0.9-1.2-1
		c-0.5-0.2-1.2-0.2-1.5-0.9c-0.1-0.1-0.1-0.3-0.1-0.4c1.3-0.3,2.3-1.3,3.7-1.7c0.3,0.3,0.2,0.7,0.5,0.9c0.2,0.9-0.3,1.7-0.9,2.1
		c-0.1,0.1,0,0.2,0.1,0.2c0.2-0.1,0.4-0.1,0.6-0.3c0.2,0.2,0.5,0.4,0.7,0.3c0.1,0,0-0.2,0.1-0.2c-0.1,0.1-0.4,0-0.5-0.1l-0.1-0.1
		c0.1-0.5,0.4-1,0.5-1.5c0.5,0.4,0.9,0.9,1.2,1.5c0,0.4-0.3,0.7-0.2,1c0.3-0.1,0.2-0.5,0.4-0.7c0.3-0.4,0.9-0.3,1.3-0.3
		c0.1,0.1,0.2,0.1,0.2,0.1c0.1-0.1,0-0.2-0.1-0.3c-0.4-0.2-0.9-0.1-1.4-0.2c-0.2-0.4-0.5-0.7-0.7-1.1c1-0.5,0.9-1.8,0.8-2.8
		c0-0.1-0.1,0-0.2,0c-0.3,0.4,0,0.9-0.1,1.3c0,0.4-0.1,0.9-0.5,1c-0.2,0.1-0.6,0.1-0.8,0c-0.6-0.5-0.6-1.3-0.9-1.9
		c0-0.6,0.4-1.1,0.5-1.7c-0.5-0.1-0.3,0.6-0.5,0.9c-0.1,0.1,0,0.3-0.2,0.4c-0.5-0.1-1-0.4-1.2-0.9c-0.1-0.4,0.1-0.7-0.1-1
		c0-0.1,0-0.2-0.1-0.2c-0.1,0-0.2,0.1-0.2,0.1c0,0.2,0,0.3,0.1,0.4c-0.1,0.1-0.3,0-0.4,0.2c-0.8-0.8-2.3-0.2-2.9-1.4
		c-0.1-0.8-1-1.3-1.5-1.9c-0.2-0.6-0.2-1.3-0.7-1.8c0-0.2,0.4-0.1,0.3-0.3c-0.3-0.3-0.2-0.7-0.4-1c-0.3-0.6-0.3-1.3-0.5-1.8
		c-0.6-0.5-1-1.2-1.6-1.6c-0.1-0.1-0.2,0.1-0.2,0.2l0,0.2c0.6,0.4,1.1,0.9,1.6,1.5c0.1,0.8,0.5,1.5,0.7,2.2
		c-0.6,0.7,0.3,1.3,0.4,1.9c-0.2,1.1,1.2,1.3,1.5,2.1c0,0.5,0.3,0.9,0.7,1.2c-0.6,0.9-1.6,1.6-2.6,2c-1,0.3-1.7-0.2-2.5-0.5
		c-0.9-0.2-1.9,0-2.5-0.8C65.3,68,65.3,68.3,65.4,68.4z M71.4,69.2c0.7-0.5,1.5-1,1.8-1.8c0.4,0.2,1,0.2,1.4,0.4
		c0.4,0.5,1.1,0.7,1.6,0.8c0.2,0.7,1.1,0.8,1.4,1.4c0.1,0.2,0.1,0.5,0,0.6c-1.2,0.5-2.3,1.4-3.7,1.6c-0.5,0.2-0.9-0.3-1.3-0.3
		c0.2-0.3,0.6-0.4,0.9-0.6c0.3-0.3,0.2-0.7,0.2-1c0.2-0.2,0.4-0.1,0.6-0.2c0.2-0.3,1-0.1,0.7-0.6c-0.3,0-0.6,0.4-0.9,0.3
		c0-0.1,0.1-0.1,0.1-0.2c0-0.1-0.1-0.2-0.2-0.2c-0.2,0.1-0.2,0.3-0.2,0.4C73,70.2,72.1,69.6,71.4,69.2L71.4,69.2z M67.4,60.6
		c-0.1-0.1-0.5-0.2-0.4-0.5c-0.3-0.4-0.4-0.8-0.6-1.2c0-0.1,0.1-0.2,0.2-0.2c0.1,0.6,0.6,1,1,1.5c0.1,0.5,0.1,0.9,0.2,1.3h-0.1
		C67.4,61.2,67.4,60.9,67.4,60.6z M72.9,60.2c-0.1,0.6-0.1,1.2-0.3,1.7c-0.1,0-0.1,0-0.2,0c-0.1-0.1-0.2-0.3-0.1-0.4
		c0-0.1-0.1-0.1-0.2,0c0-0.1,0-0.2,0.2-0.3c0-0.2,0.3-0.2,0.3-0.5c0.1-0.4-0.2-0.8-0.3-1.2c0.1-0.4,0.4-0.1,0.5,0.1
		c0.3,0.1,0.7,0,1,0c0.4,0.4,1.3-0.1,1.7,0.4c0.2,0.4,0.9,0.3,0.7,0.8c-0.4,0.1-0.7-0.4-1.1-0.6c-0.6,0-1.1-0.1-1.6-0.2
		C73.3,60,73,60,72.9,60.2z M65.5,59.9c0.2,0.6,0.3,1.3,0.7,1.8c1.3,0.4,1.1,1.9,2.3,2.4c0.4,0.6,0.6,1.3,0.9,1.9
		c0.1,0.1,0,0.2-0.1,0.2c-0.5-0.5-0.5-1.2-0.9-1.8c-0.7-0.4-1-1.1-1.4-1.8c-1-0.5-1.5-1.6-1.7-2.7C65.3,59.9,65.4,59.9,65.5,59.9z
		 M73.7,64.7c-0.2,0-0.5,0.6-0.6,0.2c0.1-0.3,0.4-0.4,0.6-0.5c0.2,0,0.6-0.2,0.7,0.1C74.4,64.9,74,64.6,73.7,64.7z M65.8,65.1
		c-0.1-0.1-0.2,0-0.2,0.1c-0.1,0-0.1,0-0.2-0.1c0.1-0.2,0.1-0.5,0.3-0.6c0.4,0.4,0.9,0.4,1.3,0.8c0.2,0.2,0.3,0.4,0.2,0.7l-0.1,0
		C66.8,65.5,66.3,65.3,65.8,65.1z M62.1,65.7c0.5,0,0.9,0.4,1.3,0.5c0.5,0.1,1,0.2,1.4,0.4c0,0.1,0,0.1,0,0.2L64,66.7
		c-0.7-0.1-1.3-0.6-2-0.6c-0.3,0-0.7,0.2-1-0.1l0-0.1C61.4,65.8,61.8,65.7,62.1,65.7z M69,67.9c-0.5,0.1-0.9-0.2-1.3-0.3
		c-0.4,0.2-1.1,0.3-1.5-0.1c0-0.1,0-0.1,0.1-0.2c0.5,0.2,1,0.1,1.5-0.1l0.6,0.3c0.2,0.1,0.6,0,0.8,0.2C69,67.7,69.1,67.8,69,67.9z
		 M61.1,70.8c0.5,0.5,0.9,1.2,1.6,1.5c0,0.1,0,0.1,0,0.2c-0.6-0.2-1.2-0.7-1.5-1.2C61,71.1,60.9,70.8,61.1,70.8z M62.6,71.7
		c-0.2-0.1-0.4-0.1-0.4-0.3c0.4,0.2,1,0,1.3,0.2c0.3,0.1,0.4,0.4,0.4,0.6l-0.1,0C63.6,71.7,63.1,71.7,62.6,71.7z M63.7,72.5
		c-0.3-0.1-0.7-0.3-0.7-0.7l0.1,0C63.3,72.1,63.7,72.2,63.7,72.5z M68.3,74.2c-0.4,0.4-1,0.5-1.5,0.8l-0.2,0c0.4-0.4,1.1-0.6,1.6-1
		L68.3,74.2z M69.1,74.3C68.6,75,67.7,75,67,75.3v-0.1c0.5-0.2,1.1-0.4,1.6-0.6C68.8,74.5,69,73.9,69.1,74.3z"/>
	<g>
		<path fill="#383433" d="M158,94.6l1.3-12.1l-8.5-4.3l-1.1-10.8l7.5-6l-3.7-11.5l-9.5-0.5l-5.4-9.4l4.4-8.5l-8.1-9l-8.9,3.5
			l-8.8-6.4l0.5-9.5l-11.1-4.9l-6.7,6.8L88.9,9.6l-3.4-8.9H73.4L70,9.6l-10.7,2.3l-6.7-6.8L41.5,10l0.5,9.5l-8.8,6.4l-8.9-3.5
			l-8.1,9l4.4,8.5l-5.4,9.4l-9.5,0.5L1.9,61.4l7.5,6L8.2,78.2l-8.5,4.3l1.3,12.1l9.2,2.4l3.4,10.4l-6,7.4l6.1,10.5l9.4-1.5l7.3,8.1
			l-2.5,9.2l9.8,7.1l8-5.2l10,4.4l1.5,9.4l11.9,2.5l5.2-8h10.9l5.2,8l11.9-2.5l1.5-9.4l10-4.4l8,5.2l9.8-7.1l-2.5-9.2l7.3-8.1
			l9.4,1.5l6.1-10.5l-6-7.4l3.4-10.4L158,94.6z M79.5,141.7c-34,0-61.7-27.7-61.7-61.7c0-34,27.7-61.7,61.7-61.7
			c34,0,61.7,27.7,61.7,61.7C141.1,114,113.4,141.7,79.5,141.7z"/>
		<path fill="#383433" d="M79.5,21.4c-32.3,0-58.6,26.3-58.6,58.6c0,32.3,26.3,58.6,58.6,58.6c32.3,0,58.6-26.3,58.6-58.6
			C138,47.7,111.7,21.4,79.5,21.4z M79.5,136.7c-31.2,0-56.7-25.4-56.7-56.7c0-31.2,25.4-56.7,56.7-56.7c31.2,0,56.7,25.4,56.7,56.7
			C136.1,111.2,110.7,136.7,79.5,136.7z"/>
	</g>
	<g>
		<path fill="#383433" d="M121.4,101.3c0.5,0.1,1,0.4,1.4,0.6c2.9-6.1,4.5-12.9,4.5-20.1c0-8.7-2.3-16.8-6.4-23.9
			c-0.4,0.4-0.8,0.7-1.3,0.9c3.9,6.8,6.1,14.6,6.1,23C125.7,88.8,124.1,95.4,121.4,101.3z"/>
		<path fill="#383433" d="M37.1,101.3c-0.5,0.1-1,0.4-1.4,0.6c-2.9-6.1-4.5-12.9-4.5-20.1c0-8.7,2.3-16.8,6.4-23.9
			c0.4,0.4,0.8,0.7,1.3,0.9c-3.9,6.8-6.1,14.6-6.1,23C32.8,88.8,34.4,95.4,37.1,101.3z"/>
	</g>
	<g id="text_21_">
		<g>
			<path fill="#383433" d="M40.9,106.1l2.2,3l2.7-2l0.8,1l-6.9,5.2l-0.8-1l3.2-2.4l-2.2-3l-3.2,2.4l-0.8-1l6.9-5.2l0.8,1L40.9,106.1
				z"/>
			<path fill="#383433" d="M49,110.4l-6.1,6l-0.9-0.9l6.1-6L49,110.4z"/>
			<path fill="#383433" d="M48.3,116.7l-2.2,2.7l-1-0.8l5.4-6.7l1.1,0.9c0.6,0.5,1,0.8,1.2,1.1c0.2,0.3,0.4,0.7,0.4,1.1
				c0.1,0.7-0.1,1.3-0.6,1.9c-0.5,0.6-1.1,0.9-1.8,1c-0.7,0-1.4-0.2-2.1-0.8L48.3,116.7z M49.1,115.7l0.4,0.3
				c0.9,0.7,1.7,0.8,2.3,0.1c0.6-0.7,0.4-1.4-0.6-2.2l-0.3-0.3L49.1,115.7z"/>
			<path fill="#383433" d="M58.9,119.2l-1.2,0c0-0.4,0-0.7-0.1-0.9c-0.1-0.2-0.3-0.4-0.5-0.5c-0.3-0.2-0.6-0.2-0.9-0.2
				c-0.3,0.1-0.5,0.2-0.7,0.5c-0.2,0.4-0.1,0.8,0.3,1.3l0.6,0.7c0.5,0.6,0.7,1.2,0.8,1.7c0.1,0.5,0,1-0.3,1.5
				c-0.4,0.7-1,1.1-1.7,1.3c-0.7,0.2-1.4,0.1-2.1-0.3c-0.6-0.4-1.1-0.9-1.3-1.5c-0.2-0.6-0.1-1.3,0.2-2.1l1.3,0.4
				c-0.2,0.5-0.3,0.8-0.3,1.1c0,0.5,0.3,0.8,0.7,1.1c0.3,0.2,0.7,0.3,1.1,0.2c0.4-0.1,0.7-0.3,0.9-0.7c0.1-0.1,0.1-0.3,0.2-0.4
				c0-0.1,0-0.3,0-0.4c0-0.1-0.1-0.3-0.2-0.5c-0.1-0.2-0.2-0.3-0.3-0.5l-0.5-0.7c-0.8-1-0.9-1.9-0.4-2.8c0.3-0.6,0.8-0.9,1.5-1
				c0.6-0.1,1.3,0,1.9,0.4C58.5,117.3,58.9,118.1,58.9,119.2z"/>
			<path fill="#383433" d="M63,120.9l-2.8,6.8l-1.2-0.5l2.8-6.8l-1.8-0.8l0.5-1.1l4.8,2l-0.5,1.1L63,120.9z"/>
			<path fill="#383433" d="M70.7,123.2l-3.3-0.9l-0.5,2l3.2,0.8l-0.3,1.2l-3.2-0.8l-0.7,2.8l3.3,0.9l-0.3,1.2l-4.6-1.2l2.2-8.3
				l4.6,1.2L70.7,123.2z"/>
			<path fill="#383433" d="M75,127.5l2.3,3.9l-1.6-0.2l-2.1-3.8l-0.2,0L73,131l-1.3-0.1l0.9-8.5l1.5,0.2c1.1,0.1,1.9,0.4,2.4,0.9
				c0.5,0.5,0.7,1.2,0.6,2c-0.1,0.6-0.3,1.1-0.7,1.5C76.1,127.3,75.6,127.5,75,127.5z M73.5,126.4l0.4,0c1.2,0.1,1.9-0.3,2-1.2
				c0.1-0.9-0.5-1.4-1.6-1.5l-0.5,0L73.5,126.4z"/>
			<path fill="#383433" d="M84.2,131.3l-1.2-8.5l1.3-0.2c0.6-0.1,1-0.1,1.4-0.1c0.4,0,0.7,0.2,0.9,0.3c0.3,0.2,0.5,0.4,0.7,0.7
				c0.2,0.3,0.3,0.6,0.4,1c0.1,0.6-0.1,1.2-0.5,1.6c0.5,0.1,0.9,0.3,1.2,0.7c0.3,0.3,0.5,0.8,0.6,1.3c0.1,0.7-0.1,1.3-0.5,1.8
				c-0.2,0.3-0.5,0.6-0.9,0.7c-0.4,0.2-0.8,0.3-1.4,0.4L84.2,131.3z M84.9,126.2l0.4-0.1c0.5-0.1,0.8-0.2,1-0.5
				c0.2-0.2,0.3-0.6,0.2-1c-0.1-0.4-0.2-0.7-0.5-0.9c-0.3-0.2-0.6-0.2-1-0.2l-0.5,0.1L84.9,126.2z M85.4,129.9l0.8-0.1
				c0.6-0.1,1-0.3,1.2-0.5c0.3-0.3,0.4-0.6,0.3-1c-0.1-0.4-0.2-0.7-0.5-0.9c-0.3-0.2-0.8-0.3-1.5-0.2l-0.7,0.1L85.4,129.9z"/>
			<path fill="#383433" d="M93.8,125.6l3.6,2.7l-1.5,0.5l-3.4-2.7l-0.2,0.1l1,3.4l-1.2,0.4l-2.5-8.2l1.5-0.4
				c1.1-0.3,1.9-0.4,2.5-0.1c0.7,0.3,1.1,0.8,1.3,1.6c0.2,0.6,0.2,1.1-0.1,1.7C94.7,124.9,94.4,125.3,93.8,125.6z M92,125.1l0.4-0.1
				c1.2-0.4,1.6-1,1.4-1.9c-0.3-0.8-1-1.1-2.1-0.7l-0.4,0.1L92,125.1z"/>
			<path fill="#383433" d="M103.4,123.2l-3.3,1.6l0.1,2.3l-1.3,0.6l-0.3-10.1l7.8,6.3l-1.3,0.6L103.4,123.2z M102.4,122.4l-2.4-2
				l0.1,3.2L102.4,122.4z"/>
			<path fill="#383433" d="M104.5,114.9l4.8,7.1l-1.1,0.7l-4.8-7.1L104.5,114.9z"/>
			<path fill="#383433" d="M112.1,120.2l-6.2-6.8l9.1,0.6l-4-4.4l1-0.9l6.2,6.7l-9-0.6l4.1,4.4L112.1,120.2z"/>
			<path fill="#383433" d="M116.9,104.1l-0.1,1.2c-0.4,0-0.7,0-0.9,0c-0.2,0.1-0.4,0.2-0.6,0.5c-0.2,0.3-0.3,0.6-0.3,0.9
				c0,0.3,0.1,0.6,0.4,0.7c0.3,0.3,0.8,0.2,1.4-0.1l0.8-0.5c0.6-0.4,1.2-0.6,1.7-0.6c0.5,0,1,0.2,1.5,0.5c0.6,0.5,1,1.1,1.1,1.8
				c0.1,0.7-0.1,1.4-0.6,2c-0.4,0.6-1,1-1.6,1.1c-0.6,0.1-1.3,0-2-0.4l0.6-1.2c0.4,0.3,0.8,0.4,1,0.4c0.5,0,0.8-0.2,1.1-0.6
				c0.2-0.3,0.3-0.7,0.3-1c-0.1-0.4-0.3-0.7-0.6-0.9c-0.1-0.1-0.3-0.2-0.4-0.2c-0.1,0-0.3-0.1-0.4-0.1c-0.2,0-0.3,0-0.5,0.1
				c-0.2,0.1-0.4,0.2-0.6,0.3l-0.8,0.5c-1.1,0.6-2,0.7-2.8,0.1c-0.5-0.4-0.8-0.9-0.9-1.6c-0.1-0.7,0.1-1.3,0.6-1.9
				C114.9,104.3,115.8,104,116.9,104.1z"/>
		</g>
		<g>
			<path fill="#383433" d="M38.8,53.7l2.2-3l-2.8-2l0.8-1.1l7,5.1l-0.8,1.1L42,51.4l-2.2,3l3.3,2.4l-0.8,1.1l-7-5.1l0.8-1.1
				L38.8,53.7z"/>
			<path fill="#383433" d="M42.2,44.2l6.3,6l-0.9,0.9l-6.3-6L42.2,44.2z"/>
			<path fill="#383433" d="M48.8,45.1l2.2,2.7l-1,0.8l-5.5-6.7l1.1-0.9c0.6-0.5,1-0.8,1.4-0.9c0.4-0.2,0.7-0.2,1.1-0.2
				c0.7,0.1,1.3,0.4,1.8,0.9c0.5,0.6,0.7,1.3,0.6,2c-0.1,0.7-0.5,1.3-1.2,1.9L48.8,45.1z M48,44.1l0.4-0.3c0.9-0.8,1.1-1.5,0.5-2.2
				c-0.6-0.7-1.3-0.6-2.3,0.2L46.3,42L48,44.1z"/>
			<path fill="#383433" d="M55.3,35.9l-0.6,1.1c-0.3-0.2-0.6-0.3-0.8-0.3c-0.2,0-0.5,0.1-0.7,0.2c-0.3,0.2-0.5,0.4-0.6,0.7
				c-0.1,0.3-0.1,0.6,0.1,0.8c0.2,0.4,0.7,0.5,1.3,0.4l0.9-0.1c0.8-0.1,1.4-0.1,1.9,0.1c0.5,0.2,0.9,0.5,1.2,1
				c0.4,0.7,0.5,1.4,0.3,2.1c-0.2,0.7-0.6,1.3-1.3,1.7c-0.6,0.4-1.3,0.5-1.9,0.4c-0.6-0.1-1.2-0.5-1.7-1.1l1-0.9
				c0.3,0.4,0.6,0.7,0.8,0.7c0.4,0.2,0.9,0.1,1.3-0.1c0.3-0.2,0.6-0.5,0.7-0.9c0.1-0.4,0-0.7-0.2-1.1c-0.1-0.1-0.2-0.3-0.3-0.4
				c-0.1-0.1-0.2-0.2-0.4-0.2c-0.1-0.1-0.3-0.1-0.5-0.1c-0.2,0-0.4,0-0.6,0l-0.9,0.1c-1.3,0.2-2.2-0.1-2.7-1
				c-0.3-0.6-0.4-1.2-0.2-1.8c0.2-0.6,0.6-1.1,1.2-1.5C53.4,35.3,54.4,35.3,55.3,35.9z"/>
			<path fill="#383433" d="M60.3,33.5l2.9,6.9L62,40.9L59.1,34l-1.8,0.8l-0.5-1.1l4.9-2l0.5,1.1L60.3,33.5z"/>
			<path fill="#383433" d="M68.9,30.8l-3.4,0.9l0.5,2l3.3-0.9l0.3,1.2l-3.3,0.9l0.7,2.8l3.4-0.9l0.3,1.2l-4.6,1.2L64,30.9l4.6-1.2
				L68.9,30.8z"/>
			<path fill="#383433" d="M75.1,33.7l3.1,3.4l-1.6,0.2L73.7,34l-0.2,0l0.4,3.5l-1.3,0.1l-0.9-8.6l1.5-0.2c1.1-0.1,2,0,2.5,0.4
				c0.6,0.4,1,1,1,1.8c0.1,0.6-0.1,1.2-0.4,1.6C76.1,33.2,75.7,33.6,75.1,33.7z M73.4,32.9l0.4,0c1.2-0.1,1.8-0.7,1.7-1.6
				c-0.1-0.9-0.7-1.3-1.9-1.1l-0.5,0L73.4,32.9z"/>
			<path fill="#383433" d="M83.3,37.3l1.2-8.6l1.3,0.2c0.6,0.1,1,0.2,1.4,0.3c0.3,0.1,0.6,0.3,0.8,0.6c0.2,0.3,0.4,0.6,0.5,0.9
				c0.1,0.3,0.1,0.7,0.1,1c-0.1,0.6-0.4,1.1-0.9,1.5c0.4,0.2,0.8,0.5,1,1c0.2,0.4,0.3,0.9,0.2,1.4c-0.1,0.7-0.4,1.2-1,1.6
				c-0.3,0.2-0.7,0.4-1,0.5c-0.4,0.1-0.9,0-1.5,0L83.3,37.3z M84.8,36.3l0.8,0.1c0.6,0.1,1,0,1.3-0.2c0.3-0.2,0.5-0.5,0.6-0.9
				c0.1-0.4,0-0.7-0.3-1c-0.2-0.3-0.7-0.5-1.4-0.6l-0.7-0.1L84.8,36.3z M85.3,32.6l0.4,0.1c0.5,0.1,0.8,0,1.1-0.2
				c0.3-0.2,0.4-0.5,0.5-0.9c0.1-0.4,0-0.7-0.2-1c-0.2-0.2-0.5-0.4-1-0.5l-0.5-0.1L85.3,32.6z"/>
			<path fill="#383433" d="M93.9,35.8l1.5,4.3l-1.5-0.5l-1.3-4.1l-0.2-0.1l-1.1,3.4L90,38.5l2.6-8.3l1.5,0.5
				c1.1,0.3,1.8,0.8,2.2,1.4c0.4,0.6,0.5,1.3,0.2,2.1c-0.2,0.6-0.5,1-1,1.4C95,35.7,94.5,35.9,93.9,35.8z M92.7,34.4l0.4,0.1
				c1.2,0.4,1.9,0.1,2.2-0.8c0.3-0.8-0.2-1.4-1.3-1.8l-0.4-0.1L92.7,34.4z"/>
			<path fill="#383433" d="M102,41.1l-3.3-1.7l-1.8,1.4l-1.3-0.6l8-6.2L103.1,44l-1.3-0.7L102,41.1z M102.1,39.7l0.2-3.2l-2.5,2
				L102.1,39.7z"/>
			<path fill="#383433" d="M110.1,38.5l-5,7.1l-1.1-0.8l5-7.1L110.1,38.5z"/>
			<path fill="#383433" d="M106.9,46.7l6.4-6.7l0,9.1l4.2-4.3l0.9,0.9l-6.4,6.6l0-9.1l-4.2,4.4L106.9,46.7z"/>
			<path fill="#383433" d="M122.4,53.3l-1.1-0.5c0.2-0.4,0.2-0.6,0.2-0.9c0-0.2-0.1-0.5-0.3-0.7c-0.2-0.3-0.5-0.5-0.8-0.6
				c-0.3-0.1-0.6,0-0.8,0.2c-0.3,0.2-0.4,0.7-0.3,1.4l0.2,0.9c0.2,0.7,0.2,1.4,0,1.9c-0.1,0.5-0.5,0.9-0.9,1.3
				c-0.6,0.5-1.3,0.6-2.1,0.5c-0.7-0.1-1.3-0.5-1.8-1.2c-0.4-0.6-0.6-1.2-0.5-1.9c0.1-0.7,0.4-1.3,1-1.8l1,0.9
				c-0.4,0.3-0.6,0.6-0.7,0.9c-0.1,0.4-0.1,0.9,0.2,1.3c0.2,0.3,0.5,0.5,0.9,0.6c0.4,0.1,0.7,0,1.1-0.3c0.1-0.1,0.2-0.2,0.3-0.3
				c0.1-0.1,0.1-0.3,0.2-0.4c0-0.1,0.1-0.3,0-0.5c0-0.2,0-0.4-0.1-0.6l-0.2-0.9c-0.3-1.3,0-2.2,0.8-2.7c0.5-0.4,1.1-0.5,1.8-0.3
				c0.6,0.1,1.2,0.5,1.6,1.1C122.8,51.4,122.9,52.3,122.4,53.3z"/>
		</g>
	</g>
</g>
</svg>
