<?xml version="1.0" encoding="utf-8"?>
<!-- Generator: Adobe Illustrator 17.1.0, SVG Export Plug-In . SVG Version: 6.00 Build 0)  -->
<!DOCTYPE svg PUBLIC "-//W3C//DTD SVG 1.1//EN" "http://www.w3.org/Graphics/SVG/1.1/DTD/svg11.dtd">
<svg version="1.1" id="Layer_1" xmlns="http://www.w3.org/2000/svg" xmlns:xlink="http://www.w3.org/1999/xlink" x="0px" y="0px"
	 viewBox="0 0 145 165" enable-background="new 0 0 145 165" xml:space="preserve">
<g>
	<g>
		<path fill="#383433" d="M140,101.7c0,29.4-58.1,53.8-60.5,54.8c-2.9,1.2-5.2,2.2-6.2,2.6c-0.1,0.1-0.3,0.2-0.3,0.3l-1.3,0
			c0-0.2-0.1-0.3-0.3-0.3c-1-0.4-3.3-1.4-6.2-2.6c-2.5-1-60.5-25.4-60.5-54.8V13.3c0-4.3,3.6-7.8,8-7.8H132c4.4,0,8,3.5,8,7.8V101.7
			z"/>
		<g>
			<path fill="#383433" d="M135.5,0H9.1C3.8,0-0.5,4.2-0.5,9.3v93.6c0,31.8,62.1,57.9,64.7,59c2.9,1.2,5.1,2.1,6.3,2.6v0.1
				c0,0.3,0.2,0.5,0.5,0.5h1.1c0,0,0,0,0,0l1.3,0c0.3,0,0.5-0.2,0.5-0.5v0c1.2-0.5,3.5-1.5,6.3-2.6c2.6-1.1,64.7-27.2,64.7-59V9.3
				C145,4.2,140.7,0,135.5,0z M143.9,102.8c0,31.1-61.4,56.9-64.1,58c-3.1,1.3-5.5,2.3-6.6,2.8c-0.2,0.1-0.3,0.2-0.3,0.4l-1.4,0
				c0-0.2-0.1-0.3-0.3-0.4c-1.1-0.4-3.5-1.5-6.6-2.8c-2.6-1.1-64.1-26.9-64.1-58V9.3C0.6,4.7,4.4,1,9.1,1h126.4
				c4.7,0,8.5,3.7,8.5,8.2V102.8z"/>
		</g>
	</g>
	<path fill="#FFFFFF" d="M39.5,80.8h64.8c3.8,0,6.9-3,6.9-6.7v-46c0-3.7-3.1-6.7-6.9-6.7l-64.8,0c-3.8,0-6.9,3-6.9,6.7v46
		C32.7,77.8,35.7,80.8,39.5,80.8z M37.7,28.2c0-1,0.8-1.8,1.9-1.8h64.8c1,0,1.9,0.8,1.9,1.8v46c0,1-0.8,1.8-1.9,1.8H39.5
		c-1,0-1.9-0.8-1.9-1.8V28.2z M107.6,83.1H37.1c-2.4,0-4.3,1.9-4.3,4.2c0,2.3,1.9,4.2,4.3,4.2h70.4c2.4,0,4.3-1.9,4.3-4.2
		C111.9,85,110,83.1,107.6,83.1z M39.4,89.1c-1.1,0-1.9-0.8-1.9-1.8c0-1,0.8-1.8,1.9-1.8c1,0,1.9,0.8,1.9,1.8
		C41.3,88.3,40.5,89.1,39.4,89.1z M45.5,89.1c-1,0-1.9-0.8-1.9-1.8c0-1,0.8-1.8,1.9-1.8c1,0,1.9,0.8,1.9,1.8
		C47.4,88.3,46.6,89.1,45.5,89.1z"/>
	<g>
		<g>
			<path fill-rule="evenodd" clip-rule="evenodd" fill="#FFFFFF" d="M124.4,107.7c0,0.3-0.2,0.6-0.5,0.6h-32c-0.3,0-0.5-0.3-0.5-0.6
				l0,0c0-0.3,0.2-0.6,0.5-0.6h32C124.2,107,124.4,107.3,124.4,107.7L124.4,107.7z"/>
		</g>
		<g>
			<path fill-rule="evenodd" clip-rule="evenodd" fill="#FFFFFF" d="M20.1,107.7c0,0.3,0.2,0.6,0.5,0.6h32c0.3,0,0.5-0.3,0.5-0.6
				l0,0c0-0.3-0.2-0.6-0.5-0.6h-32C20.3,107,20.1,107.3,20.1,107.7L20.1,107.7z"/>
		</g>
	</g>
	<g id="text_37_">
		<g>
			<path fill="#FFFFFF" d="M66.6,122.1c-0.4-0.6-1.4-0.6-2.2,0.8l-5.1,8.5h-1.5l2.7-4.6h-2.3l-1,1.7c-4.5,7.6-12.4,2.9-9.6-1.8
				c1-1.7,2.6-1.8,2.6-1.8l0.3,1.1c0,0-1.1,0.3-1.7,1.3c-2,3.3,3.8,6.5,7.3,0.5l3.1-5.2c-1.6,0.8-4.3,0.9-5,2
				c-0.8,1.2,0.6,1.8,0.6,1.8l-0.6,1c-1-0.4-2.2-1.6-1.2-3.3c1.3-2.1,4.6-1.4,7.3-3.4l0.8,1.3l-2.5,4.1H61l2.2-3.6
				c1.9-3.2,5.1-1.7,5.1,0.2c0,0.5-0.4,0.9-0.9,0.9c-0.5,0-0.9-0.4-0.9-0.9C66.5,122.4,66.5,122.2,66.6,122.1z M67,128.2
				c0.2,0.1,0.5,0.3,0.6,0.5c-1.3,1.4-2.7,2.7-4,2.7c-1.2,0-1.7-1-1-2.1l3.1-5.2h1.5l-3.3,5.6c-0.4,0.6-0.2,0.8,0.2,0.8
				c0.7,0,1.8-1,2.9-2.2L67,128.2z"/>
			<path fill="#FFFFFF" d="M63.3,134.5l6.1-10.3H71l-0.3,0.5c1.6-1.4,3.9-0.6,2.4,1.8l-1.7,2.8c-0.2,0.3-0.4,0.7-0.6,1.1
				c0.9-0.3,1.9-1.1,2.8-2.1l0.1-0.1c0.2,0.1,0.5,0.3,0.6,0.5c-1.3,1.4-2.7,2.7-4.9,2.7h-0.1c-1.4,0-1.7-1.2-1.7-1.2l0.9-0.4
				c0.3,0.6,0.9,0.4,1.1,0l2.3-3.9c0.4-0.7-0.7-1.5-2.4,0.8l-4.6,7.7H63.3z"/>
			<path fill="#FFFFFF" d="M73,130.3l1-0.5c0,0,0.2,0.5,0.7,0.5c1.5,0,1.1-2.8,1.7-4.3c-0.5,0.7-1.3,1.7-2.2,2.7
				c-0.2-0.1-0.4-0.3-0.6-0.5c1.4-1.6,2.8-3.5,3.4-4.4l1.1,0.6c-0.9,1.9-0.8,4.1-1.3,5.5c0.6-0.4,1.3-1,1.8-1.6l0.1-0.1
				c0.2,0.1,0.5,0.3,0.6,0.5c-1.1,1.3-2.7,2.5-4.3,2.7c0,0,0,0,0,0c-0.1,0-0.3,0-0.4,0C73.3,131.5,73,130.3,73,130.3z"/>
			<path fill="#FFFFFF" d="M80.3,123.5h1.4l1.4-2.4h1.5l-1.4,2.4h1.3l-0.4,0.7h-1.3l-3.3,5.6c-0.4,0.6-0.2,0.8,0.2,0.8
				c0.7,0,1.8-1,2.9-2.2l0.1-0.1c0.2,0.1,0.5,0.3,0.6,0.5c-1.3,1.4-2.7,2.7-4,2.7c-1.2,0-1.7-1-1-2.1l3.1-5.2h-1.4L80.3,123.5z"/>
			<path fill="#FFFFFF" d="M84,128.6l-0.1,0.3c-0.7,1.2-0.1,1.8,0.8,1.8c1.1,0,2.5-1,3.6-2.2l0.1-0.1c0.2,0.1,0.5,0.3,0.6,0.5
				c-1.3,1.4-3,2.7-4.7,2.7c-1.8,0-2.6-1.5-1.7-3l1.6-2.7c0.6-1.1,1.6-1.7,2.9-1.7c1.3,0,2,1,1.2,2.4l-0.2,0.4
				C86.8,128.8,85,129,84,128.6z M84.4,127.8c0.6,0.2,1.6,0.2,2.3-1l0.2-0.4c0.9-1.5-0.6-1.8-1.5-0.3L84.4,127.8z"/>
			<path fill="#FFFFFF" d="M91.7,126.7c0.2-0.3,0.1-0.6-0.1-0.8l-0.2-0.2c-1.2,1.6-1.8,2.4-2.5,3.2c-0.2-0.1-0.4-0.3-0.6-0.5
				c1-1.1,1.9-2.4,2.6-3.3l-0.1-0.2c-0.5-0.7-0.5-1.5,0.4-2.3l0.8,0.8c-0.3,0.3-0.3,0.6-0.1,0.9l0.9,1c0.5,0.6,0.8,1.1,0.2,2
				l-1.5,2.6c-0.4,0.6-0.2,0.8,0.2,0.8c0.7,0,1.8-1,2.9-2.2l0.1-0.1c0.2,0.1,0.5,0.3,0.6,0.5c-1.3,1.4-2.7,2.7-4,2.7
				c-1.2,0-1.7-1-1-2.1L91.7,126.7z"/>
			<path fill="#FFFFFF" d="M62.9,137v1.3c-0.2-0.3-0.4-0.5-0.6-0.6c-0.2-0.1-0.4-0.2-0.6-0.2c-0.4,0-0.7,0.1-0.9,0.4
				c-0.2,0.3-0.4,0.6-0.4,1c0,0.4,0.1,0.7,0.4,1c0.2,0.3,0.5,0.4,0.9,0.4c0.2,0,0.4-0.1,0.6-0.2c0.2-0.1,0.4-0.3,0.6-0.6v1.3
				c-0.4,0.2-0.8,0.3-1.2,0.3c-0.7,0-1.2-0.2-1.7-0.6c-0.4-0.4-0.7-0.9-0.7-1.6c0-0.6,0.2-1.2,0.7-1.6c0.5-0.4,1-0.6,1.7-0.6
				C62.1,136.7,62.5,136.8,62.9,137z"/>
			<path fill="#FFFFFF" d="M63.7,138.8c0-0.6,0.2-1.1,0.7-1.5c0.4-0.4,1-0.6,1.6-0.6c0.6,0,1.2,0.2,1.6,0.6c0.4,0.4,0.7,1,0.7,1.6
				c0,0.6-0.2,1.2-0.7,1.6c-0.4,0.4-1,0.6-1.6,0.6c-0.6,0-1.2-0.2-1.6-0.6C63.9,140,63.7,139.5,63.7,138.8z M64.7,138.9
				c0,0.4,0.1,0.7,0.3,1c0.2,0.2,0.5,0.4,0.9,0.4c0.4,0,0.7-0.1,0.9-0.4c0.2-0.2,0.3-0.6,0.3-1c0-0.4-0.1-0.7-0.3-1
				c-0.2-0.2-0.5-0.4-0.9-0.4c-0.4,0-0.7,0.1-0.9,0.4C64.8,138.1,64.7,138.5,64.7,138.9z"/>
			<path fill="#FFFFFF" d="M72.5,133.7h1v7.3h-1v-0.4c-0.4,0.4-0.8,0.6-1.3,0.6c-0.6,0-1.1-0.2-1.5-0.6c-0.4-0.4-0.6-1-0.6-1.6
				c0-0.6,0.2-1.1,0.6-1.6c0.4-0.4,0.9-0.6,1.4-0.6c0.5,0,1,0.2,1.4,0.6V133.7z M70.1,138.9c0,0.4,0.1,0.7,0.3,1
				c0.2,0.3,0.5,0.4,0.9,0.4c0.4,0,0.7-0.1,0.9-0.4c0.2-0.3,0.3-0.6,0.3-1c0-0.4-0.1-0.7-0.3-1c-0.2-0.2-0.5-0.4-0.9-0.4
				c-0.3,0-0.6,0.1-0.9,0.4C70.2,138.2,70.1,138.5,70.1,138.9z"/>
			<path fill="#FFFFFF" d="M74.6,135c0-0.2,0.1-0.3,0.2-0.4c0.1-0.1,0.3-0.2,0.5-0.2c0.2,0,0.3,0.1,0.5,0.2c0.1,0.1,0.2,0.3,0.2,0.4
				c0,0.2-0.1,0.3-0.2,0.4c-0.1,0.1-0.3,0.2-0.5,0.2c-0.2,0-0.3-0.1-0.5-0.2C74.6,135.4,74.6,135.2,74.6,135z M75.7,136.8v4.2h-1
				v-4.2H75.7z"/>
			<path fill="#FFFFFF" d="M77,136.8h1v0.4c0.3-0.3,0.7-0.5,1.2-0.5c0.5,0,0.9,0.2,1.2,0.5c0.2,0.3,0.4,0.7,0.4,1.3v2.6h-1v-2.3
				c0-0.4-0.1-0.7-0.2-0.9c-0.1-0.2-0.3-0.2-0.6-0.2c-0.3,0-0.6,0.1-0.7,0.3c-0.1,0.2-0.2,0.6-0.2,1.1v2h-1V136.8z"/>
			<path fill="#FFFFFF" d="M86.1,140.9c0,0.2,0,0.4,0,0.5c0,0.1,0,0.3-0.1,0.4c-0.1,0.3-0.2,0.6-0.4,0.8c-0.4,0.4-0.9,0.7-1.6,0.7
				c-0.6,0-1-0.2-1.4-0.5c-0.4-0.3-0.6-0.7-0.7-1.3h1c0,0.2,0.1,0.4,0.2,0.5c0.2,0.3,0.5,0.4,0.9,0.4c0.7,0,1.1-0.4,1.1-1.3v-0.6
				c-0.4,0.4-0.8,0.6-1.4,0.6c-0.6,0-1.1-0.2-1.4-0.6c-0.4-0.4-0.6-0.9-0.6-1.6c0-0.6,0.2-1.1,0.5-1.6c0.4-0.5,0.9-0.7,1.5-0.7
				c0.5,0,1,0.2,1.4,0.6v-0.5h1V140.9z M85.2,138.9c0-0.4-0.1-0.7-0.3-1c-0.2-0.2-0.5-0.4-0.9-0.4c-0.4,0-0.7,0.1-0.9,0.4
				c-0.2,0.2-0.3,0.6-0.3,0.9c0,0.4,0.1,0.7,0.3,0.9c0.2,0.3,0.5,0.4,0.9,0.4c0.4,0,0.7-0.1,0.9-0.4
				C85.1,139.6,85.2,139.3,85.2,138.9z"/>
		</g>
		<g>
			<path fill="#FFFFFF" d="M53.1,36.8h1.5v10.9h-1.5V36.8z"/>
			<path fill="#FFFFFF" d="M59.4,36.8h1.4l1.5,4.3c0.4,1.2,0.8,2.5,1.2,3.9c-0.1-0.8-0.2-1.6-0.3-2.3c-0.1-0.7-0.1-1.3-0.1-1.9v-4.1
				h1.5v10.9h-1.4l-1.7-4.9c-0.2-0.5-0.3-0.9-0.4-1.4c-0.1-0.5-0.3-1-0.4-1.5c0-0.1,0-0.1,0-0.2c0-0.1,0-0.2-0.1-0.3
				c0,0.1,0,0.2,0,0.3c0,0.1,0,0.2,0,0.2l0.1,1.1l0.1,1.3c0,0.1,0,0.2,0,0.3c0,0.1,0,0.2,0,0.4l0.1,4.7h-1.5V36.8z"/>
			<path fill="#FFFFFF" d="M66.3,36.8h4V38h-2.5v3.4h2.2v1.2h-2.2v3.7h2.5v1.2h-4V36.8z"/>
			<path fill="#FFFFFF" d="M71.7,36.8h4V38h-2.5v3.4h2.2v1.2h-2.2v3.7h2.5v1.2h-4V36.8z"/>
			<path fill="#FFFFFF" d="M77.1,36.8H79c0.6,0,1,0.1,1.4,0.2c0.4,0.1,0.7,0.3,1,0.6c0.4,0.5,0.7,1,0.9,1.8c0.2,0.7,0.3,1.7,0.3,3
				c0,1.2-0.1,2.2-0.3,2.9c-0.2,0.7-0.5,1.3-1,1.7c-0.5,0.5-1.5,0.7-2.9,0.7h-1.2V36.8z M78.6,46.4c0.9,0,1.5-0.3,1.8-0.8
				C80.8,45,81,44,81,42.4c0-1.7-0.2-2.8-0.5-3.5c-0.3-0.6-0.9-0.9-1.7-0.9h-0.2V46.4z"/>
			<path fill="#FFFFFF" d="M88.7,36.8h1.2l2.4,10.9h-1.5l-0.4-2.1h-2.2l-0.4,2.1h-1.5L88.7,36.8z M90.2,44.4l-0.3-1.7
				c-0.2-1.2-0.4-2.4-0.5-3.8c-0.1,0.7-0.2,1.3-0.3,2c-0.1,0.7-0.2,1.4-0.4,2.1l-0.3,1.4H90.2z"/>
			<path fill="#FFFFFF" d="M62.6,53.8v1.3l-4.4,2l4.4,2v1.3l-5.8-2.8v-1.1L62.6,53.8z"/>
			<path fill="#FFFFFF" d="M65.5,51v4.7c0.5-0.5,1.1-0.8,1.8-0.8c0.8,0,1.4,0.3,1.9,0.8c0.5,0.5,0.8,1.2,0.8,2.1
				c0,0.8-0.3,1.5-0.8,2.1c-0.5,0.5-1.1,0.8-1.9,0.8c-0.7,0-1.2-0.2-1.8-0.7v0.6h-1.3V51H65.5z M68.6,57.8c0-0.5-0.1-1-0.4-1.3
				c-0.3-0.3-0.7-0.5-1.1-0.5c-0.5,0-0.9,0.2-1.2,0.5c-0.3,0.3-0.4,0.7-0.4,1.3c0,0.5,0.1,1,0.4,1.3c0.3,0.3,0.7,0.5,1.2,0.5
				c0.5,0,0.8-0.2,1.1-0.5C68.5,58.7,68.6,58.3,68.6,57.8z"/>
			<path fill="#FFFFFF" d="M71.4,55h1.3v0.5c0.2-0.2,0.5-0.4,0.6-0.5c0.2-0.1,0.4-0.1,0.7-0.1c0.3,0,0.7,0.1,1.1,0.3l-0.6,1.2
				c-0.2-0.2-0.5-0.3-0.7-0.3c-0.7,0-1.1,0.5-1.1,1.6v2.8h-1.3V55z"/>
			<path fill="#FFFFFF" d="M80,51.9l1.1,0.5L76,63.9l-1.1-0.5L80,51.9z"/>
			<path fill="#FFFFFF" d="M81.9,60.4v-1.3l4.4-2l-4.4-2v-1.3l5.8,2.8v1.1L81.9,60.4z"/>
		</g>
	</g>
	<path fill="#FFFFFF" d="M77.9,101.5c0,0,0.2-1.2,0.3-1.6c0.8-0.4,2.1-0.7,3.2,0c0.8,0.4,1.2,1.2,1.3,2.1c0.1,1.1-0.4,2.2-1.4,3
		c-1.2,1-3.4,1.9-5.1,2.5c0.3-0.5,0.5-1.1,0.7-1.5c1.3-0.5,2.7-1.1,3.5-1.8c0.7-0.6,1-1.3,1-2c0-0.5-0.3-0.9-0.7-1.2
		C79.5,100.2,77.9,101.5,77.9,101.5z M67.4,108.8h6.9c1.7-1.2,2.2-3.1,2.4-4c0.3-1.1,0.9-4.6,1-5.6c-0.6,0-13.3,0-13.8,0
		c0.2,1,0.8,4.6,1,5.6C65.2,105.6,65.7,107.6,67.4,108.8z M77.3,111.1c2.9-0.5,4.9-1.3,5.9-1.8c-1.7,0-22.5,0-24.3,0
		c1,0.5,3,1.3,5.9,1.8H77.3z M77.2,111.6c-0.8,0-11.5,0-12.3,0c0.3,0.4,0.6,0.9,0.7,1.1c0.3,0,10.6,0,10.9,0
		C76.6,112.5,76.9,112,77.2,111.6z"/>
</g>
</svg>
