<?xml version="1.0" encoding="utf-8"?>
<!-- Generator: Adobe Illustrator 17.1.0, SVG Export Plug-In . SVG Version: 6.00 Build 0)  -->
<!DOCTYPE svg PUBLIC "-//W3C//DTD SVG 1.1//EN" "http://www.w3.org/Graphics/SVG/1.1/DTD/svg11.dtd">
<svg version="1.1" id="Layer_1" xmlns="http://www.w3.org/2000/svg" xmlns:xlink="http://www.w3.org/1999/xlink" x="0px" y="0px"
	 viewBox="0 0 170 160" enable-background="new 0 0 170 160" xml:space="preserve">
<g>
	<path fill="#383433" d="M66.7,78.3l-3,0v4.4c1-0.1,2-0.2,3-0.4V78.3z M62.9,78.2l-3,0v4c0.9,0.2,1.9,0.4,3,0.4V78.2z M59,78.2l-3,0
		v2.5c0.8,0.5,1.9,1,3,1.3V78.2z M55.2,80.2v-2l-1.7,0c-0.5,0-0.6,0.3-0.2,0.6C53.2,78.7,53.9,79.4,55.2,80.2z M74.4,78.4l-3,0V81
		c1.1-0.3,2.1-0.7,3-1V78.4z M73.7,87.7L73.7,87.7c-0.1,0.2-0.3,0.3-0.3,0.5h2.1c1.7-1.9,7.9-8.2,15-7.9c3.3,0.1,5,4.1,4.9,5.4
		l0,0.2c0,0.1,0,0.3,0,0.4c0,0.7-0.1,2-0.7,2.5C94.5,89,94.3,89,94,89c-0.5,0-20.8,0-20.8,0c0,0.1,0,0.1,0.1,0.2
		c0.4,1.1,2.3,1.4,3.4,1.5l0,0h0c0.2,0,14.9-0.1,17.2,0c0.7,0,1.4-0.2,1.9-0.7c1.2-1.1,1.2-3.2,1.2-4.1l0-0.2
		c0.1-1.9-1.9-6.5-5.9-7.1c0,0,0-0.1,0-0.1v-0.2c0-0.5-0.4-0.8-0.8-0.8H89c-0.5,0-0.8,0.4-0.8,0.8v0.2c0,0.1,0,0.1,0,0.1
		C80.2,79.8,73.9,87.3,73.7,87.7z M97.1,66.7l1.4-2.3v2.8h0.8v-4.2l-2.2-3.8c-1.2,0-2.2,1.7-2.2,3.8C94.9,65,95.9,66.7,97.1,66.7z
		 M113,83.6c0-2.3-0.8-4.2-1.9-4.8v9.6C112.3,87.8,113,85.9,113,83.6z M55.6,87.5c0.3,0.4,0.9,0.6,1.4,0.6h14.5c0.5,0,0.9,0,0.9,0
		c0,0,0.1-0.2,0.2-0.4c0.1-0.2,0.5-0.7,0.5-0.7c0,0,0.2-0.3,0.5-0.6l4.1-3.7c0.3-0.3,0.6-1,0.6-1.4v-1.3c0-0.5-0.3-0.7-0.8-0.5
		c0,0-8.8,3.9-14.5,3.9c-5.7,0-9.8-3.9-9.8-3.9c-0.3-0.3-0.6-0.2-0.6,0.3V83c0,0.5,0.2,1.1,0.5,1.5L55.6,87.5z M77.4,78.4l-2.2,0
		v1.3c1.4-0.5,2.2-0.9,2.2-0.9C77.9,78.5,77.9,78.4,77.4,78.4z M93.2,71.4h6.9c0.9,0,1.7-0.8,1.7-1.7c0-0.9-0.8-1.7-1.7-1.7h-6.9
		c-0.9,0-1.7,0.8-1.7,1.7C91.5,70.6,92.3,71.4,93.2,71.4z M70.6,78.3l-3,0v3.8c1-0.2,2-0.5,3-0.8V78.3z M107.1,97.4l5,9.8
		c-0.9,0.7-1.4,1.8-1.4,3c0,2.2,1.8,3.9,3.9,3.9c2.2,0,3.9-1.8,3.9-3.9s-1.8-3.9-3.9-3.9c-0.3,0-0.7,0-1,0.1l-5-9.8
		c1.9-0.8,3.9-1.3,6-1.3c1.1,0,2.3,0.1,3.3,0.4c0.9,0.2,1.8-0.4,2-1.3c0.2-0.9-0.4-1.8-1.3-2c-1.3-0.3-2.7-0.5-4.1-0.5
		c-2.7,0-5.2,0.6-7.6,1.7l-1.7-3.3l0.7-0.4c0.4-0.2,0.6-0.7,0.4-1.1l-0.6-1.3c1.2,0.7,2.8,1.1,4.4,1.1V78.5c-1.4,0-2.6,0.3-3.7,0.8
		l-4.3-8.4c-0.3,0.5-0.7,0.9-1.3,1.2c-3.3,0.3-4.9,2.6-5,2.7c-0.1,0.1-0.1,0.3-0.1,0.5V76c0,0.5,0.4,0.8,0.8,0.8
		c0.5,0,0.8-0.4,0.8-0.8c0,0,0-0.3,0-0.5c0.4-0.5,1.8-1.8,4.2-1.8l3.3,6.5c-0.9,0.7-1.5,1.6-1.8,2.5l-1.2-2.3
		c-0.2-0.4-0.7-0.6-1.1-0.4l-1.5,0.8c-0.3,0.2-0.5,0.5-0.5,0.8V89h-1.7c-0.2,0.6-0.5,1.1-1,1.6c-0.7,0.6-1.5,1-2.5,0.9
		c-1.4,0-7.5,0-16.9,0l-0.3,0l-0.1,0l0,0c-1.5-0.1-3.5-0.6-4.1-2c0-0.1-0.1-0.3-0.1-0.5H55.9l-5.5-7H38.1c-0.5,0-0.8,0.4-0.8,0.8
		c0,0.5,0.4,0.8,0.8,0.8c0,0,10.7,0,11.5,0c0.1,0.1,0.6,0.7,1.2,1.5h-7.3V89h10.3c0.9,1.2,1.8,2.3,2.3,2.9c-0.3,0-0.5,0-0.8,0
		c-5.7,0-10.9,2.6-14.4,7.1c-0.6,0.7-0.4,1.8,0.3,2.4c0.7,0.6,1.8,0.4,2.4-0.3c2.9-3.7,7.1-5.8,11.8-5.8c1.1,0,2.1,0.1,3.1,0.3
		l-2.9,10.6c-0.1,0-0.1,0-0.2,0c-2.2,0-3.9,1.8-3.9,3.9s1.8,3.9,3.9,3.9c2.2,0,3.9-1.8,3.9-3.9c0-1.5-0.9-2.8-2.1-3.5L60,96.1
		c0.8,0.3,1.6,0.6,2.4,1v-4.6l21.8,1.8l0.1,0c0.1,0,0.5,0.1,1.2,0.2h19.8c-2.7,1.6-4.9,4-6.5,6.8c-0.4,0.8-0.2,1.8,0.7,2.3
		c0.8,0.4,1.8,0.2,2.3-0.7C102.9,100.7,104.9,98.7,107.1,97.4z M93.1,96.5L93.1,96.5l-3.3,0c0.7,0.5,1.3,1,1.8,1.7h1.4
		c0.2,0.1,0.5,0.4,0.7,1.5h-0.8v1.7h4.8v-1.7h-2.3C95,96.7,93.3,96.5,93.1,96.5z M42.7,86.1v-0.8h-1.3V89h1.3v-0.8h-0.5v-2.1H42.7z
		 M114.7,97.8c-1.4,0-2.8,0.3-4.1,0.7l2.3,4.6c0.6-0.1,1.1-0.2,1.7-0.2c4,0,7.3,3.3,7.3,7.3s-3.3,7.3-7.3,7.3c-4,0-7.3-3.3-7.3-7.3
		c0-2.2,1-4.2,2.6-5.5l-2.3-4.6c-3.2,2.2-5.3,5.9-5.3,10.1c0,6.8,5.5,12.4,12.4,12.4c6.8,0,12.4-5.5,12.4-12.4
		S121.5,97.8,114.7,97.8z M92.8,103.6h4.8v-1.7h-4.8V103.6z M81.8,110.3c2,0,3.7-1.4,4.1-3.3h-1.8c-0.3,1-1.3,1.6-2.3,1.6
		c-1.1,0-2-0.7-2.3-1.6h-1.8C78.1,108.9,79.8,110.3,81.8,110.3z M92.8,105.9h4.8v-1.7h-4.8V105.9z M87.2,99.6H74.1v1.7h13.2v6.4
		c0,0.2-0.1,0.6-0.3,0.9l-2.2,2.3c-0.2,0.2-0.6,0.3-0.8,0.3H73.2V99.6c-0.9,0-1.7,0.8-1.7,1.7v0.6c-0.4-0.8-0.9-1.7-1.5-2.4h-4.4
		c1.7,1.6,3,3.7,3.8,6c0.3,0.9,1.2,1.4,2.1,1.1c0,0,0,0,0,0v4.6c0,0.9,0.8,1.7,1.7,1.7h10.6c0.7,0,1.6-0.4,2-0.9l2.2-2.3
		c0.5-0.5,0.8-1.3,0.8-2v-6.4C88.9,100.4,88.2,99.6,87.2,99.6z M60.1,98.9l-1.4,5c2.3,1.2,3.8,3.6,3.8,6.4c0,4-3.3,7.3-7.3,7.3
		c-4,0-7.3-3.3-7.3-7.3s3.3-7.3,7.3-7.3c0.1,0,0.2,0,0.3,0l1.4-5c-0.5-0.1-1.1-0.1-1.6-0.1c-6.8,0-12.4,5.5-12.4,12.4
		s5.5,12.4,12.4,12.4c6.8,0,12.4-5.5,12.4-12.4C67.6,105.1,64.5,100.7,60.1,98.9z M81.8,103.7c1.1,0,2,0.7,2.3,1.6h1.8
		c-0.4-1.9-2.1-3.3-4.1-3.3c-2,0-3.7,1.4-4.1,3.3h1.8C79.8,104.4,80.7,103.7,81.8,103.7z M92.8,108.2h1c0,0.4-0.1,0.9-0.4,1.1
		c-0.1,0.1-0.2,0.2-0.5,0.2c-0.2,0-0.3-0.1-0.4-0.2c-0.7-0.7-0.7-3.4-0.7-6.3l0-1.2c0-5.7-7.5-6.7-7.8-6.7l-0.1,0l-20.8-1.8v5.2h10
		v-2.6c0-0.2,0.2-0.4,0.4-0.4c0.2,0,0.4,0.2,0.4,0.4v2.6h0.8v-2.6c0-0.2,0.2-0.4,0.4-0.4c0.2,0,0.4,0.2,0.4,0.4v2.6h0.8v-2.6
		c0-0.2,0.2-0.4,0.4-0.4c0.2,0,0.4,0.2,0.4,0.4v2.6h11c1,0.8,1.7,1.8,1.7,3.3c0,0,0,1.9,0,2.3c0,3.2,0.1,5.3,1.2,6.4
		c0.4,0.4,1,0.6,1.6,0.6c0.7,0,1.3-0.3,1.7-0.8c0.5-0.6,0.7-1.5,0.8-2.2h2v-1.7h-4.8V108.2z"/>
	<g>
		<path fill="#383433" d="M153.2,75.8c-3.3-6.8-6.5-13.2-6-22.4c0.5-9,10.9-23.4,11-23.5l0.3-0.4L127.7-0.4l-0.4,0.3
			c-6.6,4.8-14.5,7.5-22.1,7.5c-4.7,0-9.2-1-13.2-3c-0.7-0.3-1.3-0.7-2-1c-1.7-0.8-3.5-1.7-5.2-2.7l-0.3-0.2l-0.3,0.2
			c-1.7,1.1-3.7,2-5.6,2.9c-0.5,0.3-1,0.5-1.6,0.7c-4,2-8.4,3-13.1,3c-7.7,0-15.5-2.7-22.1-7.5l-0.4-0.3L10.4,29.5l0.3,0.4
			c0.1,0.1,10.2,14.6,11,23.5c0.8,8.8-2.4,15.4-5.9,22.4c-2,4.1-4.1,8.4-5.4,13.1c-4.6,17.2-0.3,35,10.8,45.4
			c9.2,8.9,21.7,10.6,33.9,12.3c3.5,0.5,7.2,1,10.6,1.7c6.1,1.2,11.8,4.6,16.6,9.6c0.2,0.3,0.4,0.5,0.4,0.5c0.1,0.1,0.9,0.8,1.9,0.8
			l0,0c0.6,0,1.1-0.2,1.6-0.7c0,0,0.1-0.1,0.1-0.1c0.1-0.1,0.3-0.3,0.4-0.5c4.7-5,10.5-8.3,16.6-9.6c3.4-0.7,7.1-1.2,10.6-1.7
			c12.2-1.7,24.7-3.4,33.9-12.3c11-10.3,15.2-28.1,10.8-45.4C157.2,84,155.2,79.8,153.2,75.8z M147.4,134
			c-11.7,11.4-29.2,10.9-44.2,13.8c-6.4,1.3-12.2,4.8-16.9,9.8c-0.2,0.2-0.4,0.4-0.5,0.5c-1.3,1.3-2.7-0.1-2.7-0.1
			c-0.1-0.1-0.3-0.3-0.4-0.4c-4.7-5-10.5-8.5-16.9-9.8c-15-2.9-32.5-2.4-44.2-13.8c-12-11.2-14.8-29.4-10.7-44.9
			c3.4-12.7,12.7-21.6,11.3-35.8c-0.9-9.2-11.1-23.8-11.1-23.8L41.4,0.3c10.1,7.4,24.2,10.3,35.8,4.5c2.4-1.2,5-2.3,7.3-3.7
			c2.3,1.4,4.9,2.5,7.3,3.7c11.7,5.8,25.8,2.9,35.9-4.5l30.2,29.2c0,0-10.6,14.6-11.1,23.8c-0.9,14.8,7.6,22.4,11.4,35.8
			C162,104.6,159.3,122.8,147.4,134z"/>
		<path fill="#383433" d="M146.7,53.3c0.5-9.3,11.1-23.8,11.1-23.8L127.6,0.3c-10.1,7.4-24.2,10.3-35.9,4.5
			c-2.3-1.2-4.9-2.3-7.3-3.7c-2.2,1.4-4.9,2.5-7.3,3.7c-11.7,5.8-25.7,2.9-35.8-4.5L11.1,29.5c0,0,10.2,14.6,11.1,23.8
			c1.4,14.2-8,23.1-11.3,35.8c-4.1,15.5-1.3,33.7,10.7,44.9c11.7,11.4,29.2,10.9,44.2,13.8c6.4,1.3,12.2,4.8,16.9,9.8
			c0.1,0.2,0.3,0.4,0.4,0.4c0,0,1.4,1.4,2.7,0.1c0.2-0.2,0.4-0.3,0.5-0.5c4.7-5,10.5-8.5,16.9-9.8c15-2.9,32.5-2.4,44.2-13.8
			c11.9-11.2,14.6-29.4,10.7-44.9C154.3,75.7,145.8,68.1,146.7,53.3z M147.1,133.6c-8.9,8.6-21.3,10.3-33.3,12
			c-3.6,0.5-7.2,1-10.7,1.7c-6.4,1.3-12.3,4.7-17.2,10l-0.1,0.1c-0.1,0.1-0.2,0.2-0.3,0.3c-0.1,0.1-0.1,0.1-0.2,0.2
			c-0.3,0.3-0.5,0.4-0.8,0.4c-0.6,0-1.1-0.5-1.1-0.5c-0.1-0.1-0.2-0.2-0.2-0.3l-0.1-0.1c-4.9-5.2-10.8-8.7-17.2-10
			c-3.5-0.7-7.1-1.2-10.7-1.7c-12-1.6-24.4-3.3-33.3-12C11.1,123.4,7,106,11.4,89.2c1.2-4.7,3.3-8.9,5.3-12.9c3.6-7.2,6.9-14,6-23
			C22,44.8,13.5,32,11.9,29.6L41.4,1c6.7,4.8,14.6,7.4,22.4,7.4c4.9,0,9.5-1,13.6-3.1c0.5-0.2,1-0.5,1.6-0.7
			c1.8-0.9,3.8-1.8,5.5-2.8c1.6,0.9,3.3,1.8,5,2.6c0.7,0.3,1.4,0.7,2,1c4.2,2.1,8.8,3.1,13.7,3.1c7.8,0,15.7-2.6,22.4-7.4l29.5,28.6
			c-1.7,2.4-10.4,15.1-10.9,23.7c-0.5,9.5,2.7,16,6.1,23c2,4,4,8.1,5.4,13C161.8,106.1,157.7,123.5,147.1,133.6z"/>
		<path fill="#383433" d="M140.7,53.6c1.5-8.6,4.8-16.4,9.9-23.4L127.1,7.3c-2.9,1.8-5.9,3.7-9.3,4.6c-9.8,3.5-20.5,3.4-29.3-1.7
			L85,8.2l-3.5,2.1C72.7,15.3,62,15.5,52.2,12c-3.3-0.9-6.3-2.8-9.3-4.6L19.3,30.2c5.2,6.9,8.4,14.8,9.9,23.4
			c1.3,10.6-3.5,19.1-7.9,28c-6.4,12.4-7.6,29-0.2,41.3c3.3,7,11.2,12.3,18.8,14.7c14.7,4.9,33.2,1.3,44.6,13.9
			c0.3,0.3,0.5,0.3,0.8,0c11.4-12.6,29.9-9,44.6-13.9c7.6-2.4,15.5-7.7,18.8-14.7c7.4-12.3,6.2-28.9-0.2-41.3
			C144.2,72.7,139.4,64.1,140.7,53.6z M22.6,30.7l21-19.9c23.3,13.7,41.4,0.8,41.4,0.8c0.1-0.1,18.1,12.9,41.4-0.8l21,19.9
			c-6.8,10-8,13.5-9.5,20.8H32.1C30.5,44.2,29.4,40.7,22.6,30.7z M148.4,116.8c-3.6,9.2-12,15.6-22.4,18l-8,1.3
			c-11.7,2.5-23.8,1.2-33,10c0,0-0.1,0.1-0.2,0c-9.2-8.8-21.2-7.6-33-10l-8-1.3c-10.4-2.4-18.8-8.9-22.4-18
			c-1.7-4.4-4.3-12.5-0.5-26.6c0.9-3.1,3.8-9.9,4.2-10.4c6.7-12.7,6.9-22.9,6.9-25.1h105.6c0,2.2,0.2,12.4,6.9,25.1
			c0.5,0.5,3.3,7.3,4.2,10.4C152.8,104.3,150.1,112.4,148.4,116.8z"/>
	</g>
	<g>
		<g>
			<g>
				<path fill="#383433" d="M55.5,30.5H43.6c-0.3,0-0.5-0.2-0.5-0.5c0-0.3,0.2-0.5,0.5-0.5h11.9c0.3,0,0.5,0.2,0.5,0.5
					C56,30.3,55.8,30.5,55.5,30.5z"/>
			</g>
			<g>
				<path fill="#383433" d="M55.5,33.3h-9.1c-0.3,0-0.5-0.2-0.5-0.5c0-0.3,0.2-0.5,0.5-0.5h9.1c0.3,0,0.5,0.2,0.5,0.5
					C56,33.1,55.8,33.3,55.5,33.3z"/>
			</g>
			<g>
				<path fill="#383433" d="M55.5,27.8h-9.1c-0.3,0-0.5-0.2-0.5-0.5c0-0.3,0.2-0.5,0.5-0.5h9.1c0.3,0,0.5,0.2,0.5,0.5
					C56,27.6,55.8,27.8,55.5,27.8z"/>
			</g>
		</g>
		<g>
			<g>
				<path fill="#383433" d="M113.4,30.5h11.9c0.3,0,0.5-0.2,0.5-0.5c0-0.3-0.2-0.5-0.5-0.5h-11.9c-0.3,0-0.5,0.2-0.5,0.5
					C112.9,30.3,113.1,30.5,113.4,30.5z"/>
			</g>
			<g>
				<path fill="#383433" d="M113.4,33.3h9.1c0.3,0,0.5-0.2,0.5-0.5c0-0.3-0.2-0.5-0.5-0.5h-9.1c-0.3,0-0.5,0.2-0.5,0.5
					C112.9,33.1,113.1,33.3,113.4,33.3z"/>
			</g>
			<g>
				<path fill="#383433" d="M113.4,27.8h9.1c0.3,0,0.5-0.2,0.5-0.5c0-0.3-0.2-0.5-0.5-0.5h-9.1c-0.3,0-0.5,0.2-0.5,0.5
					C112.9,27.6,113.1,27.8,113.4,27.8z"/>
			</g>
		</g>
	</g>
	<g id="text_20_">
		<g>
			<path fill="#383433" d="M73.4,125.5v4.5c0,0.6,0.1,1.1,0.3,1.4c0.3,0.4,0.8,0.6,1.3,0.6c0.6,0,1-0.2,1.3-0.6
				c0.2-0.3,0.3-0.8,0.3-1.4v-4.5h1.1v4.8c0,0.8-0.2,1.4-0.7,2c-0.6,0.6-1.2,0.9-2,0.9s-1.5-0.3-2-0.9c-0.5-0.5-0.7-1.2-0.7-2v-4.8
				H73.4z"/>
			<path fill="#383433" d="M79.5,132.5c0-0.2,0.1-0.3,0.2-0.5c0.1-0.1,0.3-0.2,0.5-0.2c0.2,0,0.3,0.1,0.5,0.2
				c0.1,0.1,0.2,0.3,0.2,0.5c0,0.2-0.1,0.3-0.2,0.5c-0.1,0.1-0.3,0.2-0.5,0.2c-0.2,0-0.4-0.1-0.5-0.2
				C79.6,132.8,79.5,132.7,79.5,132.5z"/>
			<path fill="#383433" d="M86.9,126.6l-0.9,0.5c-0.2-0.3-0.3-0.5-0.5-0.6c-0.2-0.1-0.4-0.2-0.6-0.2c-0.3,0-0.6,0.1-0.8,0.3
				c-0.2,0.2-0.3,0.4-0.3,0.7c0,0.4,0.3,0.7,0.8,0.9l0.8,0.3c0.6,0.2,1.1,0.5,1.3,0.9c0.3,0.4,0.4,0.8,0.4,1.3
				c0,0.7-0.2,1.3-0.7,1.7c-0.5,0.5-1,0.7-1.7,0.7c-0.7,0-1.2-0.2-1.6-0.6c-0.4-0.4-0.7-0.9-0.8-1.6l1.1-0.3
				c0.1,0.4,0.1,0.7,0.3,0.9c0.2,0.3,0.6,0.5,1,0.5c0.4,0,0.6-0.1,0.9-0.4c0.2-0.2,0.4-0.5,0.4-0.9c0-0.1,0-0.3-0.1-0.4
				c0-0.1-0.1-0.2-0.2-0.3c-0.1-0.1-0.2-0.2-0.3-0.3c-0.1-0.1-0.3-0.2-0.5-0.3l-0.7-0.3c-1-0.4-1.5-1.1-1.5-1.9c0-0.6,0.2-1,0.6-1.4
				c0.4-0.4,1-0.6,1.6-0.6C85.7,125.3,86.4,125.8,86.9,126.6z"/>
			<path fill="#383433" d="M88.4,132.5c0-0.2,0.1-0.3,0.2-0.5c0.1-0.1,0.3-0.2,0.5-0.2c0.2,0,0.3,0.1,0.5,0.2
				c0.1,0.1,0.2,0.3,0.2,0.5c0,0.2-0.1,0.3-0.2,0.5c-0.1,0.1-0.3,0.2-0.5,0.2c-0.2,0-0.4-0.1-0.5-0.2
				C88.5,132.8,88.4,132.7,88.4,132.5z"/>
			<path fill="#383433" d="M96,131.2h-3.2l-0.8,1.8h-1.2l3.7-8l3.6,8h-1.2L96,131.2z M95.5,130.1l-1.1-2.6l-1.2,2.6H95.5z"/>
			<path fill="#383433" d="M99.3,132.5c0-0.2,0.1-0.3,0.2-0.5c0.1-0.1,0.3-0.2,0.5-0.2c0.2,0,0.3,0.1,0.5,0.2
				c0.1,0.1,0.2,0.3,0.2,0.5c0,0.2-0.1,0.3-0.2,0.5c-0.1,0.1-0.3,0.2-0.5,0.2c-0.2,0-0.4-0.1-0.5-0.2
				C99.3,132.8,99.3,132.7,99.3,132.5z"/>
		</g>
		<g>
			<path fill="#383433" d="M37.9,47.8l1.6-8.1l2.6,5.8l2.7-5.8l1.4,8.1H45l-0.7-4.5L42,48.1l-2.2-4.9L39,47.8H37.9z"/>
			<path fill="#383433" d="M47.3,44c0-1.1,0.4-2,1.2-2.7c0.8-0.8,1.7-1.1,2.8-1.1c1.1,0,2,0.4,2.8,1.1c0.8,0.8,1.2,1.7,1.2,2.8
				c0,1.1-0.4,2-1.2,2.8c-0.8,0.8-1.7,1.1-2.8,1.1c-1,0-1.8-0.3-2.6-1C47.8,46.2,47.3,45.2,47.3,44z M48.5,44c0,0.8,0.3,1.5,0.8,2
				c0.6,0.5,1.2,0.8,1.9,0.8c0.8,0,1.5-0.3,2-0.8c0.5-0.6,0.8-1.2,0.8-2c0-0.8-0.3-1.5-0.8-2c-0.5-0.5-1.2-0.8-2-0.8
				c-0.8,0-1.4,0.3-2,0.8C48.7,42.6,48.5,43.2,48.5,44z"/>
			<path fill="#383433" d="M58.4,41.3v6.5h-1.1v-6.5h-1.7v-1.1h4.6v1.1H58.4z"/>
			<path fill="#383433" d="M60.6,44c0-1.1,0.4-2,1.2-2.7c0.8-0.8,1.7-1.1,2.8-1.1c1.1,0,2,0.4,2.8,1.1c0.8,0.8,1.2,1.7,1.2,2.8
				c0,1.1-0.4,2-1.2,2.8c-0.8,0.8-1.7,1.1-2.8,1.1c-1,0-1.8-0.3-2.6-1C61,46.2,60.6,45.2,60.6,44z M61.7,44c0,0.8,0.3,1.5,0.8,2
				c0.6,0.5,1.2,0.8,1.9,0.8c0.8,0,1.5-0.3,2-0.8c0.5-0.6,0.8-1.2,0.8-2c0-0.8-0.3-1.5-0.8-2c-0.5-0.5-1.2-0.8-2-0.8
				c-0.8,0-1.4,0.3-2,0.8C62,42.6,61.7,43.2,61.7,44z"/>
			<path fill="#383433" d="M72.4,44.6l2.3,3.2h-1.4l-2.1-3.1H71v3.1h-1.1v-7.5h1.3c1,0,1.7,0.2,2.2,0.6c0.5,0.4,0.7,1,0.7,1.6
				c0,0.5-0.2,1-0.5,1.4C73.3,44.2,72.9,44.5,72.4,44.6z M71,43.7h0.4c1.1,0,1.6-0.4,1.6-1.2c0-0.8-0.5-1.2-1.6-1.2H71V43.7z"/>
			<path fill="#383433" d="M75.8,47.8v-7.5H77c0.5,0,0.9,0,1.2,0.1c0.3,0.1,0.6,0.2,0.8,0.4c0.2,0.2,0.4,0.4,0.5,0.7
				c0.1,0.3,0.2,0.6,0.2,0.9c0,0.5-0.2,1-0.6,1.4c0.4,0.1,0.7,0.4,0.9,0.7c0.2,0.3,0.4,0.7,0.4,1.2c0,0.6-0.2,1.1-0.6,1.5
				c-0.3,0.3-0.5,0.4-0.8,0.5c-0.3,0.1-0.8,0.1-1.3,0.1H75.8z M77,43.5h0.4c0.4,0,0.7-0.1,0.9-0.3c0.2-0.2,0.3-0.5,0.3-0.8
				c0-0.4-0.1-0.6-0.3-0.8c-0.2-0.2-0.5-0.3-0.9-0.3H77V43.5z M77,46.7h0.7c0.5,0,0.9-0.1,1.1-0.3c0.3-0.2,0.4-0.5,0.4-0.8
				c0-0.3-0.1-0.6-0.4-0.8c-0.2-0.2-0.7-0.3-1.3-0.3H77V46.7z"/>
			<path fill="#383433" d="M82.9,40.3v7.5h-1.1v-7.5H82.9z"/>
			<path fill="#383433" d="M85.8,43.3l2.9-3h1.5l-3.4,3.4l3.4,4.1h-1.5l-2.7-3.3l-0.2,0.2v3.1h-1.1v-7.5h1.1V43.3z"/>
			<path fill="#383433" d="M95.4,41.3h-3v1.8h2.9v1.1h-2.9v2.5h3v1.1h-4.1v-7.5h4.1V41.3z"/>
			<path fill="#383433" d="M102.6,44.6l2.3,3.2h-1.4l-2.1-3.1h-0.2v3.1H100v-7.5h1.3c1,0,1.7,0.2,2.2,0.6c0.5,0.4,0.7,1,0.7,1.6
				c0,0.5-0.2,1-0.5,1.4C103.5,44.2,103.1,44.5,102.6,44.6z M101.1,43.7h0.4c1.1,0,1.6-0.4,1.6-1.2c0-0.8-0.5-1.2-1.6-1.2h-0.4V43.7
				z"/>
			<path fill="#383433" d="M105.5,44c0-1.1,0.4-2,1.2-2.7c0.8-0.8,1.7-1.1,2.8-1.1c1.1,0,2,0.4,2.8,1.1c0.8,0.8,1.2,1.7,1.2,2.8
				c0,1.1-0.4,2-1.2,2.8c-0.8,0.8-1.7,1.1-2.8,1.1c-1,0-1.8-0.3-2.6-1C105.9,46.2,105.5,45.2,105.5,44z M106.6,44
				c0,0.8,0.3,1.5,0.8,2c0.6,0.5,1.2,0.8,1.9,0.8c0.8,0,1.5-0.3,2-0.8c0.5-0.6,0.8-1.2,0.8-2c0-0.8-0.3-1.5-0.8-2
				c-0.5-0.5-1.2-0.8-2-0.8c-0.8,0-1.4,0.3-2,0.8C106.9,42.6,106.6,43.2,106.6,44z"/>
			<path fill="#383433" d="M115.9,40.3v4.5c0,0.6,0.1,1.1,0.3,1.4c0.3,0.4,0.8,0.6,1.3,0.6c0.6,0,1-0.2,1.3-0.6
				c0.2-0.3,0.3-0.8,0.3-1.4v-4.5h1.1v4.8c0,0.8-0.2,1.4-0.7,2c-0.6,0.6-1.2,0.9-2,0.9c-0.8,0-1.5-0.3-2-0.9c-0.5-0.5-0.7-1.2-0.7-2
				v-4.8H115.9z"/>
			<path fill="#383433" d="M124.2,41.3v6.5h-1.1v-6.5h-1.7v-1.1h4.6v1.1H124.2z"/>
			<path fill="#383433" d="M131.1,41.3h-3v1.8h2.9v1.1h-2.9v2.5h3v1.1h-4.1v-7.5h4.1V41.3z"/>
		</g>
		<g>
			<path fill="#383433" d="M63.2,21.5h1.9v6.9h1.6v-6.9h1.9v15h-1.9v-6.2h-1.6v6.2h-1.9V21.5z"/>
			<path fill="#383433" d="M70.4,21.5h1.9v15h-1.9V21.5z"/>
			<path fill="#383433" d="M74,21.5h4.2c0.7,0,1.3,0.6,1.3,1.3v5.6c0,0.7-0.6,1.3-1.3,1.3H76v6.8H74v-6.8V21.5z M77.6,23.4H76v4.3
				h1.6V23.4z"/>
			<path fill="#383433" d="M82.8,32v2.6h1.6v-4.9h-2.3c-0.8,0-1.3-0.6-1.3-1.3v-5.7c0-0.8,0.5-1.3,1.3-1.3H85c0.7,0,1.3,0.5,1.3,1.3
				v3.2h-1.9v-2.5h-1.6v4.4H85c0.7,0,1.3,0.6,1.3,1.3v6.2c0,0.7-0.6,1.3-1.3,1.3h-2.9c-0.7,0-1.3-0.6-1.3-1.3V32H82.8z"/>
			<path fill="#383433" d="M89.1,23.4h-1.7v-1.9h5.4v1.9H91v13.1h-1.9V23.4z"/>
			<path fill="#383433" d="M98.8,36.5h-5v-15h4.8v1.9h-2.9v4.1h2v1.9h-2v5.1h3V36.5z"/>
			<path fill="#383433" d="M103.9,30.2h-1.6v6.4h-1.9v-15h4c0.7,0,1.3,0.6,1.3,1.3V28c0,0.5-0.3,0.9-0.7,1.1
				c0.6,0.1,0.9,0.7,0.9,1.3v6.2h-1.9V30.2z M102.3,28.2h1.4v-4.8h-1.4V28.2z"/>
		</g>
	</g>
</g>
</svg>
