<?xml version="1.0" encoding="utf-8"?>
<!-- Generator: Adobe Illustrator 17.1.0, SVG Export Plug-In . SVG Version: 6.00 Build 0)  -->
<!DOCTYPE svg PUBLIC "-//W3C//DTD SVG 1.1//EN" "http://www.w3.org/Graphics/SVG/1.1/DTD/svg11.dtd">
<svg version="1.1" id="Layer_1" xmlns="http://www.w3.org/2000/svg" xmlns:xlink="http://www.w3.org/1999/xlink" x="0px" y="0px"
	 viewBox="0 0 165 165" enable-background="new 0 0 165 165" xml:space="preserve">
<g>
	<path fill="#383433" d="M62.2,18.4L16.1,64.5V31.2c0-7,5.8-12.8,12.8-12.8H62.2z M65.3,18.4L16.1,67.6v32.1l46.7,46.7h36L148,97.2
		V65.1l-46.7-46.7H65.3z M135.2,146.4c7,0,12.8-5.8,12.8-12.8v-33.3l-46.1,46.1H135.2z M16.1,133.6c0,7,5.8,12.8,12.8,12.8h30.8
		l-43.7-43.7V133.6z M148,31.2c0-7-5.8-12.8-12.8-12.8h-30.8L148,62V31.2z M158.1,72.2L148,62v3.1l8.6,8.6c4.1,4.1,4.1,10.8,0,14.9
		l-8.6,8.6v3.1l10.1-10.1C163.1,85.2,163.1,77.1,158.1,72.2z M7.5,91.1c-2-2-3.1-4.6-3.1-7.5c0-2.8,1.1-5.5,3.1-7.5l8.6-8.6v-3.1
		L6,74.6c-2.4,2.4-3.7,5.6-3.7,9c0,3.4,1.3,6.6,3.7,9l10.1,10.1v-3.1L7.5,91.1z M88.3,156.9c-2,2-4.6,3.1-7.5,3.1
		c-2.8,0-5.5-1.1-7.5-3.1l-10.5-10.5h-3.1l12.1,12.1c2.4,2.4,5.6,3.7,9,3.7c3.4,0,6.6-1.3,9-3.7l12.1-12.1h-3.1L88.3,156.9z
		 M75.8,7.8c2-2,4.6-3.1,7.5-3.1c2.8,0,5.5,1.1,7.5,3.1l10.5,10.5h3.1L92.3,6.3c-2.4-2.4-5.6-3.7-9-3.7c-3.4,0-6.6,1.3-9,3.7
		L62.2,18.4h3.1L75.8,7.8z"/>
	<path fill="#FFFFFF" d="M105.3,86.7c0,0-3.1-4.9-3.4-5.3c-0.3-0.4-0.7-0.3-0.7-0.3c0.1-0.2-0.1-0.6-0.1-0.6s-2.9-4.7-3.3-5.4
		c-0.5-0.7-1-0.8-1-0.8s-3.5-0.4-3.6-0.4c-0.1,0,0-0.1,0-0.1s1.1-2.8,1.4-3.4c0.2-0.6,0-1.1,0-1.1S91.4,64,91,63.5
		c-0.3-0.4-1.6-0.2-1.6-0.2s-4.9,1.6-5.5,1.8c-0.6,0.2-0.6,0.5-0.6,0.5s0,0.1,0,0.1c0.3-0.5,0.8-0.5,0.8-0.5s4.4-1.4,5-1.6
		c0.5-0.1,0.3,0.3,0.3,0.3s-1.2,3.2-1.5,3.6c-0.3,0.4-0.7,0.5-0.7,0.5s-4.2,1.3-4.9,1.5c-0.7,0.2-0.4-0.4-0.4-0.4l1.3-3.1
		c0,0-0.1,0-0.1-0.1c-0.3-0.4-1-0.3-1-0.3s-5.3,1.8-5.6,1.9c-0.3,0.1-0.3,0.4-0.3,0.4s0,0,0,0c0.3-0.3,0.6-0.4,0.6-0.4
		s4-1.3,4.5-1.4c0.6-0.2,0.3,0.2,0.3,0.2s-1.4,3.3-1.7,3.6c-0.3,0.4-0.7,0.5-0.7,0.5s-3.8,1.1-4.5,1.3c-0.7,0.2-0.4-0.4-0.4-0.4
		l1.5-3.2c0-0.1,0.1-0.1,0.1-0.1c0,0,0,0,0,0c-0.4-0.3-1-0.2-1-0.2s-4.4,1.4-4.9,1.6c-0.5,0.2-0.8,0.6-0.8,0.6s-2.4,4.1-2.6,4.5
		c-0.2,0.4,0,0.6,0,0.6l0.1,0c0,0,0.1,0,0.1,0.1c0,0,0.1,0,0.1,0s4-1.2,4.6-1.4c0.6-0.2,0.3,0.3,0.3,0.3s-1.9,3.7-2.2,4.1
		c-0.3,0.4-0.7,0.5-0.7,0.5s-3.9,1-4.6,1.2c-0.7,0.2-0.4-0.4-0.4-0.4l2.1-3.6c0.2-0.3,0.5-0.5,0.7-0.6c-0.3,0-0.6,0.4-0.6,0.4
		s-2.7,4.5-2.9,4.9c-0.2,0.4,0.1,0.7,0.1,0.7l0.1,0.1c0.2-0.1,0.4-0.2,0.4-0.2s3.9-1,4.5-1.2c0.6-0.2,0.3,0.3,0.3,0.3
		s-2,3.9-2.3,4.3c-0.3,0.4-0.7,0.5-0.7,0.5s-3.9,1-4.6,1.2c-0.7,0.2-0.4-0.4-0.4-0.4l2.3-4c0.1-0.2,0.2-0.3,0.4-0.4
		c-0.3-0.1-0.5,0.1-0.5,0.1s-2.6,4.5-3,5.1c-0.3,0.5,0,1.1,0,1.1s4.1,5.2,4.3,5.3c0.2,0.2,0.8,0.1,0.8,0.1l2.8-0.6
		c0,0,1.4,1.8,1.6,1.9c0.1,0.1,0.2,0.1,0.3,0c-0.2-0.2-0.4-0.4-0.4-0.4S68,92.7,68,92.7c0-0.1,0.1-0.1,0.1-0.1s1.4-0.3,1.5-0.3
		c0.1,0,0.3,0.1,0.3,0.1s2,2.5,2.3,2.9c0.4,0.5-0.3,0.2-0.3,0.2s-1.7-0.7-2.1-0.9c-0.3,0.2-0.1,0.4-0.1,0.4s3,4,3.3,4.4
		c0.3,0.4,0.7,0.6,0.7,0.6s13.4,6.5,13.7,6.6c0.4,0.2,0.9-0.1,0.9-0.1s5.1-5.6,5.3-5.8c0.2-0.2,0.1-0.9,0.1-0.9
		c0.5,0,0.8-0.1,0.8-0.1s4.6-5.2,4.9-5.5c0.3-0.3,0.2-1,0.2-1c0.6,0,0.9-0.2,0.9-0.2s4.3-5,4.7-5.4
		C105.5,87.2,105.3,86.7,105.3,86.7z M97,75.7c0,0,0.4-0.4,0.7,0c0.2,0.3,3,4.8,3,4.8s0.3,0.5,0,0.8c-0.3,0.3-4,4.7-4,4.7
		s-0.3,0.2-0.5,0c-0.2-0.3-3.4-4.8-3.4-4.8s-0.2-0.4,0.1-0.8C93.1,80,97,75.7,97,75.7z M94.8,87.8c0,0-3.8,4.3-4.2,4.7
		c-0.5,0.5-0.8,0-0.8,0L87,88.7c1-0.7,1.4-2,1.4-2s1.1-3,1.2-3.1c0-0.1,0.1-0.3,0.1-0.3s0.9-0.9,1.2-1.2c0.4-0.4,0.8,0.1,0.8,0.1
		s2.7,4,3.1,4.5C95.1,87.4,94.8,87.8,94.8,87.8z M88.6,94.7c-0.3,0.3-4.6,5-4.6,5s-0.3,0.2-0.5,0c-0.2-0.2-3.7-4.6-3.7-4.6
		s-0.3-0.4,0-0.8c0.3-0.3,4.6-4.9,4.6-4.9s0.4-0.4,0.7,0c0.2,0.3,3.4,4.5,3.4,4.5S88.9,94.4,88.6,94.7z M86.1,75.8
		c0.2,0.2,3.6,5.3,3.6,5.3s0.2,0.5,0.1,1c-0.2,0.5-1.9,4.5-1.9,4.5s-0.2,0.3-0.5-0.1c-0.3-0.4-3.6-5.2-3.6-5.2s-0.2-0.3,0-0.7
		c0.2-0.4,1.9-4.8,1.9-4.8S85.9,75.4,86.1,75.8z M75.9,84.1c0,0-0.3-0.5,0.2-0.6c0.4-0.1,5.7-1.5,5.7-1.5s0.5-0.1,0.7,0.1
		c0.1,0.2,3.5,5.1,3.5,5.1s0.6,0.8-0.1,0.9c-0.5,0.1-5.4,1.2-5.4,1.2s-0.6,0.2-0.8-0.1C79.6,88.9,75.9,84.1,75.9,84.1z M84.6,75.7
		c0,0-1.5,4.3-1.8,4.7c-0.3,0.4-0.7,0.5-0.7,0.5s-5.1,1.3-5.8,1.5c-0.7,0.2-0.4-0.4-0.4-0.4l1.9-4.3c0.3-0.6,0.9-0.7,0.9-0.7
		s5-1.4,5.6-1.6C84.8,75.3,84.6,75.7,84.6,75.7z M78,89.1c0,0,0.5,0.7-0.1,0.8c-0.5,0.1-5.1,1.1-5.1,1.1s-0.5,0.1-0.8-0.1
		c-0.2-0.2-3.9-4.9-3.9-4.9s-0.3-0.4,0.2-0.6c0.4-0.1,5.3-1.2,5.3-1.2s0.5-0.1,0.6,0.1C74.5,84.6,78,89.1,78,89.1z M74.9,93.5
		l3.2,1.3c0,0,0.4,0.2,0.7,0.5c0.2,0.3,3.6,4.5,3.6,4.5s0.4,0.6-0.2,0.3c-0.5-0.2-3.6-1.7-3.6-1.7S78.3,98.3,78,98
		c-0.2-0.3-3.4-4.3-3.4-4.3S74.3,93.2,74.9,93.5z M91.1,63.9c0.2,0.2,3.2,5.2,3.2,5.2s0.2,0.5,0.1,1c-0.2,0.5-1.5,3.6-1.5,3.6
		s-0.2,0.3-0.5-0.1c-0.3-0.4-3.2-5.2-3.2-5.2s-0.2-0.3,0-0.7c0.2-0.4,1.6-3.7,1.6-3.7S90.9,63.6,91.1,63.9z M88.3,69.5
		c0,0,0.2-0.4,0.4,0c0.2,0.2,3.5,5.3,3.5,5.3s0.2,0.5,0.1,1c-0.2,0.5-1.6,4.1-1.6,4.1s-0.2,0.3-0.5-0.1c-0.3-0.4-3.5-5.2-3.5-5.2
		s-0.2-0.3,0-0.7C86.8,73.4,88.3,69.5,88.3,69.5z M80.6,71.6c0.3-0.6,0.9-0.7,0.9-0.7s4.7-1.5,5.3-1.7c0.5-0.1,0.3,0.3,0.3,0.3
		s-1.5,3.8-1.8,4.2c-0.3,0.4-0.7,0.5-0.7,0.5s-4.5,1.3-5.2,1.5c-0.7,0.2-0.4-0.4-0.4-0.4L80.6,71.6z M67.9,73.9
		c-0.7,0.2-0.4-0.3-0.4-0.3l2-3.3c0.3-0.4,0.8-0.6,0.8-0.6s3.9-1.2,4.4-1.4c0.6-0.2,0.3,0.2,0.3,0.2s-1.8,3.3-2.1,3.7
		c-0.3,0.4-0.7,0.5-0.7,0.5S68.6,73.7,67.9,73.9z M71.2,77.7l2-3.8c0.3-0.6,0.9-0.7,0.9-0.7s4.3-1.3,4.8-1.4
		c0.6-0.2,0.3,0.3,0.3,0.3s-1.7,4-2,4.4c-0.3,0.4-0.7,0.5-0.7,0.5s-4.2,1-4.9,1.2C70.9,78.2,71.2,77.7,71.2,77.7z M68,84.1l2-4.2
		c0.3-0.5,0.8-0.7,0.8-0.7s4.6-1.1,5.2-1.3c0.6-0.2,0.3,0.3,0.3,0.3s-1.8,4.1-2.1,4.5c-0.3,0.4-0.7,0.5-0.7,0.5s-4.4,1.1-5.1,1.3
		C67.6,84.7,68,84.1,68,84.1z M65.4,92.8c0,0-0.6,0.1-0.8-0.1c-0.2-0.2-3.9-4.9-3.9-4.9s-0.3-0.4,0.2-0.6c0.4-0.1,4.9-1.3,4.9-1.3
		s0.5-0.1,0.6,0.1c0.1,0.2,3.7,4.8,3.7,4.8s0.5,0.7-0.1,0.8C69.7,91.8,65.4,92.8,65.4,92.8z M70.2,92.2c-0.1-0.1,0.1-0.1,0.1-0.1
		s0.3-0.1,0.6-0.1c0.3-0.1,0.5,0,0.5,0s1.4,0.6,1.7,0.7c0.3,0.1,0.6,0.5,0.6,0.5s3,3.8,3.4,4.3c0.4,0.5-0.1,0.3-0.1,0.3
		s-2.7-1.3-3.2-1.5C73.3,96,73,95.6,73,95.6S70.3,92.3,70.2,92.2z M76.5,101.1c-0.5-0.2-2.6-1.3-2.6-1.3s-0.3-0.1-0.5-0.4
		c-0.2-0.3-2.9-3.8-2.9-3.8s-0.3-0.5,0.3-0.2l2.6,1.3c0,0,0.4,0.2,0.7,0.5c0.2,0.3,2.7,3.6,2.7,3.6S77.1,101.4,76.5,101.1z
		 M81.3,103.5c-0.5-0.2-3.2-1.5-3.2-1.5s-0.3-0.1-0.5-0.4c-0.2-0.3-3-3.9-3-3.9s-0.3-0.5,0.3-0.2l3.2,1.6c0,0,0.4,0.2,0.7,0.5
		c0.2,0.3,2.8,3.6,2.8,3.6S81.9,103.7,81.3,103.5z M86.8,106.1c-0.5-0.2-3.7-1.8-3.7-1.8s-0.3-0.1-0.5-0.4c-0.2-0.3-3-3.8-3-3.8
		s-0.3-0.5,0.3-0.2l3.2,1.3c0,0,0.4,0.2,0.7,0.5c0.2,0.3,3.3,4.1,3.3,4.1S87.4,106.4,86.8,106.1z M93.3,100.6c-0.3,0.3-4.5,5-4.5,5
		s-0.3,0.2-0.5,0c-0.2-0.3-3.5-4.3-3.5-4.3s-0.3-0.4,0-0.8c0.3-0.3,4.5-5,4.5-5s0.4-0.4,0.7,0c0.2,0.3,3.2,4.3,3.2,4.3
		S93.6,100.3,93.3,100.6z M99,94.1c-0.3,0.3-4.2,4.8-4.2,4.8s-0.3,0.2-0.5,0c-0.2-0.2-3.2-4.4-3.2-4.4s-0.3-0.4,0-0.8
		c0.3-0.3,4.2-4.8,4.2-4.8s0.4-0.4,0.7,0c0.2,0.3,3,4.4,3,4.4S99.3,93.8,99,94.1z M104.9,87.6c-0.3,0.3-4.1,4.7-4.1,4.7
		s-0.3,0.2-0.5,0c-0.2-0.3-3.2-4.7-3.2-4.7s-0.2-0.4,0.1-0.8c0.3-0.3,4.2-4.6,4.2-4.6s0.4-0.4,0.7,0c0.2,0.3,2.8,4.6,2.8,4.6
		S105.2,87.3,104.9,87.6z"/>
	<g>
		<path fill="#FFFFFF" d="M95.9,128.6H69.2c-0.6,0-1.1,0.3-1.1,0.6c0,0.4,0.5,0.6,1.1,0.6h26.7c0.6,0,1.1-0.3,1.1-0.6
			C97,128.9,96.5,128.6,95.9,128.6z"/>
		<path fill="#FFFFFF" d="M92.8,132.2H72.3c-0.6,0-1.1,0.3-1.1,0.6c0,0.3,0.5,0.6,1.1,0.6h20.5c0.6,0,1.1-0.3,1.1-0.6
			C93.9,132.4,93.5,132.2,92.8,132.2z"/>
	</g>
	<g id="text_7_">
		<g>
			<path fill="#FFFFFF" d="M115.6,81.6v-0.3h-0.4v-0.5l0.4-0.4h0.9v6.8h-0.9V81.6z"/>
			<path fill="#FFFFFF" d="M121.5,86.7c0,0.3-0.3,0.6-0.6,0.6h-1.3c0,0-0.1,0-0.1,0c-0.3,0-0.5-0.3-0.5-0.6v-1.5h0.9v1.2h0.7v-2.2
				h-1c-0.3,0-0.6-0.3-0.6-0.6V81c0-0.3,0.3-0.5,0.6-0.5h1.3c0.3,0,0.6,0.3,0.6,0.6V86.7z M120.6,81.4h-0.7v2h0.7V81.4z"/>
			<path fill="#FFFFFF" d="M125.3,81.4h-1.7v-0.9h2.6v1.1l-1.1,5.8h-0.9L125.3,81.4z"/>
			<path fill="#FFFFFF" d="M128.2,80.5h0.9v3.2h0.6v-3.2h0.9v3.2h0.6v0.9h-0.6v2.8h-0.9v-2.8h-1.5L128.2,80.5z"/>
		</g>
		<g>
			<path fill="#FFFFFF" d="M39.3,87.3H37v-6.8h2.2v0.9h-1.3v1.9h0.9v0.9h-0.9v2.3h1.4V87.3z"/>
			<path fill="#FFFFFF" d="M42.5,85.2v1.2h0.7v-2.2h-1c-0.3,0-0.6-0.3-0.6-0.6v-2.6c0-0.3,0.2-0.6,0.6-0.6h1.3
				c0.3,0,0.6,0.2,0.6,0.6v1.4h-0.9v-1.1h-0.7v2h1c0.3,0,0.6,0.3,0.6,0.6v2.8c0,0.3-0.3,0.6-0.6,0.6h-1.3c-0.3,0-0.6-0.3-0.6-0.6
				v-1.5H42.5z"/>
			<path fill="#FFFFFF" d="M47.1,81.4h-0.8v-0.9h2.4v0.9h-0.8v6h-0.9V81.4z"/>
			<path fill="#FFFFFF" d="M50.3,86.4h0.9v0.9h-0.9V86.4z"/>
		</g>
		<g>
			<path fill="#FFFFFF" d="M49.5,120.9l1.6,2.2h-1l-1.5-2.2h-0.1v2.2h-0.8v-5.3h0.9c0.7,0,1.2,0.1,1.5,0.4c0.3,0.3,0.5,0.7,0.5,1.2
				c0,0.4-0.1,0.7-0.3,1C50.2,120.7,49.9,120.9,49.5,120.9z M48.5,120.3h0.3c0.8,0,1.1-0.3,1.1-0.9c0-0.5-0.4-0.8-1.1-0.8h-0.3
				V120.3z"/>
			<path fill="#FFFFFF" d="M53.9,117.9v3.2c0,0.5,0.1,0.8,0.2,1c0.2,0.3,0.5,0.5,0.9,0.5c0.4,0,0.7-0.2,0.9-0.5
				c0.1-0.2,0.2-0.5,0.2-1v-3.2H57v3.4c0,0.6-0.2,1-0.5,1.4c-0.4,0.4-0.9,0.6-1.4,0.6c-0.6,0-1-0.2-1.4-0.6
				c-0.3-0.4-0.5-0.8-0.5-1.4v-3.4H53.9z"/>
			<path fill="#FFFFFF" d="M59.4,123.2v-5.3h0.8c0.4,0,0.6,0,0.8,0.1c0.2,0.1,0.4,0.1,0.5,0.3c0.1,0.1,0.3,0.3,0.4,0.5
				c0.1,0.2,0.1,0.4,0.1,0.6c0,0.4-0.1,0.7-0.4,1c0.3,0.1,0.5,0.3,0.7,0.5c0.2,0.2,0.2,0.5,0.2,0.8c0,0.4-0.1,0.8-0.4,1
				c-0.2,0.2-0.4,0.3-0.6,0.4c-0.2,0.1-0.5,0.1-0.9,0.1H59.4z M60.2,120.2h0.2c0.3,0,0.5-0.1,0.7-0.2c0.1-0.1,0.2-0.3,0.2-0.6
				c0-0.2-0.1-0.4-0.2-0.6c-0.1-0.1-0.3-0.2-0.6-0.2h-0.3V120.2z M60.2,122.4h0.5c0.4,0,0.6-0.1,0.8-0.2c0.2-0.2,0.3-0.3,0.3-0.6
				c0-0.2-0.1-0.4-0.3-0.6c-0.2-0.2-0.5-0.2-0.9-0.2h-0.4V122.4z"/>
			<path fill="#FFFFFF" d="M65.6,117.9v5.3h-0.8v-5.3H65.6z"/>
			<path fill="#FFFFFF" d="M68.8,120l2.1-2.1h1.1l-2.4,2.4l2.4,2.9h-1.1l-1.9-2.3l-0.2,0.2v2.2H68v-5.3h0.8V120z"/>
			<path fill="#FFFFFF" d="M74.4,117.7l0.7,0.3l-1,2l-0.5-0.2L74.4,117.7z"/>
			<path fill="#FFFFFF" d="M80.3,118.7l-0.6,0.4c-0.1-0.2-0.2-0.3-0.3-0.4c-0.1-0.1-0.3-0.1-0.4-0.1c-0.2,0-0.4,0.1-0.6,0.2
				c-0.1,0.1-0.2,0.3-0.2,0.5c0,0.3,0.2,0.5,0.6,0.6l0.5,0.2c0.4,0.2,0.7,0.4,0.9,0.6c0.2,0.3,0.3,0.6,0.3,0.9
				c0,0.5-0.2,0.9-0.5,1.2c-0.3,0.3-0.7,0.5-1.2,0.5c-0.5,0-0.8-0.1-1.1-0.4c-0.3-0.3-0.5-0.7-0.6-1.1l0.8-0.2
				c0,0.3,0.1,0.5,0.2,0.6c0.2,0.2,0.4,0.3,0.7,0.3c0.2,0,0.5-0.1,0.6-0.3c0.2-0.2,0.2-0.4,0.2-0.6c0-0.1,0-0.2,0-0.3
				c0-0.1-0.1-0.2-0.1-0.2c-0.1-0.1-0.1-0.1-0.2-0.2c-0.1-0.1-0.2-0.1-0.3-0.2l-0.5-0.2c-0.7-0.3-1.1-0.8-1.1-1.3
				c0-0.4,0.2-0.7,0.5-1c0.3-0.3,0.7-0.4,1.1-0.4C79.5,117.8,80,118.1,80.3,118.7z"/>
			<path fill="#FFFFFF" d="M86.7,121v2.1h-0.8v-5.3h0.9c0.4,0,0.8,0,1,0.1c0.2,0.1,0.4,0.2,0.6,0.3c0.3,0.3,0.5,0.7,0.5,1.1
				c0,0.5-0.2,0.9-0.5,1.1c-0.3,0.3-0.8,0.4-1.3,0.4H86.7z M86.7,120.3H87c0.7,0,1.1-0.3,1.1-0.8c0-0.5-0.4-0.8-1.1-0.8h-0.3V120.3z
				"/>
			<path fill="#FFFFFF" d="M91.7,117.9v3.2c0,0.5,0.1,0.8,0.2,1c0.2,0.3,0.5,0.5,0.9,0.5c0.4,0,0.7-0.2,0.9-0.5
				c0.1-0.2,0.2-0.5,0.2-1v-3.2h0.8v3.4c0,0.6-0.2,1-0.5,1.4c-0.4,0.4-0.9,0.6-1.4,0.6c-0.6,0-1-0.2-1.4-0.6
				c-0.3-0.4-0.5-0.8-0.5-1.4v-3.4H91.7z"/>
			<path fill="#FFFFFF" d="M98.2,122.4h2.5v0.7h-3.8l2.6-4.5h-2.2v-0.7h3.5L98.2,122.4z"/>
			<path fill="#FFFFFF" d="M103.8,122.4h2.5v0.7h-3.8l2.6-4.5h-2.2v-0.7h3.5L103.8,122.4z"/>
			<path fill="#FFFFFF" d="M109.2,117.9v4.5h1.6v0.7h-2.3v-5.3H109.2z"/>
			<path fill="#FFFFFF" d="M115.6,118.7h-2.1v1.3h2.1v0.7h-2.1v1.8h2.1v0.7h-2.9v-5.3h2.9V118.7z"/>
		</g>
		<g>
			<g>
				<path fill="#FFFFFF" d="M50.6,35.8c1.2,0,1.7,0,2.9,0c0,4.1,0,6.1,0,10.2c1-0.1,1.5-0.1,2.4-0.2c0-4,0-6,0-10.1
					c1.2,0,1.7,0,2.9,0c0,8.6,0,12.9,0,21.4c-1.2,0.1-1.7,0.2-2.9,0.4c0-3.6,0-5.4,0-8.9c-1,0.1-1.5,0.1-2.4,0.2c0,3.6,0,5.4,0,9.1
					c-1.2,0.2-1.7,0.3-2.9,0.4C50.6,49.3,50.6,44.8,50.6,35.8z"/>
				<path fill="#FFFFFF" d="M61.4,35.8c1.2,0,1.7,0,2.9,0c0,8.3,0,12.5,0,20.9c-1.2,0.1-1.7,0.2-2.9,0.3
					C61.4,48.5,61.4,44.2,61.4,35.8z"/>
				<path fill="#FFFFFF" d="M66.9,35.8c2.5,0,3.8,0,6.3,0c1.1,0,1.9,0.8,1.9,1.7c0,3,0,4.5,0,7.6c0,0.9-0.9,1.7-1.9,1.7
					c-1.4,0-2.1,0.1-3.4,0.1c0,3.7,0,5.6,0,9.3c-1.2,0.1-1.7,0.1-2.9,0.2c0-3.8,0-5.6,0-9.4C66.9,42.5,66.9,40.3,66.9,35.8z
					 M72.2,38.4c-1,0-1.5,0-2.5,0c0,2.4,0,3.5,0,5.9c1,0,1.5,0,2.5-0.1C72.2,41.9,72.2,40.7,72.2,38.4z"/>
				<path fill="#FFFFFF" d="M80,49.8c0,1.4,0,2.1,0,3.5c1,0,1.5,0,2.5,0c0-2.6,0-3.9,0-6.5c-1.4,0-2.1,0-3.4,0
					c-1.1,0-1.9-0.8-1.9-1.7c0-3,0-4.6,0-7.6c0-1,0.8-1.7,1.9-1.7c1.8,0,2.6,0,4.4,0c1.1,0,1.9,0.7,1.9,1.7c0,1.7,0,2.5,0,4.2
					c-1.2,0-1.7,0-2.9,0c0-1.3,0-2,0-3.3c-1,0-1.5,0-2.5,0c0,2.3,0,3.5,0,5.8c1.4,0,2.1,0,3.4,0c1.1,0,1.9,0.8,1.9,1.7
					c0,3.3,0,4.9,0,8.2c0,0.9-0.9,1.7-1.9,1.7c-1.8,0-2.6,0-4.4,0c-1,0-1.9-0.7-1.9-1.7c0-1.7,0-2.6,0-4.4
					C78.2,49.8,78.8,49.8,80,49.8z"/>
				<path fill="#FFFFFF" d="M89.5,38.4c-1,0-1.5,0-2.6,0c0-1,0-1.5,0-2.6c3.2,0,4.8,0,8.1,0c0,1.1,0,1.6,0,2.6c-1,0-1.5,0-2.6,0
					c0,7.1,0,10.6,0,17.7c-1.2-0.1-1.7-0.1-2.9-0.1C89.5,48.9,89.5,45.4,89.5,38.4z"/>
				<path fill="#FFFFFF" d="M104.1,57c-3-0.3-4.5-0.4-7.5-0.7c0-8.2,0-12.3,0-20.5c2.9,0,4.4,0,7.3,0c0,1.1,0,1.6,0,2.7
					c-1.7,0-2.6,0-4.4-0.1c0,2.3,0,3.4,0,5.7c1.2,0,1.8,0.1,3.1,0.1c0,1.1,0,1.6,0,2.7c-1.2-0.1-1.8-0.1-3.1-0.1c0,2.8,0,4.2,0,7
					c1.8,0.1,2.7,0.2,4.6,0.4C104.1,55.3,104.1,55.9,104.1,57z"/>
				<path fill="#FFFFFF" d="M111.7,48.5c-1-0.1-1.5-0.1-2.4-0.2c0,3.7,0,5.5,0,9.2c-1.2-0.2-1.7-0.2-2.9-0.4c0-8.6,0-12.9,0-21.4
					c2.4,0,3.6,0,6,0c1.1,0,1.9,0.9,1.9,1.9c0,3.1,0,4.7,0,7.8c0,0.8-1,1.5-1,1.5c0,0,1.3,1.2,1.3,2c0,3.7,0,5.6,0,9.3
					c-1.2-0.2-1.7-0.3-2.9-0.4C111.7,54.2,111.7,52.3,111.7,48.5z M109.3,45.5c0.8,0,1.3,0.1,2.1,0.1c0-2.8,0-4.2,0-7
					c-0.8,0-1.3,0-2.1,0C109.2,41.4,109.3,42.8,109.3,45.5z"/>
			</g>
		</g>
	</g>
</g>
</svg>
