<?xml version="1.0" encoding="utf-8"?>
<!-- Generator: Adobe Illustrator 17.1.0, SVG Export Plug-In . SVG Version: 6.00 Build 0)  -->
<!DOCTYPE svg PUBLIC "-//W3C//DTD SVG 1.1//EN" "http://www.w3.org/Graphics/SVG/1.1/DTD/svg11.dtd">
<svg version="1.1" id="Layer_1" xmlns="http://www.w3.org/2000/svg" xmlns:xlink="http://www.w3.org/1999/xlink" x="0px" y="0px"
	 viewBox="0 0 170 150" enable-background="new 0 0 170 150" xml:space="preserve">
<g>
	<g>
		<path fill="#383433" d="M122.7,1.2l-75,0.2c-3.2,0-6.1,1.7-7.8,4.5L2.3,70.7c-1.6,2.8-1.6,6.2,0,9l37.3,64.6
			c1.6,2.8,4.6,4.5,7.8,4.5l75-0.2c3.2,0,6.1-1.7,7.8-4.5l37.7-64.9c1.6-2.8,1.6-6.2,0-9L130.5,5.6C128.9,2.9,125.9,1.1,122.7,1.2z
			 M160.8,70.2c1.6,2.9,1.6,6.4,0,9.2l-34,58.7c-0.8,1.4-2,2.6-3.4,3.4c-1.4,0.8-3,1.2-4.6,1.2L51,142.9c-3.3,0-6.4-1.8-8-4.6
			L9.2,79.8c-1.6-2.9-1.6-6.4,0-9.2l34.1-58.7c1.6-2.8,4.7-4.6,8-4.6l67.8-0.2c3.3,0,6.4,1.8,8,4.6L160.8,70.2z"/>
	</g>
	<g>
		<g>
			<path fill="#383433" d="M100.2,82.3L100.2,82.3C100.2,82.3,100.2,82.2,100.2,82.3c-0.1-0.1-0.2-0.2-0.3-0.3c0,0-0.1-0.1-0.1-0.1
				c-0.1-0.1-0.1-0.1-0.2-0.2c0,0-0.1-0.1-0.1-0.1v0c-0.6-0.5-1.2-1.1-2-1.5c0,0,0,0,0,0l0,0c-0.1-0.1-0.2-0.1-0.3-0.2c0,0,0,0,0,0
				c-0.2-0.1-0.4-0.3-0.7-0.4c0,0,0,0,0,0l0,0c0,0,0,0-0.1,0c0,0,0,0,0,0c-0.2-0.1-0.3-0.2-0.5-0.2c0,0,0,0,0,0c0,0,0,0,0,0l0,0
				c-0.1,0-0.2-0.1-0.2-0.1c-0.3-0.1-0.5-0.2-0.8-0.3c-0.1,0-0.2-0.1-0.3-0.1c0,0-0.1,0-0.1,0c0,0-0.1,0-0.1,0c-0.1,0-0.1,0-0.2-0.1
				v0c0,0,0,0,0,0c0,0-0.1,0-0.1,0c-0.3-0.1-0.6-0.2-0.9-0.3c0,0,0,0,0,0l0,0c0,0,0,0,0,0c0,0-0.1,0-0.1,0c-0.7-0.2-1.4-0.4-2.1-0.6
				c0.9-1,1.7-2.2,2.2-3.6c1.4-1.6,2.3-3.3,2.9-5.2c0.3-1.1,1.2-3.7,0.1-4.8c0.1,0.1,0.3,0.3,0.4,0.4c-0.3-0.8-0.7-1.8-1.5-2.5
				c0.4,0.2,0.7,0.5,1.1,0.7c0-1.2-1.5-2.3-2.6-3c0.4,0.1,0.9,0.3,1.4,0.4c-0.6-0.8-2.7-2.3-4-2.2c0.5-0.1,1.1-0.1,1.5-0.2
				c-0.9-0.5-2.1-0.4-3.1-0.3c0.5-0.2,1.2-0.4,1.7-0.5c-1-0.2-2.1,0.1-3,0c0.4-0.1,0.7-0.2,1.1-0.4c-0.7,0-1.5,0.1-2.1,0.3
				c-0.1,0-0.2,0-0.3,0c0.2-0.2,0.5-0.4,0.8-0.6c-0.5,0.1-1.1,0.3-1.6,0.5c-0.1,0-0.3,0-0.4,0c0.1-0.3,0.3-0.5,0.6-0.8
				c-0.5,0.2-1,0.4-1.4,0.7c-0.2,0-0.4,0-0.5,0c0-0.3,0-0.5,0-0.8c-0.3,0.2-0.5,0.5-0.6,0.8c-0.1,0-0.3,0-0.4,0
				c-0.2-0.3-0.4-0.8-0.4-0.9c-0.3,0.3-0.5,0.7-0.6,1c-0.2,0-0.4,0.1-0.5,0.1c-0.5-0.3-1.1-0.3-1.6-0.4c0.3,0.2,0.7,0.3,1,0.5
				c-0.8-0.3-1.7-0.1-2.6,0.1c0.5,0.1,1,0.2,1.4,0.4c0,0,0,0,0,0c-1-0.2-1.8,0.1-2.7,0.5c0.4,0,1-0.1,1.5,0c-1,0.3-2.1,0.7-2.9,1.4
				c0.5-0.2,1.1-0.3,1.7-0.2c-1-0.2-3.1,2.2-3.5,2.7c0.4-0.3,0.9-0.6,1.5-0.7c-0.8,0.7-1.3,1.8-1.5,2.7c0.3-0.4,0.6-0.8,1-1
				c-0.6,1-1,2.2-1.1,3.3c0.3-0.7,0.6-1.2,1.1-1.8c-0.7,0.8-0.8,2-0.8,3.1c0,0.1,0,0.2,0,0.4c0,0.5,0.1,1.1,0.3,1.6
				c0,0.1,0,0.1,0.1,0.2c0.5,1.6,1.4,3,2.4,4.4c0.5,1.2,1.2,2.3,2.1,3.2c-0.2,0-0.3,0.1-0.5,0.1c-0.1,0-0.1,0-0.2,0l0,0c0,0,0,0,0,0
				c0,0,0,0-0.1,0c-0.5,0.1-0.9,0.2-1.3,0.4l0,0c-0.1,0-0.2,0.1-0.3,0.1c0,0,0,0,0,0l0,0c0,0-0.1,0-0.1,0c-0.2,0.1-0.5,0.2-0.7,0.2
				c-0.1,0-0.1,0-0.2,0.1c0,0,0,0,0,0c-0.1,0-0.1,0-0.2,0.1c0,0-0.1,0-0.1,0v0c0,0,0,0-0.1,0c0,0,0,0,0,0c-0.1,0-0.1,0.1-0.2,0.1
				c0,0,0,0,0,0c-0.3,0.1-0.5,0.2-0.8,0.3c-0.1,0-0.2,0.1-0.2,0.1l0,0c0,0,0,0,0,0c0,0,0,0,0,0c-0.2,0.1-0.3,0.2-0.5,0.2
				c0,0,0,0,0,0c0,0,0,0-0.1,0l0,0c0,0,0,0,0,0c-0.2,0.1-0.5,0.3-0.7,0.4v0c-0.1,0.1-0.2,0.1-0.3,0.1c0,0,0,0,0,0
				c-0.7,0.5-1.4,1-2,1.5v0c0,0-0.1,0.1-0.1,0.1c-0.1,0.1-0.1,0.1-0.2,0.2c0,0-0.1,0.1-0.1,0.1c-0.1,0.1-0.2,0.2-0.2,0.3
				c0,0,0,0,0,0v0c-1.1,1.3-1.7,2.7-1.7,4.3v15.4h1.1h0.3h0.3h0.7h0.3h0.3h1h0.3h0.3h0.7h0.3h0.3h1h0.3h0.3h0.7h0.3h0.3h1h0.3h0.3
				h0.7h0.3h0.3h1h0.3h0.3h0.7h0.3H83h1h0.3h0.3h0.7h0.3H86h1h0.3h0.3h0.7h0.3H89h1h0.3h0.3h0.7h0.3h0.3h1h0.3h0.3h0.7h0.3h0.3h1
				h0.3h0.3h0.7h0.3h0.3h1h0.3h0.3h0.7h0.3h0.3h1.1V86.5C101.9,85,101.3,83.5,100.2,82.3z M101.6,101.6h-0.8V83.7
				c0.5,0.9,0.8,1.9,0.8,2.9V101.6z M68.5,86.5c0-1,0.3-2,0.8-2.9v17.9h-0.8V86.5z M69.6,83.1c0.1-0.1,0.2-0.2,0.3-0.4v18.8h-0.3
				V83.1z M70.6,81.9c0.1-0.1,0.2-0.2,0.3-0.3v19.9h-0.3V81.9z M71.2,81.4c0.3-0.3,0.7-0.5,1-0.8v21h-1V81.4z M72.6,80.4
				c0.1-0.1,0.2-0.1,0.3-0.2v21.4h-0.3V80.4z M73.6,79.8c0,0,0.1-0.1,0.1-0.1c0,0.1,0.1,0.2,0.1,0.4v21.5h-0.3V79.8z M82.4,57.2
				c0,0.1,0,0.1,0,0.2c0-0.1-0.1-0.1-0.1-0.2C82.4,57.2,82.4,57.2,82.4,57.2z M83.7,57c0,0,0,0.1-0.1,0.1
				C83.6,57.1,83.6,57.1,83.7,57C83.6,57,83.7,57,83.7,57z M84.6,57c0,0-0.1,0.1-0.1,0.1c0,0,0-0.1,0-0.1C84.5,57,84.5,57,84.6,57z
				 M85.7,57C85.7,57,85.7,57,85.7,57C85.7,57,85.7,57,85.7,57C85.7,57,85.7,57,85.7,57z M76.5,71L76.5,71c-0.2-0.1-0.3-0.1-0.4-0.2
				c-0.3-1.8-0.4-3.6,0.1-5.1c0,0.8,0.5,1.6,0.8,2.4c-0.4-0.8-0.3-1.9-0.4-2.8c0.1,0.7,0.5,1.3,0.8,1.9c-1.1-2.2,1.1-5.4,2.6-7.1
				c-0.4,0.6-0.4,1.3-0.6,2c0.4-0.5,0.9-1,1.5-1.4c0,0.2,0,0.3,0,0.5c0.2-0.3,0.4-0.7,0.7-0.8c0,0.2,0.2,0.4,0.3,0.6
				c0.3-0.6,0.8-0.6,1.1-0.1c0.1-0.2,0.3-0.4,0.4-0.6c0,0.1,0.2,0.3,0.2,0.4c0-0.2,0.2-0.3,0.3-0.5c0.1,0.1,0.2,0.2,0.3,0.4
				c0-0.1,0.2-0.3,0.2-0.5c0.1,0.1,0.4,0.3,0.5,0.4c0-0.1,0-0.2,0-0.3c0.2,0.2,0.4,0.5,0.7,0.7c0-0.2,0-0.3,0-0.5
				c0.1,0.2,0.4,0.3,0.6,0.5c0-0.2,0.1-0.5,0-0.7c0.3,0.3,0.6,0.6,0.9,0.8c0-0.3-0.1-0.7,0-1c0.3,0.3,0.5,0.8,0.9,1
				c-0.1-0.2,0-0.5,0-0.7c0.4,0.2,0.7,0.5,1,0.7c-0.1-0.2-0.2-0.5-0.2-0.7c0.4,0.3,0.6,0.9,1.1,1.1c-0.1-0.3-0.2-0.7-0.2-1
				c0.3,0.3,0.5,0.8,0.9,1.1c-0.1-0.3-0.2-0.5-0.2-0.8c0,0.2,0.2,0.6,0.3,0.9c0-0.3-0.1-0.6-0.1-0.9c0,0.5,0.8,1,1.1,1.4
				c0.3,0.5,0.4,0.8,0.6,1.3c0.4,1.2,1.1,2.5,0.4,3.7c0.3-0.5,0.9-1.1,1-1.5c0,0.6,0.1,1.1,0.1,1.7c0-0.2,0.2-0.7,0.4-1
				c0.1,1.4,0.1,2.7-0.1,4.1c-0.1,0.1-0.2,0.1-0.3,0.2l-0.1,0l0,0.1c-0.4,2.5-1.6,4.7-3.1,6.4c0,0,0,0,0,0c0,0-0.1,0.1-0.1,0.1
				c0,0-0.1,0.1-0.1,0.1c0,0,0,0,0,0c0,0-0.1,0.1-0.1,0.1c-0.1,0.1-0.2,0.2-0.2,0.2c-0.3,0.3-0.7,0.6-1,0.8
				c-0.1,0.1-0.2,0.2-0.3,0.2c-0.1,0.1-0.2,0.1-0.3,0.1c-0.1,0.1-0.3,0.1-0.4,0.2v-2v0v-0.1v-0.2V77v0v-0.9c0-0.8-0.6-1.4-1.4-1.4
				h-2.9c-0.8,0-1.4,0.6-1.4,1.4v0.9v0v0.2v0.2v0.1v0v2c-0.2-0.1-0.4-0.2-0.6-0.3c-0.1-0.1-0.2-0.1-0.3-0.2
				c-0.1-0.1-0.2-0.2-0.3-0.2c-0.4-0.3-0.7-0.6-1-0.9c0,0-0.1-0.1-0.1-0.1c0,0-0.1-0.1-0.1-0.1c0,0-0.1-0.1-0.1-0.1l0,0
				c0,0-0.1-0.1-0.1-0.1c0,0,0,0,0,0c-1.5-1.6-2.6-3.8-3-6.3L76.5,71z M84.7,83.5c-0.1,0-0.2,0-0.3,0c-0.1,0-0.2,0-0.3-0.1
				c-0.4-0.1-0.7-0.2-1-0.4c-0.1-0.1-0.2-0.1-0.3-0.2c-0.1,0-0.2-0.1-0.3-0.1c-0.2-0.1-0.5-0.3-0.7-0.5c-0.1-0.1-0.2-0.1-0.3-0.2
				c-0.1-0.1-0.2-0.2-0.3-0.3c-0.4-0.3-0.7-0.6-1-0.9c-0.1-0.1-0.2-0.2-0.3-0.3c-0.1-0.1-0.2-0.2-0.3-0.3c-0.2-0.2-0.5-0.5-0.7-0.7
				c-0.1-0.1-0.2-0.2-0.3-0.3c-0.1-0.1-0.2-0.3-0.3-0.4c-0.2-0.2-0.4-0.5-0.6-0.7c0.2-0.1,0.4-0.1,0.6-0.2c0.1,0,0.2-0.1,0.3-0.1
				c0.1,0,0.2,0,0.3-0.1c0.2,0,0.5-0.1,0.7-0.1c0,0,0,0,0,0c0.1,0.1,0.1,0.1,0.2,0.2c0.1,0.1,0.2,0.2,0.3,0.3c0.3,0.3,0.7,0.6,1,0.8
				c0.1,0.1,0.2,0.2,0.3,0.2c0.1,0.1,0.2,0.1,0.3,0.2c0.2,0.1,0.4,0.2,0.6,0.3v0.5c0,0.2,0,0.4,0.1,0.6c0.1,0.1,0.2,0.3,0.3,0.4
				c0.1,0.1,0.2,0.2,0.3,0.3c0.2,0.1,0.4,0.2,0.6,0.2h0.4h0.3h0.3h0.7h0.3H86h0.6c0.1,0,0.3,0,0.4-0.1c0.1,0,0.2-0.1,0.3-0.2
				c0.1-0.1,0.2-0.2,0.3-0.2c0.2-0.2,0.3-0.5,0.3-0.9v-0.5c0.1-0.1,0.3-0.1,0.4-0.2c0.1,0,0.2-0.1,0.3-0.1c0.1-0.1,0.2-0.1,0.3-0.2
				c0.4-0.2,0.7-0.5,1-0.8c0.1-0.1,0.2-0.2,0.3-0.3c0.1-0.1,0.2-0.2,0.3-0.3c0,0,0.1-0.1,0.1-0.1c0.2,0,0.4,0.1,0.6,0.1
				c0.1,0,0.2,0,0.3,0.1c0.1,0,0.2,0.1,0.3,0.1c0.2,0,0.4,0.1,0.6,0.2c-0.2,0.2-0.4,0.4-0.6,0.7c-0.1,0.1-0.2,0.2-0.3,0.4
				c-0.1,0.1-0.2,0.2-0.3,0.3c-0.2,0.2-0.5,0.5-0.7,0.7c-0.1,0.1-0.2,0.2-0.3,0.3c-0.1,0.1-0.2,0.2-0.3,0.3c-0.3,0.3-0.7,0.6-1,0.9
				c-0.1,0.1-0.2,0.2-0.3,0.3c-0.1,0.1-0.2,0.1-0.3,0.2c-0.2,0.2-0.5,0.3-0.7,0.5c-0.1,0-0.2,0.1-0.3,0.1C87.3,82.9,87.2,83,87,83
				c-0.3,0.2-0.7,0.3-1,0.4c-0.1,0-0.2,0.1-0.3,0.1c-0.1,0-0.2,0-0.3,0c-0.1,0-0.2,0-0.4,0C84.9,83.5,84.8,83.5,84.7,83.5z
				 M82.7,77.1L82.7,77.1c0-0.1,0-0.1,0-0.2c0,0,0,0,0,0c0.1-0.7,0.6-1.2,1.3-1.2h2.1c0.7,0,1.3,0.5,1.4,1.2c0,0,0,0,0,0
				c0,0,0,0.1,0,0.1v0v0.2v0.2v0.8c0,0.2-0.1,0.4-0.2,0.6c-0.1,0.2-0.2,0.3-0.3,0.4c-0.2,0.2-0.5,0.3-0.9,0.3H86h-0.3h-0.3h-0.7
				h-0.3h-0.3c0,0,0,0,0,0c-0.4,0-0.8-0.2-1-0.5c-0.2-0.2-0.3-0.5-0.3-0.8v-0.8v0v-0.2V77.1z M74.2,81.1c0.2,0.7,0.6,1.5,1,2.3v18.2
				h-1V81.1z M75.5,84c0.1,0.1,0.2,0.3,0.3,0.4v17.1h-0.3V84z M76.5,85.5c0.1,0.1,0.2,0.2,0.3,0.3v15.8h-0.3V85.5z M77.1,86.2
				c0.3,0.4,0.7,0.7,1,1v14.3h-1V86.2z M78.5,87.6c0.1,0.1,0.2,0.1,0.3,0.2v13.8h-0.3V87.6z M79.5,88.3c0.1,0.1,0.2,0.1,0.3,0.2
				v13.2h-0.3V88.3z M80.1,88.6c0.3,0.2,0.7,0.3,1,0.5v12.5h-1V88.6z M81.5,89.3c0.1,0,0.2,0.1,0.3,0.1v12.2h-0.3V89.3z M82.4,89.6
				c0.1,0,0.2,0,0.3,0.1v12h-0.3V89.6z M83,89.7c0.3,0.1,0.7,0.1,1,0.1v11.8h-1V89.7z M84.4,89.9c0.1,0,0.2,0,0.3,0v11.7h-0.3V89.9z
				 M85.4,89.9c0.1,0,0.2,0,0.3,0v11.7h-0.3V89.9z M86,89.8c0.4,0,0.7-0.1,1-0.1v11.9h-1V89.8z M87.4,89.6c0.1,0,0.2,0,0.3-0.1v12
				h-0.3V89.6z M88.4,89.4c0.1,0,0.2-0.1,0.3-0.1v12.3h-0.3V89.4z M89,89.1c0.4-0.1,0.7-0.3,1-0.5v13h-1V89.1z M90.3,88.4
				c0.1-0.1,0.2-0.1,0.3-0.2v13.3h-0.3V88.4z M91.3,87.8c0.1-0.1,0.2-0.1,0.3-0.2v14h-0.3V87.8z M91.9,87.3c0.4-0.3,0.7-0.7,1-1
				v15.4h-1V87.3z M93.3,85.8c0.1-0.1,0.2-0.2,0.3-0.3v16.1h-0.3V85.8z M94.3,84.5c0.1-0.1,0.2-0.3,0.3-0.4v17.6h-0.3V84.5z
				 M94.9,83.4c0.5-0.8,0.8-1.6,1-2.3v20.5h-1V83.4z M96.3,80.1c0-0.2,0.1-0.3,0.1-0.4c0.1,0,0.1,0.1,0.2,0.1v21.8h-0.3V80.1z
				 M97.2,80.2c0.1,0.1,0.2,0.1,0.3,0.2v21.2h-0.3V80.2z M97.8,80.6c0.4,0.3,0.7,0.5,1,0.8v20.2h-1V80.6z M99.2,81.7
				c0.1,0.1,0.2,0.2,0.3,0.3v19.7h-0.3V81.7z M100.2,82.8c0.1,0.1,0.2,0.2,0.3,0.4v18.5h-0.3V82.8z"/>
			<g>
				<g>
					<path fill="#383433" d="M77.1,68.9c0.2,0.4,0.2,0.9,0.3,1.3c0.1,0.3,0.3,0.7,0.5,1c1.2,1.7,4.7,1.4,5.8-0.3
						c0.4-0.6,0.5-1.4,0.7-2.4c0.4-0.2,1.2-0.3,1.5,0.1c-0.2,2.5,2,4,4.3,3.7c1.7-0.2,2.4-1.6,2.8-3.1c0.6-0.3,0.6-1.2,0.6-2.2
						c-2.2-0.3-4-0.4-5.9,0c-0.6,0.1-1.1,0.6-1.6,0.6c-0.2,0-0.6-0.2-0.9-0.2c-0.3,0-0.6,0.1-0.9,0.1c-0.3,0-0.6-0.3-0.9-0.5
						c-1.9-0.8-3.9-0.7-6.7-0.4c0,0.4-0.2,1.1-0.1,1.4C76.6,68.5,77,68.6,77.1,68.9z M87,68c0.4-0.5,1.1-0.6,2.1-0.7
						c1.2-0.1,2.8,0.1,3.1,0.7c0.6,1,0,2.8-0.6,3.3c-1.2,1.1-3.5,0.7-4.5-0.4C86.5,70.3,86.4,68.7,87,68z M78,68
						c0.2-0.5,1.3-0.8,2.1-0.8c1.5,0,3.2,0.2,3.6,1.3c0.3,0.9-0.2,2-0.5,2.3c-0.7,1-3.2,1.5-4.5,0.6C78,70.9,77.7,69,78,68z"/>
				</g>
			</g>
		</g>
		<path fill="#383433" d="M102.7,38.7H67.4c-4,0-7.2,3.2-7.2,7.2V104c0,4,3.2,7.2,7.2,7.2h35.3c4,0,7.2-3.2,7.2-7.1l0,0V104v-0.5V46
			C109.9,42,106.7,38.7,102.7,38.7z M81.6,40.7h6.8c0.4,0,0.8,0.3,0.8,0.8c0,0.4-0.3,0.8-0.8,0.8h-6.8c-0.4,0-0.8-0.3-0.8-0.8
			C80.9,41.1,81.2,40.7,81.6,40.7z M85,107.7c-1.2,0-2.1-0.9-2.1-2.1c0-1.2,0.9-2.1,2.1-2.1c1.2,0,2.1,0.9,2.1,2.1
			C87.1,106.7,86.2,107.7,85,107.7z M104.4,97.9c-0.1,1-0.9,1.8-1.9,1.8H67.6c-1.1,0-1.9-0.9-1.9-1.9V47c0-1.1,0.9-1.9,1.9-1.9h34.8
			c1.1,0,1.9,0.9,1.9,1.9L104.4,97.9L104.4,97.9z"/>
	</g>
	<g>
		<g>
			<g>
				<g>
					<path fill="#383433" d="M150.6,75.7H121c-0.7,0-1.2-0.3-1.2-0.7c0-0.4,0.5-0.7,1.2-0.7h29.5c0.7,0,1.2,0.3,1.2,0.7
						C151.8,75.4,151.2,75.7,150.6,75.7z"/>
				</g>
				<g>
					<path fill="#383433" d="M143.8,71.8H121c-0.7,0-1.2-0.3-1.2-0.7c0-0.4,0.5-0.7,1.2-0.7h22.7c0.7,0,1.2,0.3,1.2,0.7
						C145,71.5,144.4,71.8,143.8,71.8z"/>
				</g>
				<g>
					<path fill="#383433" d="M143.8,79.6H121c-0.7,0-1.2-0.3-1.2-0.7c0-0.4,0.5-0.7,1.2-0.7h22.7c0.7,0,1.2,0.3,1.2,0.7
						C145,79.3,144.4,79.6,143.8,79.6z"/>
				</g>
			</g>
		</g>
		<g>
			<g>
				<g>
					<path fill="#383433" d="M19.5,75.7H49c0.7,0,1.2-0.3,1.2-0.7c0-0.4-0.5-0.7-1.2-0.7H19.5c-0.7,0-1.2,0.3-1.2,0.7
						C18.3,75.4,18.8,75.7,19.5,75.7z"/>
				</g>
				<g>
					<path fill="#383433" d="M26.3,71.8H49c0.7,0,1.2-0.3,1.2-0.7c0-0.4-0.5-0.7-1.2-0.7H26.3c-0.7,0-1.2,0.3-1.2,0.7
						C25.1,71.5,25.7,71.8,26.3,71.8z"/>
				</g>
				<g>
					<path fill="#383433" d="M26.3,79.6H49c0.7,0,1.2-0.3,1.2-0.7c0-0.4-0.5-0.7-1.2-0.7H26.3c-0.7,0-1.2,0.3-1.2,0.7
						C25.1,79.3,25.7,79.6,26.3,79.6z"/>
				</g>
			</g>
		</g>
	</g>
	<g id="text_35_">
		<g>
			<path fill="#383433" d="M65.2,130c0.6,0.4,1.5,0.6,2.3,0.4c-0.9-2.4,0.4-5.6,3.7-5.6c0.9,0,1.6,0.3,2.1,0.9l2.3-2.3
				c0.2-3.1,0.9-5,3-5c1.5,0,2,1.6,0.4,3.2l-1.9,1.8c0,0.8-0.1,1.7-0.1,2.7c0,3.8-1.8,6.9-5.2,6.9c-1.8,0-3.1-0.8-3.8-1.8
				c-1.2,0.3-2.4,0.1-3.3-0.7L65.2,130z M68.8,130c0.4-0.2,0.7-0.5,1.1-0.8l2.7-2.7c-0.4-0.3-0.9-0.5-1.4-0.5
				C69.1,126,68.2,128.3,68.8,130z M69.3,130.8c0.5,0.6,1.3,1,2.5,1c2.5,0,3.7-2.4,3.7-5.6V125l-1.6,1.6c0.6,1.2,0.5,2.6-0.6,3.5
				l-0.7-0.7c0.7-0.7,0.8-1.5,0.5-2.1l-2.5,2.4C70.3,130.2,69.8,130.5,69.3,130.8z M77.3,121.9l0.7-0.6c1-1,0.9-1.6,0.4-1.6
				C77.8,119.7,77.5,120.4,77.3,121.9z"/>
			<path fill="#383433" d="M79.8,128.4l-0.2,0.3c-0.8,1.3-0.2,1.9,0.8,1.9c1.1,0,2.6-1.1,3.8-2.4l0.1-0.1c0.2,0.1,0.5,0.3,0.6,0.6
				c-1.3,1.6-3.2,3-5,3c-1.9,0-2.8-1.6-1.8-3.3l1.7-2.9c0.7-1.2,1.7-1.9,3-1.9c1.3,0,2.2,1.1,1.3,2.6l-0.2,0.4
				C82.8,128.7,80.8,128.9,79.8,128.4z M80.3,127.6c0.6,0.2,1.7,0.3,2.4-1.1l0.2-0.4c1-1.7-0.7-2-1.6-0.3L80.3,127.6z"/>
			<path fill="#383433" d="M88.4,128.1c0.2,0.1,0.5,0.3,0.6,0.6c-1.3,1.6-2.9,3-4.2,3c-1.3,0-1.8-1.1-1.1-2.3l5.3-9.1h1.6l-5.5,9.5
				c-0.4,0.6-0.2,0.9,0.2,0.9c0.7,0,1.9-1.1,3-2.4L88.4,128.1z"/>
			<path fill="#383433" d="M94.2,128.1c0.2,0.1,0.5,0.3,0.6,0.6c-1.8,2.1-4,2.6-5.6,2.7c0.2,0.5,0.1,1.1-0.2,1.6l-1.2,2.1
				c-1.7,3-4.2,1.3-3-0.9l6.7-11.7c2.1-3.7,5.6-2.6,3.8,0.6l-2.6,4.5c-0.8,1.4-2.2,2.3-3.3,2.9c1.3-0.1,3.1-0.6,4.7-2.4L94.2,128.1z
				 M88.1,131.4H88l-1.8,3.2c-0.7,1.1,0,1.4,0.6,0.5l1.4-2.4C88.4,132,88.4,131.5,88.1,131.4z M88.7,130.2c1.3-0.6,2.4-1.9,3.1-3.2
				l2.5-4.4c0.8-1.5-0.3-1.5-1.2,0L88.7,130.2z"/>
			<path fill="#383433" d="M98.2,128.1c0.2,0.1,0.5,0.3,0.6,0.6c-1.3,1.6-2.9,3-4.2,3c-1.3,0-1.8-1.1-1.1-2.3l3.3-5.7h1.6l-3.5,6.1
				c-0.4,0.6-0.2,0.9,0.2,0.9c0.7,0,1.9-1.1,3-2.4L98.2,128.1z M98.6,121c0.5,0,1,0.4,1,1c0,0.5-0.4,0.9-1,0.9
				c-0.5,0-0.9-0.4-0.9-0.9C97.7,121.4,98.1,121,98.6,121z"/>
			<path fill="#383433" d="M99.7,128.4l-0.2,0.3c-0.8,1.3-0.2,1.9,0.8,1.9c1.1,0,2.6-1.1,3.8-2.4l0.1-0.1c0.2,0.1,0.5,0.3,0.6,0.6
				c-1.3,1.6-3.2,3-5,3c-1.9,0-2.8-1.6-1.8-3.3l1.7-2.9c0.7-1.2,1.7-1.9,3-1.9c1.3,0,2.2,1.1,1.3,2.6l-0.2,0.4
				C102.7,128.7,100.7,128.9,99.7,128.4z M100.1,127.6c0.6,0.2,1.7,0.3,2.4-1.1l0.2-0.4c1-1.7-0.7-2-1.6-0.3L100.1,127.6z"/>
		</g>
		<g>
			<path fill="#383433" d="M62.7,14.3h2v7.2h1.7v-7.2h2V30h-2v-6.4h-1.7V30h-2V14.3z"/>
			<path fill="#383433" d="M70.1,14.3h2V30h-2V14.3z"/>
			<path fill="#383433" d="M73.8,14.3h4.4c0.8,0,1.3,0.6,1.3,1.3v5.9c0,0.7-0.6,1.3-1.3,1.3h-2.4V30h-2v-7.1V14.3z M77.5,16.3h-1.7
				v4.5h1.7V16.3z"/>
			<path fill="#383433" d="M83,25.2v2.7h1.7v-5h-2.4c-0.8,0-1.3-0.6-1.3-1.3v-5.9c0-0.8,0.5-1.3,1.3-1.3h3c0.8,0,1.3,0.6,1.3,1.3
				v3.3h-2v-2.6H83v4.6h2.4c0.8,0,1.3,0.6,1.3,1.3v6.4c0,0.7-0.6,1.3-1.3,1.3h-3c-0.7,0-1.3-0.6-1.3-1.3v-3.4H83z"/>
			<path fill="#383433" d="M89.9,16.3h-1.8v-2h5.6v2h-1.8V30h-2V16.3z"/>
			<path fill="#383433" d="M100.2,30H95V14.3h5v2h-3v4.3h2.1v2h-2.1v5.3h3.2V30z"/>
			<path fill="#383433" d="M105.5,23.3h-1.7V30h-2V14.3h4.1c0.8,0,1.3,0.6,1.3,1.3v5.4c0,0.6-0.3,1-0.7,1.1c0.6,0.1,0.9,0.8,0.9,1.3
				V30h-2V23.3z M103.8,21.3h1.5v-5h-1.5V21.3z"/>
		</g>
	</g>
</g>
</svg>
