<?xml version="1.0" encoding="utf-8"?>
<!-- Generator: Adobe Illustrator 17.1.0, SVG Export Plug-In . SVG Version: 6.00 Build 0)  -->
<!DOCTYPE svg PUBLIC "-//W3C//DTD SVG 1.1//EN" "http://www.w3.org/Graphics/SVG/1.1/DTD/svg11.dtd">
<svg version="1.1" id="Layer_1" xmlns="http://www.w3.org/2000/svg" xmlns:xlink="http://www.w3.org/1999/xlink" x="0px" y="0px"
	 viewBox="0 0 160 160" enable-background="new 0 0 160 160" xml:space="preserve">
<g>
	<g>
		<g>
			<circle fill="#383433" cx="79.6" cy="80" r="79.8"/>
		</g>
	</g>
	<path fill="#FFFFFF" d="M79.6,6.7C39.2,6.7,6.3,39.6,6.3,80c0,40.4,32.9,73.3,73.3,73.3c40.4,0,73.3-32.9,73.3-73.3
		C152.9,39.6,120,6.7,79.6,6.7z M79.6,152.4c-39.9,0-72.4-32.5-72.4-72.4c0-39.9,32.5-72.4,72.4-72.4C119.6,7.6,152,40.1,152,80
		C152,119.9,119.6,152.4,79.6,152.4z"/>
	<g>
		<path fill="#FFFFFF" d="M117.5,121.8c0.2,0.2,0.4,0.3,0.5,0.5c6.7-6.6,11.7-15,14.1-24.7c2.7-10.5,1.9-21.1-1.5-30.6
			c-0.2,0.1-0.4,0.2-0.7,0.3c3.3,9.4,4,19.8,1.4,30.1C129,107,124,115.3,117.5,121.8z"/>
		<path fill="#FFFFFF" d="M43.9,124c-7.8-6.7-13.7-15.7-16.4-26.4c-2.6-10.1-2-20.2,1-29.4c-0.3,0-0.5,0-0.8-0.1
			c-3.1,9.3-3.6,19.5-1,29.7c2.8,10.7,8.7,19.8,16.5,26.6C43.4,124.3,43.6,124.1,43.9,124z"/>
	</g>
	<g>
		<circle fill-rule="evenodd" clip-rule="evenodd" fill="#FFFFFF" cx="33.3" cy="57.9" r="3"/>
		<circle fill-rule="evenodd" clip-rule="evenodd" fill="#FFFFFF" cx="127" cy="57.9" r="3"/>
	</g>
	<g>
		<path fill-rule="evenodd" clip-rule="evenodd" fill="#FFFFFF" d="M94.7,83.4c-4.2-0.5-7.6-0.8-11.2,0.1c-1.1,0.3-2.1,1.1-3,1.2
			c-0.4,0-1.1-0.3-1.7-0.3c-0.6,0-1.2,0.3-1.6,0.2c-0.6-0.1-1.1-0.6-1.6-0.9c-3.7-1.5-7.4-1.4-12.7-0.7c-0.1,0.8-0.4,2-0.2,2.7
			c0.2,0.7,0.9,0.9,1.1,1.3c0.4,0.8,0.3,1.7,0.5,2.4c0.2,0.7,0.6,1.4,1,1.9c2.3,3.3,8.8,2.7,10.9-0.5c0.8-1.2,1-2.6,1.3-4.5
			c0.8-0.4,2.3-0.5,2.8,0.2c-0.4,4.8,3.7,7.5,8.1,7c3.3-0.4,4.5-3.1,5.3-5.9C94.8,87,94.8,85.3,94.7,83.4z M75.2,90.7
			c-1.3,1.9-6,2.9-8.4,1.2c-1.5-1-2.1-4.7-1.5-6.6c0.3-0.9,2.5-1.6,3.9-1.6c2.9,0,6.2,0.4,6.8,2.5C76.6,88,75.7,90,75.2,90.7z
			 M91,91.7c-2.2,2.1-6.6,1.3-8.4-0.8c-1.1-1.2-1.4-4.2-0.2-5.5c0.8-0.9,2-1.2,3.9-1.3c2.4-0.2,5.3,0.2,6,1.2
			C93.3,87.1,92.2,90.5,91,91.7z"/>
		<path fill="#FFFFFF" d="M64.6,70c0,0,0-2.7,0.6-7c0.6-4.3,3.3-5.9,6.4-7.1c3.1-1.1,13-1.3,15.4-0.9c2.4,0.5,4.9,11.1,4.9,11.1
			s-7.1,2.4-15.6,3.5C71,70.3,64.6,70,64.6,70z M93.8,71.6c-4.5,2.7-23.5,2.8-25,2.8c-1.6-0.7-3.2-1.4-4.5-2.1
			c0.2,0.1,0.3,0.1,0.3,0.1l0-0.1l3.9,1.7c0,0,6.3,0,12.3-0.6c9.6-0.9,12.6-2.8,12.6-2.8l-1.3-4c0,0-6.8,2.6-14.8,3.4
			c-5.2,0.5-12.5,0.4-12.5,0.4l-0.1,1.6l0.1-3.2c-0.5-0.2-3.3,0.1-3.4,0.9c-0.4,0.3-0.2,3.9,1.7,4.8c4,1.8,12.3,2.1,12.4,2.1
			c0.2,0.1,0.5,0.2,0.7,0.2c2.1,0.7,7.3,0.9,12.3,0.6c4.9-0.3,9.6-1.2,9.9-2.1C98.8,73.6,93.8,71.6,93.8,71.6z"/>
		<path fill-rule="evenodd" clip-rule="evenodd" fill="#FFFFFF" d="M75.2,98c1.3,0,2.5,0.8,3,1.9c0.5-1.1,1.6-1.9,3-1.9
			c0.8,0,1.5,0.2,2,0.7l0,0l0,0c0,0,0.1,0,0.1,0.1c2.3,1.8,3.4,3,5.3,3.8c2.8,1,3.8-2.6,1-3c2.5-0.7,3.8,2.6,2,4.3
			c-2.9,2.3-9.6,1.4-12.1-0.1c0,0,0,0,0,0c0,0,0,0,0,0l0,0c-0.6-0.3-1-0.8-1.3-1.4c-0.3,0.6-0.7,1.1-1.3,1.4l0,0c0,0,0,0,0,0
			c0,0,0,0,0,0c-2.5,1.5-9.2,2.3-12.1,0.1c-1.8-1.6-0.5-5,2-4.3c-2.8,0.5-1.8,4.1,1,3c1.9-0.8,3-2,5.3-3.8c0,0,0.1,0,0.1-0.1l0,0h0
			C73.7,98.3,74.4,98,75.2,98z"/>
	</g>
	<g id="text_3_">
		<g>
			<path fill="#FFFFFF" d="M56.5,134.5c0.9,0.6,2,0.8,3.1,0.6c-1.2-3.2,0.6-7.5,4.9-7.5c1.2,0,2.2,0.5,2.9,1.2l3.1-3
				c0.3-4.2,1.2-6.8,4-6.8c2.1,0,2.7,2.2,0.5,4.3l-2.5,2.5c-0.1,1-0.1,2.2-0.1,3.6c0,5.1-2.4,9.3-7,9.3c-2.5,0-4.2-1-5.1-2.4
				c-1.6,0.4-3.2,0.1-4.4-0.9L56.5,134.5z M61.3,134.4c0.5-0.3,1-0.7,1.4-1.1l3.7-3.6c-0.5-0.4-1.2-0.7-1.9-0.7
				C61.7,129.1,60.4,132.1,61.3,134.4z M62,135.5c0.7,0.8,1.8,1.4,3.4,1.4c3.3,0,5-3.2,5-7.5v-1.6l-2.1,2.1c0.8,1.6,0.6,3.5-0.8,4.7
				l-0.9-0.9c0.9-0.9,1.1-2,0.7-2.8l-3.3,3.3C63.3,134.7,62.7,135.2,62,135.5z M72.7,123.6l0.9-0.9c1.4-1.3,1.2-2.1,0.6-2.1
				C73.4,120.6,72.9,121.5,72.7,123.6z"/>
			<path fill="#FFFFFF" d="M76.2,124.9h2l2.1-3.6h2.2l-2.1,3.6h1.8l-0.6,1h-1.8l-4.7,8.2c-0.5,0.9-0.2,1.2,0.3,1.2
				c1,0,2.5-1.4,4.1-3.3l0.1-0.2c0.3,0.1,0.7,0.5,0.8,0.8c-1.8,2.1-3.9,4-5.7,4c-1.8,0-2.4-1.5-1.5-3.1l4.4-7.6h-2L76.2,124.9z"/>
			<path fill="#FFFFFF" d="M84,132.7l3.9-6.7H90l-6,10.2c1.7-0.7,3.3-2.1,5.1-4.2l0.1-0.2c0.3,0.1,0.7,0.5,0.8,0.8
				c-2.4,2.8-4.6,4.3-6.9,5l-1.7,2.9c-1.6,2.7-4.8,2.2-4.8,0.1c0-1.6,1.8-2.9,4.8-3.7l1.2-2.1c-1,0.9-2.2,1.8-3.2,1.8
				c-1.4,0-2-1.4-0.8-3.3l4.3-7.4h2.2l-4.3,7.4c-0.3,0.5-0.8,1.3-0.3,1.5C81,135.1,82.3,134.2,84,132.7z M79.7,140.2l1-1.8
				c-1.7,0.7-2.2,1.3-2.2,1.9C78.5,140.9,79.2,141,79.7,140.2z"/>
			<path fill="#FFFFFF" d="M94.7,131.9c0.3,0.1,0.7,0.5,0.8,0.8c-1.8,2.1-3.9,4-5.7,4c-1.8,0-2.4-1.5-1.5-3.1l7.1-12.2h2.2
				l-7.3,12.8c-0.5,0.9-0.2,1.2,0.3,1.2c1,0,2.5-1.4,4.1-3.3L94.7,131.9z"/>
			<path fill="#FFFFFF" d="M96.6,132.3l-0.2,0.4c-1,1.8-0.2,2.6,1.1,2.6c1.5,0,3.5-1.4,5.1-3.3l0.1-0.2c0.3,0.1,0.7,0.5,0.8,0.8
				c-1.8,2.1-4.3,4-6.7,4c-2.6,0-3.8-2.1-2.4-4.5l2.3-3.9c0.9-1.6,2.3-2.5,4.1-2.5c1.8,0,2.9,1.5,1.7,3.5l-0.3,0.5
				C100.6,132.6,98,132.9,96.6,132.3z M97.2,131.3c0.8,0.3,2.2,0.3,3.3-1.4l0.3-0.5c1.3-2.3-0.9-2.6-2.2-0.5L97.2,131.3z"/>
		</g>
		<g>
			<path fill="#FFFFFF" d="M55.3,44.5L55.3,44.5c0.1,0.2,0.2,0.2,0.2,0.3c0.1,0,0.1,0,0.2,0c0.2,0,0.3,0.1,0.5,0.1
				c0.2,0.1,0.4,0.2,0.5,0.5l0.4,0.6l-3.4,2.2l-0.4-0.6c-0.2-0.2-0.2-0.4-0.2-0.7c0-0.2,0-0.4,0.1-0.6c0-0.1,0.1-0.2,0.1-0.2
				c0-0.1,0-0.2-0.1-0.3L50.2,41c-0.1-0.2-0.3-0.2-0.5-0.1l-2.4,1.6c-0.2,0.1-0.2,0.3-0.1,0.5l3.1,4.7l0,0l0,0
				c0.1,0.1,0.2,0.2,0.2,0.2c0.1,0,0.2,0,0.2,0c0.2,0,0.3,0.1,0.5,0.1c0.2,0.1,0.4,0.2,0.5,0.5l0.4,0.6L49,51.4l-0.4-0.6
				c-0.1-0.2-0.2-0.4-0.2-0.7c0-0.2,0-0.4,0.1-0.5c0-0.1,0.1-0.2,0.1-0.2c0-0.1,0-0.2-0.1-0.3l0,0l-7.3-11.1
				c-0.1-0.1-0.2-0.2-0.2-0.2c-0.1,0-0.2,0-0.3-0.1c-0.2,0-0.3-0.1-0.5-0.1c-0.2-0.1-0.4-0.2-0.5-0.5l-0.4-0.6l3.3-2.2l0.4,0.6
				c0.1,0.2,0.2,0.5,0.2,0.7c0,0.2,0,0.4-0.1,0.6c0,0.1,0,0.2,0,0.3c0,0.1,0,0.2,0.1,0.3l2.7,4.1c0.1,0.1,0.2,0.2,0.3,0.2
				c0.1,0,0.2,0,0.2-0.1l2.4-1.6c0.1-0.1,0.1-0.1,0.2-0.2c0-0.1,0-0.2-0.1-0.3L46,34.7c-0.1-0.1-0.2-0.2-0.2-0.2
				c-0.1,0-0.2-0.1-0.3-0.1c-0.2,0-0.3-0.1-0.5-0.1c-0.2-0.1-0.4-0.2-0.5-0.5l-0.4-0.6l3.4-2.2l0.4,0.6c0.1,0.2,0.2,0.5,0.2,0.7
				c0,0.2,0,0.4-0.1,0.6c0,0.1,0,0.2,0,0.3c0,0.1,0,0.2,0.1,0.3L55.3,44.5z"/>
			<path fill="#FFFFFF" d="M60.7,42.1L60.7,42.1c0.1,0.2,0.1,0.3,0.2,0.3c0.1,0,0.1,0.1,0.2,0.1c0.2,0,0.3,0.1,0.5,0.2
				c0.2,0.1,0.3,0.3,0.4,0.5l0.3,0.7l-3.7,1.6l-0.3-0.7c-0.1-0.3-0.1-0.5-0.1-0.7c0-0.2,0.1-0.4,0.2-0.5c0.1-0.1,0.1-0.2,0.1-0.2
				c0-0.1,0-0.2-0.1-0.3l0,0l-5.3-12.2c-0.1-0.1-0.1-0.2-0.2-0.3c-0.1,0-0.1-0.1-0.2-0.1c-0.2,0-0.3-0.1-0.5-0.2
				c-0.2-0.1-0.3-0.3-0.4-0.5l-0.3-0.6l3.7-1.6l0.3,0.6c0.1,0.2,0.1,0.5,0.1,0.7c0,0.2-0.1,0.4-0.2,0.5c0,0.1-0.1,0.2-0.1,0.2
				c0,0.1,0,0.2,0.1,0.3L60.7,42.1z"/>
			<path fill="#FFFFFF" d="M64.2,24.7c1.3-0.3,2.4-0.2,3.1,0.3c0.7,0.5,1.3,1.4,1.5,2.6l0.6,2.5c0.3,1.2,0.2,2.1-0.2,3
				c-0.4,0.8-1.3,1.4-2.6,1.7l-1.5,0.4c-0.2,0.1-0.3,0.2-0.3,0.4l1.2,4.8c0,0.2,0.1,0.3,0.1,0.3c0.1,0.1,0.1,0.1,0.2,0.1
				c0.1,0.1,0.3,0.2,0.5,0.3c0.2,0.1,0.3,0.3,0.3,0.6l0.2,0.7l-3.9,1l-0.2-0.7c-0.1-0.3-0.1-0.5,0-0.7c0.1-0.2,0.2-0.4,0.3-0.5
				c0.1-0.1,0.1-0.2,0.1-0.2c0-0.1,0-0.2,0-0.3L60.6,28c-0.1-0.2-0.2-0.4-0.4-0.4c-0.2-0.1-0.3-0.2-0.5-0.3
				c-0.2-0.2-0.3-0.4-0.3-0.7l-0.1-0.6L64.2,24.7z M66.6,28.1c-0.1-0.5-0.4-1-0.7-1.2c-0.3-0.3-0.7-0.3-1.2-0.2L63.2,27
				c-0.1,0-0.2,0.1-0.2,0.1c-0.1,0.1-0.1,0.2-0.1,0.3l1.4,5.5c0.1,0.2,0.2,0.3,0.4,0.3l1.5-0.4c0.5-0.1,0.8-0.4,0.9-0.8
				c0.1-0.4,0.1-0.8,0-1.4L66.6,28.1z"/>
			<path fill="#FFFFFF" d="M75.7,28.3c0,0.3,0.2,0.6,0.5,0.9s0.7,0.6,1.2,0.8c0.5,0.3,1,0.6,1.5,0.9c0.5,0.3,1.1,0.7,1.5,1
				c0.5,0.4,0.9,0.8,1.2,1.3c0.3,0.5,0.5,1,0.5,1.7l0.1,2.4c0,0.6-0.1,1.1-0.3,1.6c-0.2,0.5-0.5,0.9-0.9,1.2
				c-0.4,0.3-0.8,0.5-1.4,0.7C79,40.9,78.5,41,77.9,41c-0.6,0-1.2,0-1.7-0.2c-0.5-0.1-1-0.3-1.4-0.6c-0.4-0.3-0.7-0.6-1-1.1
				c-0.2-0.4-0.4-1-0.4-1.6l-0.1-1.8l1.2,0c0.4,0,0.8,0.1,1,0.3c0.2,0.2,0.3,0.5,0.4,0.8l0,1c0,0.2,0.1,0.4,0.2,0.5
				c0.1,0.2,0.3,0.3,0.5,0.4c0.2,0.1,0.4,0.2,0.6,0.2c0.2,0.1,0.4,0.1,0.7,0.1c0.2,0,0.4-0.1,0.6-0.1c0.2-0.1,0.4-0.2,0.6-0.3
				c0.2-0.1,0.3-0.3,0.5-0.4c0.1-0.2,0.2-0.4,0.2-0.6l-0.1-2.5c0-0.5-0.2-1-0.5-1.3c-0.3-0.4-0.7-0.7-1.2-1c-0.5-0.3-1-0.6-1.5-0.8
				c-0.5-0.3-1-0.6-1.5-0.9c-0.5-0.3-0.8-0.7-1.2-1.2c-0.3-0.5-0.5-1-0.5-1.7l-0.1-1.7c0-0.6,0.1-1.2,0.3-1.7
				c0.2-0.5,0.5-0.8,0.8-1.2c0.4-0.3,0.8-0.5,1.3-0.7c0.5-0.2,1-0.2,1.6-0.3c0.6,0,1.1,0,1.7,0.2c0.5,0.1,1,0.3,1.3,0.6
				c0.4,0.3,0.7,0.6,0.9,1.1c0.2,0.4,0.3,1,0.4,1.6l0.1,1.8l-1.1,0c-0.4,0-0.7-0.1-1-0.3c-0.3-0.2-0.4-0.6-0.4-0.9l0-0.9
				c0-0.2-0.1-0.4-0.2-0.5c-0.1-0.1-0.3-0.3-0.4-0.3c-0.2-0.1-0.4-0.1-0.6-0.2c-0.2,0-0.4,0-0.5,0c-0.2,0-0.4,0-0.5,0.1
				c-0.2,0.1-0.4,0.1-0.5,0.2c-0.2,0.1-0.3,0.2-0.4,0.4c-0.1,0.1-0.2,0.3-0.2,0.5L75.7,28.3z"/>
			<path fill="#FFFFFF" d="M96.2,25c0.1,0.2,0.1,0.5,0.1,0.9l-0.1,0.7l-0.2,1.3l-1.3-0.2c-0.2,0-0.4-0.1-0.5-0.3
				c-0.1-0.2-0.1-0.4-0.1-0.6c0-0.2,0-0.3-0.2-0.4l-1.2-0.2c-0.1,0-0.2,0-0.3,0c-0.1,0.1-0.1,0.1-0.2,0.3l-2.4,13.1
				c0,0.2,0,0.3,0,0.3c0,0.1,0.1,0.1,0.2,0.2c0.1,0.1,0.2,0.3,0.3,0.5c0.1,0.2,0.1,0.4,0.1,0.7L90.3,42l-3.9-0.7l0.1-0.7
				c0-0.3,0.2-0.5,0.3-0.6c0.2-0.2,0.3-0.3,0.5-0.3c0.1-0.1,0.1-0.1,0.2-0.2c0.1-0.1,0.1-0.2,0.1-0.3L90,26c0-0.1,0-0.2-0.1-0.3
				c-0.1-0.1-0.1-0.1-0.2-0.1l-1-0.2c-0.1,0-0.1,0-0.2,0c-0.1,0-0.2,0.1-0.2,0.2c0,0.3-0.2,0.5-0.3,0.6c-0.2,0.1-0.4,0.1-0.8,0.1
				L86,26.1l0.3-1.4l0.1-0.7c0.1-0.4,0.2-0.6,0.4-0.7c0.2-0.1,0.5-0.1,1-0.1l7.7,1.4C95.9,24.7,96.1,24.8,96.2,25z"/>
			<path fill="#FFFFFF" d="M103.6,29.6c-0.1,0-0.2,0.1-0.2,0.2l-1.9,4.6c-0.1,0.2,0,0.4,0.2,0.4l2.6,1.1c0.1,0,0.1,0.1,0.2,0.2
				c0.1,0.1,0.1,0.2,0,0.3l-0.5,1.2c-0.1,0.2-0.2,0.3-0.5,0.2l-2.7-1.1c-0.2-0.1-0.4,0-0.5,0.2L98.2,42c-0.1,0.2,0,0.3,0.1,0.4
				l2.2,0.9c0.2,0.1,0.3,0,0.4-0.2c0.1-0.2,0.3-0.4,0.5-0.4c0.3,0,0.6,0,0.9,0.1l0.8,0.4l-1,2.3c-0.1,0.2-0.2,0.3-0.3,0.3
				c-0.2,0.1-0.3,0.1-0.5,0l-1.4-0.6l-4.3-1.8l-1.3-0.6l0.2-0.6c0.1-0.3,0.3-0.6,0.4-0.7c0.2-0.1,0.3-0.2,0.5-0.2
				c0.2,0,0.4-0.1,0.5-0.3l5.1-12.2c0.1-0.1,0.1-0.2,0-0.3c0-0.1-0.1-0.2-0.1-0.3c-0.1-0.1-0.2-0.3-0.2-0.5c0-0.2,0-0.4,0.2-0.7
				l0.3-0.6l7,2.9c0.2,0.1,0.3,0.2,0.4,0.3c0.1,0.1,0.1,0.3,0,0.4l-1,2.3l-0.8-0.3c-0.3-0.1-0.6-0.3-0.7-0.5
				c-0.2-0.2-0.2-0.4-0.1-0.6c0-0.1,0.1-0.2,0-0.3c0-0.1-0.1-0.2-0.2-0.2l-2.1-0.9C103.7,29.5,103.7,29.5,103.6,29.6z"/>
			<path fill="#FFFFFF" d="M111.7,50.3c0.1,0.1,0.1,0.3,0.1,0.5c0,0.2,0,0.4-0.2,0.6l-0.5,0.8l-1.6-1.1c-0.3-0.2-0.5-0.5-0.6-0.8
				c0-0.3,0-0.6,0.2-0.9l2.7-3.9c0.3-0.5,0.5-0.9,0.5-1.3c0-0.4-0.2-0.7-0.7-1l-1.2-0.8c-0.2-0.1-0.3-0.1-0.4,0.1l-2.8,4.1
				c-0.1,0.1-0.1,0.2-0.1,0.3c0,0.1,0,0.2,0,0.3c0.1,0.2,0.1,0.3,0.1,0.6c0,0.2-0.1,0.4-0.2,0.7l-0.4,0.6l-3.3-2.3l0.4-0.6
				c0.2-0.2,0.3-0.4,0.5-0.4c0.2-0.1,0.4-0.1,0.5-0.1c0.1,0,0.2,0,0.2-0.1c0.1,0,0.2-0.1,0.3-0.2l7.6-11c0.1-0.1,0.1-0.2,0.1-0.3
				c0-0.1,0-0.2,0-0.2c-0.1-0.1-0.1-0.3-0.1-0.5c0-0.2,0.1-0.5,0.3-0.7l0.4-0.6l4.1,2.8c0.6,0.4,1,0.8,1.3,1.2
				c0.3,0.4,0.5,0.9,0.5,1.4c0.1,0.5,0,0.9-0.2,1.4c-0.2,0.5-0.4,1-0.7,1.5l-1.4,2c-0.3,0.4-0.6,0.7-1.1,1c-0.4,0.2-0.8,0.4-1.3,0.4
				c-0.2,0-0.3,0.2-0.2,0.4c0.1,0.4,0.2,0.9,0,1.4c-0.1,0.5-0.4,1-0.7,1.5l-2,2.9c-0.1,0.1-0.1,0.2-0.1,0.3
				C111.6,50.1,111.7,50.2,111.7,50.3z M116.5,38.7c0.3-0.5,0.5-0.9,0.5-1.3c0-0.4-0.2-0.7-0.6-1l-1.2-0.8c-0.2-0.1-0.4-0.1-0.5,0.1
				l-3.2,4.7c0,0.1-0.1,0.1,0,0.2c0,0.1,0.1,0.1,0.1,0.2l1.2,0.9c0.4,0.3,0.8,0.4,1.2,0.2c0.4-0.1,0.7-0.4,1-0.9L116.5,38.7z"/>
		</g>
	</g>
</g>
</svg>
